M48
; DRILL file {KiCad (5.1.12)-1} date 03/29/22 15:26:45
; FORMAT={-:-/ absolute / metric / decimal}
; #@! TF.CreationDate,2022-03-29T15:26:45+01:00
; #@! TF.GenerationSoftware,Kicad,Pcbnew,(5.1.12)-1
FMAT,2
METRIC
T1C0.800
T2C0.900
T3C1.000
T4C2.700
%
G90
G05
T1
X201.05Y-107.074
X205.08Y-141.872
X206.096Y-122.06
X206.35Y-115.71
X206.35Y-119.012
X207.62Y-103.01
X209.144Y-101.74
X211.43Y-101.74
X212.446Y-133.49
X213.97Y-115.71
X213.97Y-119.012
X214.478Y-133.49
X215.494Y-121.044
X216.002Y-117.742
X216.51Y-138.57
X216.51Y-142.38
X216.51Y-146.19
X216.764Y-115.71
X219.05Y-134.76
X220.32Y-120.536
X222.352Y-101.486
X222.606Y-121.044
X224.13Y-101.994
X224.13Y-138.57
X224.13Y-142.38
X224.13Y-146.19
X224.384Y-115.202
X224.638Y-104.026
X226.67Y-134.76
X226.76Y-138.57
X226.924Y-106.312
X227.432Y-114.948
X227.558Y-101.508
X229.232Y-114.948
X231.75Y-114.948
X233.528Y-120.536
X234.29Y-142.38
X234.38Y-138.57
X237.338Y-112.154
X237.592Y-101.232
X239.563Y-103.836
X241.91Y-142.38
X243.18Y-111.646
X245.974Y-111.392
X247.433Y-102.21
X249.405Y-111.119
X251.04Y-109.162
X252.158Y-103.457
X252.578Y-112.662
X253.34Y-101.74
X253.34Y-109.36
X257.15Y-101.74
X257.15Y-109.36
T2
X207.366Y-126.632
X207.62Y-133.49
X209.906Y-126.632
X210.16Y-133.49
X260.96Y-105.55
X260.96Y-111.9
X263.5Y-105.55
X263.5Y-111.9
T3
X203.81Y-106.82
X203.81Y-109.36
X208.37Y-96.23
X208.37Y-98.77
X208.89Y-138.57
X208.89Y-141.11
X208.89Y-143.65
X208.89Y-146.19
X210.91Y-96.23
X210.91Y-98.77
X212.61Y-138.87
X212.61Y-141.41
X212.61Y-143.95
X212.61Y-146.49
X213.45Y-96.23
X213.45Y-98.77
X213.99Y-106.82
X215.99Y-96.23
X215.99Y-98.77
X218.53Y-96.23
X218.53Y-98.77
X219.05Y-116.98
X221.07Y-96.23
X221.07Y-98.77
X221.59Y-106.82
X221.59Y-116.98
X223.61Y-96.23
X223.61Y-98.77
X224.13Y-116.98
X226.15Y-96.23
X226.15Y-98.77
X226.67Y-116.98
X228.69Y-96.23
X228.69Y-98.77
X229.21Y-116.98
X231.23Y-96.23
X231.23Y-98.77
X231.75Y-116.98
X232.305Y-103.565
X232.305Y-106.105
X232.305Y-108.645
X233.77Y-96.23
X233.77Y-98.77
X236.31Y-96.23
X236.31Y-98.77
X236.955Y-103.565
X236.955Y-106.105
X236.955Y-108.645
X237.385Y-116.015
X237.385Y-120.665
X237.385Y-125.315
X238.85Y-96.23
X238.85Y-98.77
X239.925Y-116.015
X239.925Y-120.665
X239.925Y-125.315
X241.39Y-96.23
X241.39Y-98.77
X241.605Y-103.565
X241.605Y-106.105
X241.605Y-108.645
X242.465Y-116.015
X242.465Y-120.665
X242.465Y-125.315
X243.93Y-96.23
X243.93Y-98.77
X245.005Y-116.015
X245.005Y-120.665
X245.005Y-125.315
X245.72Y-103.565
X245.72Y-106.105
X245.72Y-108.645
X246.47Y-96.23
X246.47Y-98.77
X247.545Y-116.015
X247.545Y-120.665
X247.545Y-125.315
X249.01Y-96.23
X249.01Y-98.77
X250.085Y-116.015
X250.085Y-120.665
X250.085Y-125.315
X251.55Y-96.23
X251.55Y-98.77
X252.625Y-116.015
X252.625Y-120.665
X252.625Y-125.315
X254.09Y-96.23
X254.09Y-98.77
X256.63Y-96.23
X256.63Y-98.77
X258.42Y-120.79
X258.42Y-123.33
X258.42Y-125.87
X258.42Y-128.41
X262.23Y-123.33
X262.23Y-125.87
T4
X203.5Y-97.5
X203.5Y-146.5
X261.5Y-97.5
X261.5Y-146.5
T0
M30
