G04 #@! TF.GenerationSoftware,KiCad,Pcbnew,(5.1.12)-1*
G04 #@! TF.CreationDate,2022-03-29T15:25:59+01:00*
G04 #@! TF.ProjectId,Mars Rover,4d617273-2052-46f7-9665-722e6b696361,1.0*
G04 #@! TF.SameCoordinates,Original*
G04 #@! TF.FileFunction,Copper,L2,Bot*
G04 #@! TF.FilePolarity,Positive*
%FSLAX46Y46*%
G04 Gerber Fmt 4.6, Leading zero omitted, Abs format (unit mm)*
G04 Created by KiCad (PCBNEW (5.1.12)-1) date 2022-03-29 15:25:59*
%MOMM*%
%LPD*%
G01*
G04 APERTURE LIST*
G04 #@! TA.AperFunction,ComponentPad*
%ADD10C,2.000000*%
G04 #@! TD*
G04 #@! TA.AperFunction,ComponentPad*
%ADD11R,2.000000X2.000000*%
G04 #@! TD*
G04 #@! TA.AperFunction,ComponentPad*
%ADD12O,1.700000X1.700000*%
G04 #@! TD*
G04 #@! TA.AperFunction,ComponentPad*
%ADD13R,1.700000X1.700000*%
G04 #@! TD*
G04 #@! TA.AperFunction,ComponentPad*
%ADD14O,1.600000X1.600000*%
G04 #@! TD*
G04 #@! TA.AperFunction,ComponentPad*
%ADD15C,1.600000*%
G04 #@! TD*
G04 #@! TA.AperFunction,ComponentPad*
%ADD16C,1.800000*%
G04 #@! TD*
G04 #@! TA.AperFunction,ComponentPad*
%ADD17R,1.800000X1.800000*%
G04 #@! TD*
G04 #@! TA.AperFunction,ViaPad*
%ADD18C,1.600000*%
G04 #@! TD*
G04 #@! TA.AperFunction,Conductor*
%ADD19C,0.500000*%
G04 #@! TD*
G04 #@! TA.AperFunction,Conductor*
%ADD20C,0.400000*%
G04 #@! TD*
G04 #@! TA.AperFunction,Conductor*
%ADD21C,0.300000*%
G04 #@! TD*
G04 #@! TA.AperFunction,Conductor*
%ADD22C,0.254000*%
G04 #@! TD*
G04 #@! TA.AperFunction,Conductor*
%ADD23C,0.150000*%
G04 #@! TD*
G04 APERTURE END LIST*
D10*
X213990000Y-106820000D03*
D11*
X221590000Y-106820000D03*
D12*
X208890000Y-146190000D03*
X208890000Y-143650000D03*
X208890000Y-141110000D03*
D13*
X208890000Y-138570000D03*
X208370000Y-98770000D03*
D12*
X208370000Y-96230000D03*
X210910000Y-98770000D03*
X210910000Y-96230000D03*
X213450000Y-98770000D03*
X213450000Y-96230000D03*
X215990000Y-98770000D03*
X215990000Y-96230000D03*
X218530000Y-98770000D03*
X218530000Y-96230000D03*
X221070000Y-98770000D03*
X221070000Y-96230000D03*
X223610000Y-98770000D03*
X223610000Y-96230000D03*
X226150000Y-98770000D03*
X226150000Y-96230000D03*
X228690000Y-98770000D03*
X228690000Y-96230000D03*
X231230000Y-98770000D03*
X231230000Y-96230000D03*
X233770000Y-98770000D03*
X233770000Y-96230000D03*
X236310000Y-98770000D03*
X236310000Y-96230000D03*
X238850000Y-98770000D03*
X238850000Y-96230000D03*
X241390000Y-98770000D03*
X241390000Y-96230000D03*
X243930000Y-98770000D03*
X243930000Y-96230000D03*
X246470000Y-98770000D03*
X246470000Y-96230000D03*
X249010000Y-98770000D03*
X249010000Y-96230000D03*
X251550000Y-98770000D03*
X251550000Y-96230000D03*
X254090000Y-98770000D03*
X254090000Y-96230000D03*
X256630000Y-98770000D03*
X256630000Y-96230000D03*
X241605001Y-108645001D03*
X241605001Y-106105001D03*
D13*
X241605001Y-103565001D03*
D12*
X258420000Y-128410000D03*
X258420000Y-125870000D03*
X258420000Y-123330000D03*
D13*
X258420000Y-120790000D03*
D12*
X212610000Y-146490000D03*
X212610000Y-143950000D03*
X212610000Y-141410000D03*
D13*
X212610000Y-138870000D03*
D14*
X216510000Y-146190000D03*
D15*
X224130000Y-146190000D03*
D14*
X224130000Y-142380000D03*
D15*
X216510000Y-142380000D03*
D14*
X224130000Y-138570000D03*
D15*
X216510000Y-138570000D03*
D14*
X241910000Y-142380000D03*
D15*
X234290000Y-142380000D03*
D14*
X234380000Y-138570000D03*
D15*
X226760000Y-138570000D03*
D14*
X226670000Y-134760000D03*
D15*
X219050000Y-134760000D03*
D12*
X231750000Y-116980000D03*
X229210000Y-116980000D03*
X226670000Y-116980000D03*
X224130000Y-116980000D03*
X221590000Y-116980000D03*
D13*
X219050000Y-116980000D03*
D12*
X252625001Y-116014999D03*
X250085001Y-116014999D03*
X247545001Y-116014999D03*
X245005001Y-116014999D03*
X242465001Y-116014999D03*
X239925001Y-116014999D03*
D13*
X237385001Y-116014999D03*
D12*
X252625001Y-120664999D03*
X250085001Y-120664999D03*
X247545001Y-120664999D03*
X245005001Y-120664999D03*
X242465001Y-120664999D03*
X239925001Y-120664999D03*
D13*
X237385001Y-120664999D03*
D12*
X252625001Y-125314999D03*
X250085001Y-125314999D03*
X247545001Y-125314999D03*
X245005001Y-125314999D03*
X242465001Y-125314999D03*
X239925001Y-125314999D03*
D13*
X237385001Y-125314999D03*
D16*
X263500000Y-105550000D03*
D17*
X260960000Y-105550000D03*
D16*
X263500000Y-111900000D03*
D17*
X260960000Y-111900000D03*
D14*
X253340000Y-109360000D03*
D15*
X253340000Y-101740000D03*
D14*
X257150000Y-109360000D03*
D15*
X257150000Y-101740000D03*
D14*
X206350000Y-115710000D03*
D15*
X213970000Y-115710000D03*
D14*
X206350000Y-119012000D03*
D15*
X213970000Y-119012000D03*
D16*
X209906000Y-126632000D03*
D17*
X207366000Y-126632000D03*
D16*
X210160000Y-133490000D03*
D17*
X207620000Y-133490000D03*
D12*
X203810000Y-109360000D03*
D13*
X203810000Y-106820000D03*
D12*
X262230000Y-125870000D03*
D13*
X262230000Y-123330000D03*
D12*
X245720000Y-108645001D03*
X245720000Y-106105001D03*
D13*
X245720000Y-103565001D03*
D12*
X236955001Y-108645001D03*
X236955001Y-106105001D03*
D13*
X236955001Y-103565001D03*
D12*
X232305001Y-108645001D03*
X232305001Y-106105001D03*
D13*
X232305001Y-103565001D03*
D18*
X216764000Y-115710000D03*
X201050000Y-107074000D03*
X215494000Y-121044000D03*
X214478000Y-133490000D03*
X207620000Y-103010000D03*
X212446000Y-133490000D03*
X205080000Y-141872000D03*
X237338000Y-112154000D03*
X252578000Y-112662000D03*
X233528000Y-120536000D03*
X211430000Y-101740000D03*
X239562945Y-103835602D03*
X251039989Y-109162434D03*
X222352000Y-101486000D03*
X224130000Y-101994000D03*
X220320000Y-120536000D03*
X222606000Y-121044000D03*
X226924000Y-106312000D03*
X224638000Y-104026000D03*
X224384000Y-115202000D03*
X229232013Y-114948000D03*
X227558021Y-101508084D03*
X209144000Y-101740000D03*
X227432000Y-114948000D03*
X231750000Y-114948000D03*
X237592000Y-101232000D03*
X247433322Y-102210323D03*
X245974000Y-111392000D03*
X243180000Y-111646000D03*
X249405363Y-111118715D03*
X252157822Y-103456542D03*
X206096000Y-122060000D03*
X216002000Y-117742000D03*
D19*
X218034000Y-116980000D02*
X216764000Y-115710000D01*
X219050000Y-116980000D02*
X218034000Y-116980000D01*
X203556000Y-107074000D02*
X203810000Y-106820000D01*
X201050000Y-107074000D02*
X203556000Y-107074000D01*
X209190000Y-138870000D02*
X208890000Y-138570000D01*
X212610000Y-138870000D02*
X209190000Y-138870000D01*
X219050000Y-116980000D02*
X219050000Y-117234000D01*
X215494000Y-120790000D02*
X215494000Y-121044000D01*
X219050000Y-117234000D02*
X215494000Y-120790000D01*
X214478000Y-137002000D02*
X212610000Y-138870000D01*
X214478000Y-133490000D02*
X214478000Y-137002000D01*
X219050000Y-116980000D02*
X219050000Y-115630000D01*
X219050000Y-115630000D02*
X227117999Y-107562001D01*
X227117999Y-107562001D02*
X230848001Y-107562001D01*
X230848001Y-107562001D02*
X232305001Y-106105001D01*
X242102548Y-106105001D02*
X243271762Y-104935787D01*
X232305001Y-106105001D02*
X242102548Y-106105001D01*
X243271762Y-104935787D02*
X244550786Y-104935787D01*
X244550786Y-104935787D02*
X245720000Y-106105001D01*
X207620000Y-103010000D02*
X203810000Y-106820000D01*
X252625001Y-116014999D02*
X252625001Y-120664999D01*
X252625001Y-120664999D02*
X252625001Y-125314999D01*
X252625001Y-125314999D02*
X252625001Y-126933001D01*
X254102000Y-128410000D02*
X258420000Y-128410000D01*
X252625001Y-126933001D02*
X254102000Y-128410000D01*
X259690000Y-128410000D02*
X262230000Y-125870000D01*
X258420000Y-128410000D02*
X259690000Y-128410000D01*
X212910000Y-146190000D02*
X212610000Y-146490000D01*
X216510000Y-146190000D02*
X212910000Y-146190000D01*
X209190000Y-146490000D02*
X208890000Y-146190000D01*
X212610000Y-146490000D02*
X209190000Y-146490000D01*
X211450000Y-109360000D02*
X213990000Y-106820000D01*
X203810000Y-109360000D02*
X211450000Y-109360000D01*
X228339214Y-108645001D02*
X232305001Y-108645001D01*
X221590000Y-115394215D02*
X228339214Y-108645001D01*
X221590000Y-116980000D02*
X221590000Y-115394215D01*
X241910000Y-142380000D02*
X241910000Y-130442000D01*
X253649529Y-128862471D02*
X254102000Y-128410000D01*
X243489530Y-128862471D02*
X253649529Y-128862471D01*
X241910000Y-130442000D02*
X243489530Y-128862471D01*
X210160000Y-126886000D02*
X209906000Y-126632000D01*
X210160000Y-133490000D02*
X210160000Y-126886000D01*
X211938000Y-126632000D02*
X209906000Y-126632000D01*
X221590000Y-116980000D02*
X211938000Y-126632000D01*
X210160000Y-133490000D02*
X212446000Y-133490000D01*
X208890000Y-145682000D02*
X208890000Y-146190000D01*
X205080000Y-141872000D02*
X208890000Y-145682000D01*
X236955001Y-111771001D02*
X237338000Y-112154000D01*
X236955001Y-108645001D02*
X236955001Y-111771001D01*
X252578000Y-115967998D02*
X252625001Y-116014999D01*
X252578000Y-112662000D02*
X252578000Y-115967998D01*
X263500000Y-105550000D02*
X263500000Y-111900000D01*
X256720000Y-98770000D02*
X256630000Y-98770000D01*
X263500000Y-105550000D02*
X256720000Y-98770000D01*
X264399999Y-112799999D02*
X263500000Y-111900000D01*
X264399999Y-123700001D02*
X264399999Y-112799999D01*
X262230000Y-125870000D02*
X264399999Y-123700001D01*
X245649989Y-108645001D02*
X245720000Y-108645001D01*
X232305001Y-108645001D02*
X236955001Y-108645001D01*
X236955001Y-108645001D02*
X241605001Y-108645001D01*
X241605001Y-108645001D02*
X245720000Y-108645001D01*
D20*
X240139999Y-97480001D02*
X238850000Y-98770000D01*
X242679999Y-97480001D02*
X240139999Y-97480001D01*
X243930000Y-96230000D02*
X242679999Y-97480001D01*
D19*
X211430000Y-101740000D02*
X211430000Y-104260000D01*
X211430000Y-104260000D02*
X213990000Y-106820000D01*
D21*
X241605001Y-103565001D02*
X245720000Y-103565001D01*
X241605001Y-103565001D02*
X239833546Y-103565001D01*
X239833546Y-103565001D02*
X239562945Y-103835602D01*
X247545001Y-116014999D02*
X247545001Y-125314999D01*
X247545001Y-114681081D02*
X251039989Y-111186093D01*
X247545001Y-116014999D02*
X247545001Y-114681081D01*
X251039989Y-111186093D02*
X251039989Y-109162434D01*
X215240000Y-114440000D02*
X213970000Y-115710000D01*
X215240000Y-110539998D02*
X215240000Y-114440000D01*
X215340001Y-110439997D02*
X215240000Y-110539998D01*
X215340001Y-108243999D02*
X215340001Y-110439997D01*
X215594001Y-108243999D02*
X215340001Y-108243999D01*
X222352000Y-101486000D02*
X215594001Y-108243999D01*
X213970000Y-115710000D02*
X213970000Y-119012000D01*
X221590000Y-106820000D02*
X221590000Y-104788000D01*
X224130000Y-102248000D02*
X224130000Y-101994000D01*
X221590000Y-104788000D02*
X224130000Y-102248000D01*
X212310000Y-141110000D02*
X212610000Y-141410000D01*
X208890000Y-141110000D02*
X212310000Y-141110000D01*
X213810001Y-140209999D02*
X213810001Y-139237999D01*
X212610000Y-141410000D02*
X213810001Y-140209999D01*
X213810001Y-139237999D02*
X216002000Y-137046000D01*
X216002000Y-124854000D02*
X220320000Y-120536000D01*
X216002000Y-137046000D02*
X216002000Y-124854000D01*
X216510000Y-137300000D02*
X219050000Y-134760000D01*
X216510000Y-138570000D02*
X216510000Y-137300000D01*
X219050000Y-134760000D02*
X219050000Y-124600000D01*
X219050000Y-124600000D02*
X222606000Y-121044000D01*
X226924000Y-106312000D02*
X225400000Y-104788000D01*
X225400000Y-104788000D02*
X224638000Y-104026000D01*
X224130000Y-115456000D02*
X224384000Y-115202000D01*
X224130000Y-116980000D02*
X224130000Y-115456000D01*
X229210000Y-116980000D02*
X229210000Y-114970013D01*
X229210000Y-114970013D02*
X229232013Y-114948000D01*
X253340000Y-101740000D02*
X257150000Y-101740000D01*
X228414937Y-102365000D02*
X228358020Y-102308083D01*
X228358020Y-102308083D02*
X227558021Y-101508084D01*
X251131670Y-101740000D02*
X249473669Y-100081999D01*
X234502998Y-102365000D02*
X228414937Y-102365000D01*
X249473669Y-100081999D02*
X236785999Y-100081999D01*
X236785999Y-100081999D02*
X234502998Y-102365000D01*
X253340000Y-101740000D02*
X251131670Y-101740000D01*
X210913999Y-99970001D02*
X209144000Y-101740000D01*
X226019938Y-99970001D02*
X210913999Y-99970001D01*
X227558021Y-101508084D02*
X226019938Y-99970001D01*
X226670000Y-115710000D02*
X227432000Y-114948000D01*
X226670000Y-116980000D02*
X226670000Y-115710000D01*
X231750000Y-116980000D02*
X231750000Y-114948000D01*
X232305001Y-103565001D02*
X236955001Y-103565001D01*
X237592000Y-102928002D02*
X236955001Y-103565001D01*
X237592000Y-101232000D02*
X237592000Y-102928002D01*
X237385001Y-116014999D02*
X237385001Y-125314999D01*
X244719910Y-110423622D02*
X245298530Y-109845002D01*
X245298530Y-109845002D02*
X246296001Y-109845002D01*
X247433322Y-108707681D02*
X247433322Y-102210323D01*
X241826377Y-110423623D02*
X244719910Y-110423622D01*
X237385001Y-114864999D02*
X241826377Y-110423623D01*
X237385001Y-116014999D02*
X237385001Y-114864999D01*
X246296001Y-109845002D02*
X247433322Y-108707681D01*
X242465001Y-116014999D02*
X242465001Y-125314999D01*
X245974000Y-112506000D02*
X245974000Y-111392000D01*
X242465001Y-116014999D02*
X245974000Y-112506000D01*
X239925001Y-116014999D02*
X239925001Y-125314999D01*
X243180000Y-112760000D02*
X243180000Y-111646000D01*
X239925001Y-116014999D02*
X243180000Y-112760000D01*
X245005001Y-116014999D02*
X245005001Y-125314999D01*
X245005001Y-116014999D02*
X245005001Y-114812918D01*
X248768000Y-110630000D02*
X248916648Y-110630000D01*
X248768000Y-111049919D02*
X248768000Y-110630000D01*
X245005001Y-114812918D02*
X248768000Y-111049919D01*
X248916648Y-110630000D02*
X249405363Y-111118715D01*
X250085001Y-116014999D02*
X250085001Y-120664999D01*
X250085001Y-125314999D02*
X250085001Y-120664999D01*
X250085001Y-112848203D02*
X252190000Y-110743204D01*
X250085001Y-116014999D02*
X250085001Y-112848203D01*
X252190000Y-110743204D02*
X252190000Y-103488720D01*
X252190000Y-103488720D02*
X252157822Y-103456542D01*
D19*
X262230000Y-123330000D02*
X258420000Y-123330000D01*
X258420000Y-120790000D02*
X258420000Y-125870000D01*
D21*
X208616001Y-132493999D02*
X207620000Y-133490000D01*
X208616001Y-121278001D02*
X208616001Y-132493999D01*
X206350000Y-119012000D02*
X208616001Y-121278001D01*
X207366000Y-126632000D02*
X207366000Y-123838000D01*
X206096000Y-122568000D02*
X206096000Y-122060000D01*
X207366000Y-123838000D02*
X206096000Y-122568000D01*
X216002000Y-117742000D02*
X216002000Y-118873370D01*
X216002000Y-118873370D02*
X214713369Y-120162001D01*
X214713369Y-120162001D02*
X210802001Y-120162001D01*
X210802001Y-120162001D02*
X207149999Y-116509999D01*
X207149999Y-116509999D02*
X206350000Y-115710000D01*
X259690000Y-111900000D02*
X257150000Y-109360000D01*
X260960000Y-111900000D02*
X259690000Y-111900000D01*
X257150000Y-105550000D02*
X260960000Y-105550000D01*
X253340000Y-109360000D02*
X257150000Y-105550000D01*
X234380000Y-142290000D02*
X234290000Y-142380000D01*
X234380000Y-138570000D02*
X234380000Y-142290000D01*
X226760000Y-134850000D02*
X226670000Y-134760000D01*
X226760000Y-138570000D02*
X226760000Y-134850000D01*
X226760000Y-138570000D02*
X224130000Y-138570000D01*
X224130000Y-138570000D02*
X224130000Y-139840000D01*
X221590000Y-142380000D02*
X216510000Y-142380000D01*
X224130000Y-139840000D02*
X221590000Y-142380000D01*
X212310000Y-143650000D02*
X212610000Y-143950000D01*
X208890000Y-143650000D02*
X212310000Y-143650000D01*
X214940000Y-143950000D02*
X216510000Y-142380000D01*
X212610000Y-143950000D02*
X214940000Y-143950000D01*
X224130000Y-142380000D02*
X224130000Y-146190000D01*
D22*
X244249461Y-105886040D02*
X244235000Y-105958741D01*
X244235000Y-106251261D01*
X244292068Y-106538159D01*
X244404010Y-106808412D01*
X244566525Y-107051633D01*
X244773368Y-107258476D01*
X244955534Y-107380196D01*
X244838645Y-107449823D01*
X244622412Y-107644732D01*
X244448359Y-107878081D01*
X244323175Y-108140902D01*
X244278524Y-108288111D01*
X244399845Y-108518001D01*
X245593000Y-108518001D01*
X245593000Y-108498001D01*
X245847000Y-108498001D01*
X245847000Y-108518001D01*
X245867000Y-108518001D01*
X245867000Y-108772001D01*
X245847000Y-108772001D01*
X245847000Y-108792001D01*
X245593000Y-108792001D01*
X245593000Y-108772001D01*
X244399845Y-108772001D01*
X244278524Y-109001891D01*
X244323175Y-109149100D01*
X244448359Y-109411921D01*
X244522310Y-109511065D01*
X244394752Y-109638622D01*
X242707547Y-109638623D01*
X242876642Y-109411921D01*
X243001826Y-109149100D01*
X243046477Y-109001891D01*
X242925156Y-108772001D01*
X241732001Y-108772001D01*
X241732001Y-108792001D01*
X241478001Y-108792001D01*
X241478001Y-108772001D01*
X240284846Y-108772001D01*
X240163525Y-109001891D01*
X240208176Y-109149100D01*
X240333360Y-109411921D01*
X240507413Y-109645270D01*
X240723646Y-109840179D01*
X240973749Y-109989158D01*
X241104354Y-110035488D01*
X236857186Y-114282657D01*
X236827238Y-114307235D01*
X236802660Y-114337183D01*
X236802656Y-114337187D01*
X236779293Y-114365655D01*
X236729140Y-114426766D01*
X236722066Y-114440001D01*
X236675603Y-114526927D01*
X236535001Y-114526927D01*
X236410519Y-114539187D01*
X236290821Y-114575497D01*
X236180507Y-114634462D01*
X236083816Y-114713814D01*
X236004464Y-114810505D01*
X235945499Y-114920819D01*
X235909189Y-115040517D01*
X235896929Y-115164999D01*
X235896929Y-116864999D01*
X235909189Y-116989481D01*
X235945499Y-117109179D01*
X236004464Y-117219493D01*
X236083816Y-117316184D01*
X236180507Y-117395536D01*
X236290821Y-117454501D01*
X236410519Y-117490811D01*
X236535001Y-117503071D01*
X236600001Y-117503071D01*
X236600001Y-119176927D01*
X236535001Y-119176927D01*
X236410519Y-119189187D01*
X236290821Y-119225497D01*
X236180507Y-119284462D01*
X236083816Y-119363814D01*
X236004464Y-119460505D01*
X235945499Y-119570819D01*
X235909189Y-119690517D01*
X235896929Y-119814999D01*
X235896929Y-121514999D01*
X235909189Y-121639481D01*
X235945499Y-121759179D01*
X236004464Y-121869493D01*
X236083816Y-121966184D01*
X236180507Y-122045536D01*
X236290821Y-122104501D01*
X236410519Y-122140811D01*
X236535001Y-122153071D01*
X236600002Y-122153071D01*
X236600002Y-123826927D01*
X236535001Y-123826927D01*
X236410519Y-123839187D01*
X236290821Y-123875497D01*
X236180507Y-123934462D01*
X236083816Y-124013814D01*
X236004464Y-124110505D01*
X235945499Y-124220819D01*
X235909189Y-124340517D01*
X235896929Y-124464999D01*
X235896929Y-126164999D01*
X235909189Y-126289481D01*
X235945499Y-126409179D01*
X236004464Y-126519493D01*
X236083816Y-126616184D01*
X236180507Y-126695536D01*
X236290821Y-126754501D01*
X236410519Y-126790811D01*
X236535001Y-126803071D01*
X238235001Y-126803071D01*
X238359483Y-126790811D01*
X238479181Y-126754501D01*
X238589495Y-126695536D01*
X238686186Y-126616184D01*
X238765538Y-126519493D01*
X238824503Y-126409179D01*
X238846514Y-126336619D01*
X238978369Y-126468474D01*
X239221590Y-126630989D01*
X239491843Y-126742931D01*
X239778741Y-126799999D01*
X240071261Y-126799999D01*
X240358159Y-126742931D01*
X240628412Y-126630989D01*
X240871633Y-126468474D01*
X241078476Y-126261631D01*
X241195001Y-126087239D01*
X241311526Y-126261631D01*
X241518369Y-126468474D01*
X241761590Y-126630989D01*
X242031843Y-126742931D01*
X242318741Y-126799999D01*
X242611261Y-126799999D01*
X242898159Y-126742931D01*
X243168412Y-126630989D01*
X243411633Y-126468474D01*
X243618476Y-126261631D01*
X243735001Y-126087239D01*
X243851526Y-126261631D01*
X244058369Y-126468474D01*
X244301590Y-126630989D01*
X244571843Y-126742931D01*
X244858741Y-126799999D01*
X245151261Y-126799999D01*
X245438159Y-126742931D01*
X245708412Y-126630989D01*
X245951633Y-126468474D01*
X246158476Y-126261631D01*
X246275001Y-126087239D01*
X246391526Y-126261631D01*
X246598369Y-126468474D01*
X246841590Y-126630989D01*
X247111843Y-126742931D01*
X247398741Y-126799999D01*
X247691261Y-126799999D01*
X247978159Y-126742931D01*
X248248412Y-126630989D01*
X248491633Y-126468474D01*
X248698476Y-126261631D01*
X248815001Y-126087239D01*
X248931526Y-126261631D01*
X249138369Y-126468474D01*
X249381590Y-126630989D01*
X249651843Y-126742931D01*
X249938741Y-126799999D01*
X250231261Y-126799999D01*
X250518159Y-126742931D01*
X250788412Y-126630989D01*
X251031633Y-126468474D01*
X251238476Y-126261631D01*
X251360196Y-126079465D01*
X251429823Y-126196354D01*
X251624732Y-126412587D01*
X251858081Y-126586640D01*
X252120902Y-126711824D01*
X252268111Y-126756475D01*
X252498001Y-126635154D01*
X252498001Y-125441999D01*
X252752001Y-125441999D01*
X252752001Y-126635154D01*
X252981891Y-126756475D01*
X253129100Y-126711824D01*
X253391921Y-126586640D01*
X253625270Y-126412587D01*
X253820179Y-126196354D01*
X253969158Y-125946251D01*
X254066482Y-125671890D01*
X253945815Y-125441999D01*
X252752001Y-125441999D01*
X252498001Y-125441999D01*
X252478001Y-125441999D01*
X252478001Y-125187999D01*
X252498001Y-125187999D01*
X252498001Y-123994844D01*
X252752001Y-123994844D01*
X252752001Y-125187999D01*
X253945815Y-125187999D01*
X254066482Y-124958108D01*
X253969158Y-124683747D01*
X253820179Y-124433644D01*
X253625270Y-124217411D01*
X253391921Y-124043358D01*
X253129100Y-123918174D01*
X252981891Y-123873523D01*
X252752001Y-123994844D01*
X252498001Y-123994844D01*
X252268111Y-123873523D01*
X252120902Y-123918174D01*
X251858081Y-124043358D01*
X251624732Y-124217411D01*
X251429823Y-124433644D01*
X251360196Y-124550533D01*
X251238476Y-124368367D01*
X251031633Y-124161524D01*
X250870001Y-124053525D01*
X250870001Y-121926473D01*
X251031633Y-121818474D01*
X251238476Y-121611631D01*
X251360196Y-121429465D01*
X251429823Y-121546354D01*
X251624732Y-121762587D01*
X251858081Y-121936640D01*
X252120902Y-122061824D01*
X252268111Y-122106475D01*
X252498001Y-121985154D01*
X252498001Y-120791999D01*
X252752001Y-120791999D01*
X252752001Y-121985154D01*
X252981891Y-122106475D01*
X253129100Y-122061824D01*
X253391921Y-121936640D01*
X253625270Y-121762587D01*
X253820179Y-121546354D01*
X253969158Y-121296251D01*
X254066482Y-121021890D01*
X253945815Y-120791999D01*
X252752001Y-120791999D01*
X252498001Y-120791999D01*
X252478001Y-120791999D01*
X252478001Y-120537999D01*
X252498001Y-120537999D01*
X252498001Y-119344844D01*
X252752001Y-119344844D01*
X252752001Y-120537999D01*
X253945815Y-120537999D01*
X254066482Y-120308108D01*
X253969158Y-120033747D01*
X253913316Y-119940000D01*
X256931928Y-119940000D01*
X256931928Y-121640000D01*
X256944188Y-121764482D01*
X256980498Y-121884180D01*
X257039463Y-121994494D01*
X257118815Y-122091185D01*
X257215506Y-122170537D01*
X257325820Y-122229502D01*
X257398380Y-122251513D01*
X257266525Y-122383368D01*
X257104010Y-122626589D01*
X256992068Y-122896842D01*
X256935000Y-123183740D01*
X256935000Y-123476260D01*
X256992068Y-123763158D01*
X257104010Y-124033411D01*
X257266525Y-124276632D01*
X257473368Y-124483475D01*
X257535001Y-124524657D01*
X257535001Y-124675343D01*
X257473368Y-124716525D01*
X257266525Y-124923368D01*
X257104010Y-125166589D01*
X256992068Y-125436842D01*
X256935000Y-125723740D01*
X256935000Y-126016260D01*
X256992068Y-126303158D01*
X257104010Y-126573411D01*
X257266525Y-126816632D01*
X257473368Y-127023475D01*
X257655534Y-127145195D01*
X257538645Y-127214822D01*
X257322412Y-127409731D01*
X257148359Y-127643080D01*
X257023175Y-127905901D01*
X256978524Y-128053110D01*
X257099845Y-128283000D01*
X258293000Y-128283000D01*
X258293000Y-128263000D01*
X258547000Y-128263000D01*
X258547000Y-128283000D01*
X259740155Y-128283000D01*
X259861476Y-128053110D01*
X259816825Y-127905901D01*
X259691641Y-127643080D01*
X259517588Y-127409731D01*
X259301355Y-127214822D01*
X259184466Y-127145195D01*
X259366632Y-127023475D01*
X259573475Y-126816632D01*
X259735990Y-126573411D01*
X259847932Y-126303158D01*
X259863102Y-126226890D01*
X260788524Y-126226890D01*
X260833175Y-126374099D01*
X260958359Y-126636920D01*
X261132412Y-126870269D01*
X261348645Y-127065178D01*
X261598748Y-127214157D01*
X261873109Y-127311481D01*
X262103000Y-127190814D01*
X262103000Y-125997000D01*
X262357000Y-125997000D01*
X262357000Y-127190814D01*
X262586891Y-127311481D01*
X262861252Y-127214157D01*
X263111355Y-127065178D01*
X263327588Y-126870269D01*
X263501641Y-126636920D01*
X263626825Y-126374099D01*
X263671476Y-126226890D01*
X263550155Y-125997000D01*
X262357000Y-125997000D01*
X262103000Y-125997000D01*
X260909845Y-125997000D01*
X260788524Y-126226890D01*
X259863102Y-126226890D01*
X259905000Y-126016260D01*
X259905000Y-125723740D01*
X259847932Y-125436842D01*
X259735990Y-125166589D01*
X259573475Y-124923368D01*
X259366632Y-124716525D01*
X259305000Y-124675344D01*
X259305000Y-124524656D01*
X259366632Y-124483475D01*
X259573475Y-124276632D01*
X259614656Y-124215000D01*
X260745375Y-124215000D01*
X260754188Y-124304482D01*
X260790498Y-124424180D01*
X260849463Y-124534494D01*
X260928815Y-124631185D01*
X261025506Y-124710537D01*
X261135820Y-124769502D01*
X261216466Y-124793966D01*
X261132412Y-124869731D01*
X260958359Y-125103080D01*
X260833175Y-125365901D01*
X260788524Y-125513110D01*
X260909845Y-125743000D01*
X262103000Y-125743000D01*
X262103000Y-125723000D01*
X262357000Y-125723000D01*
X262357000Y-125743000D01*
X263550155Y-125743000D01*
X263671476Y-125513110D01*
X263626825Y-125365901D01*
X263501641Y-125103080D01*
X263327588Y-124869731D01*
X263243534Y-124793966D01*
X263324180Y-124769502D01*
X263434494Y-124710537D01*
X263531185Y-124631185D01*
X263610537Y-124534494D01*
X263669502Y-124424180D01*
X263705812Y-124304482D01*
X263718072Y-124180000D01*
X263718072Y-122480000D01*
X263705812Y-122355518D01*
X263669502Y-122235820D01*
X263610537Y-122125506D01*
X263531185Y-122028815D01*
X263434494Y-121949463D01*
X263324180Y-121890498D01*
X263204482Y-121854188D01*
X263080000Y-121841928D01*
X261380000Y-121841928D01*
X261255518Y-121854188D01*
X261135820Y-121890498D01*
X261025506Y-121949463D01*
X260928815Y-122028815D01*
X260849463Y-122125506D01*
X260790498Y-122235820D01*
X260754188Y-122355518D01*
X260745375Y-122445000D01*
X259614656Y-122445000D01*
X259573475Y-122383368D01*
X259441620Y-122251513D01*
X259514180Y-122229502D01*
X259624494Y-122170537D01*
X259721185Y-122091185D01*
X259800537Y-121994494D01*
X259859502Y-121884180D01*
X259895812Y-121764482D01*
X259908072Y-121640000D01*
X259908072Y-119940000D01*
X259895812Y-119815518D01*
X259859502Y-119695820D01*
X259800537Y-119585506D01*
X259721185Y-119488815D01*
X259624494Y-119409463D01*
X259514180Y-119350498D01*
X259394482Y-119314188D01*
X259270000Y-119301928D01*
X257570000Y-119301928D01*
X257445518Y-119314188D01*
X257325820Y-119350498D01*
X257215506Y-119409463D01*
X257118815Y-119488815D01*
X257039463Y-119585506D01*
X256980498Y-119695820D01*
X256944188Y-119815518D01*
X256931928Y-119940000D01*
X253913316Y-119940000D01*
X253820179Y-119783644D01*
X253625270Y-119567411D01*
X253391921Y-119393358D01*
X253129100Y-119268174D01*
X252981891Y-119223523D01*
X252752001Y-119344844D01*
X252498001Y-119344844D01*
X252268111Y-119223523D01*
X252120902Y-119268174D01*
X251858081Y-119393358D01*
X251624732Y-119567411D01*
X251429823Y-119783644D01*
X251360196Y-119900533D01*
X251238476Y-119718367D01*
X251031633Y-119511524D01*
X250870001Y-119403525D01*
X250870001Y-117276473D01*
X251031633Y-117168474D01*
X251238476Y-116961631D01*
X251360196Y-116779465D01*
X251429823Y-116896354D01*
X251624732Y-117112587D01*
X251858081Y-117286640D01*
X252120902Y-117411824D01*
X252268111Y-117456475D01*
X252498001Y-117335154D01*
X252498001Y-116141999D01*
X252752001Y-116141999D01*
X252752001Y-117335154D01*
X252981891Y-117456475D01*
X253129100Y-117411824D01*
X253391921Y-117286640D01*
X253625270Y-117112587D01*
X253820179Y-116896354D01*
X253969158Y-116646251D01*
X254066482Y-116371890D01*
X253945815Y-116141999D01*
X252752001Y-116141999D01*
X252498001Y-116141999D01*
X252478001Y-116141999D01*
X252478001Y-115887999D01*
X252498001Y-115887999D01*
X252498001Y-114694844D01*
X252752001Y-114694844D01*
X252752001Y-115887999D01*
X253945815Y-115887999D01*
X254066482Y-115658108D01*
X253969158Y-115383747D01*
X253820179Y-115133644D01*
X253625270Y-114917411D01*
X253391921Y-114743358D01*
X253129100Y-114618174D01*
X252981891Y-114573523D01*
X252752001Y-114694844D01*
X252498001Y-114694844D01*
X252268111Y-114573523D01*
X252120902Y-114618174D01*
X251858081Y-114743358D01*
X251624732Y-114917411D01*
X251429823Y-115133644D01*
X251360196Y-115250533D01*
X251238476Y-115068367D01*
X251031633Y-114861524D01*
X250870001Y-114753525D01*
X250870001Y-113173360D01*
X252717817Y-111325545D01*
X252747764Y-111300968D01*
X252774204Y-111268752D01*
X252796450Y-111241645D01*
X252845862Y-111181437D01*
X252918754Y-111045064D01*
X252938070Y-110981387D01*
X252963641Y-110897092D01*
X252969832Y-110834236D01*
X252975000Y-110781765D01*
X252975000Y-110781758D01*
X252978018Y-110751110D01*
X253198665Y-110795000D01*
X253481335Y-110795000D01*
X253758574Y-110739853D01*
X254019727Y-110631680D01*
X254254759Y-110474637D01*
X254454637Y-110274759D01*
X254611680Y-110039727D01*
X254719853Y-109778574D01*
X254775000Y-109501335D01*
X254775000Y-109218665D01*
X254744554Y-109065603D01*
X257475157Y-106335000D01*
X259421928Y-106335000D01*
X259421928Y-106450000D01*
X259434188Y-106574482D01*
X259470498Y-106694180D01*
X259529463Y-106804494D01*
X259608815Y-106901185D01*
X259705506Y-106980537D01*
X259815820Y-107039502D01*
X259935518Y-107075812D01*
X260060000Y-107088072D01*
X261860000Y-107088072D01*
X261984482Y-107075812D01*
X262104180Y-107039502D01*
X262214494Y-106980537D01*
X262311185Y-106901185D01*
X262390537Y-106804494D01*
X262449502Y-106694180D01*
X262452813Y-106683265D01*
X262499578Y-106730030D01*
X262615526Y-106614082D01*
X262699208Y-106868261D01*
X262971775Y-106999158D01*
X263264642Y-107074365D01*
X263566553Y-107090991D01*
X263865907Y-107048397D01*
X264151199Y-106948222D01*
X264300792Y-106868261D01*
X264315001Y-106825103D01*
X264315001Y-110624897D01*
X264300792Y-110581739D01*
X264028225Y-110450842D01*
X263735358Y-110375635D01*
X263433447Y-110359009D01*
X263134093Y-110401603D01*
X262848801Y-110501778D01*
X262699208Y-110581739D01*
X262615526Y-110835918D01*
X262499578Y-110719970D01*
X262452813Y-110766735D01*
X262449502Y-110755820D01*
X262390537Y-110645506D01*
X262311185Y-110548815D01*
X262214494Y-110469463D01*
X262104180Y-110410498D01*
X261984482Y-110374188D01*
X261860000Y-110361928D01*
X260060000Y-110361928D01*
X259935518Y-110374188D01*
X259815820Y-110410498D01*
X259705506Y-110469463D01*
X259608815Y-110548815D01*
X259536766Y-110636608D01*
X258554554Y-109654396D01*
X258585000Y-109501335D01*
X258585000Y-109218665D01*
X258529853Y-108941426D01*
X258421680Y-108680273D01*
X258264637Y-108445241D01*
X258064759Y-108245363D01*
X257829727Y-108088320D01*
X257568574Y-107980147D01*
X257291335Y-107925000D01*
X257008665Y-107925000D01*
X256731426Y-107980147D01*
X256470273Y-108088320D01*
X256235241Y-108245363D01*
X256035363Y-108445241D01*
X255878320Y-108680273D01*
X255770147Y-108941426D01*
X255715000Y-109218665D01*
X255715000Y-109501335D01*
X255770147Y-109778574D01*
X255878320Y-110039727D01*
X256035363Y-110274759D01*
X256235241Y-110474637D01*
X256470273Y-110631680D01*
X256731426Y-110739853D01*
X257008665Y-110795000D01*
X257291335Y-110795000D01*
X257444396Y-110764554D01*
X259107658Y-112427816D01*
X259132236Y-112457764D01*
X259162184Y-112482342D01*
X259162187Y-112482345D01*
X259178486Y-112495721D01*
X259251767Y-112555862D01*
X259388140Y-112628754D01*
X259421928Y-112639003D01*
X259421928Y-112800000D01*
X259434188Y-112924482D01*
X259470498Y-113044180D01*
X259529463Y-113154494D01*
X259608815Y-113251185D01*
X259705506Y-113330537D01*
X259815820Y-113389502D01*
X259935518Y-113425812D01*
X260060000Y-113438072D01*
X261860000Y-113438072D01*
X261984482Y-113425812D01*
X262104180Y-113389502D01*
X262214494Y-113330537D01*
X262311185Y-113251185D01*
X262390537Y-113154494D01*
X262449502Y-113044180D01*
X262452813Y-113033265D01*
X262499578Y-113080030D01*
X262615526Y-112964082D01*
X262699208Y-113218261D01*
X262971775Y-113349158D01*
X263264642Y-113424365D01*
X263566553Y-113440991D01*
X263865907Y-113398397D01*
X264151199Y-113298222D01*
X264300792Y-113218261D01*
X264315001Y-113175103D01*
X264315000Y-146966495D01*
X264267688Y-147449016D01*
X264137287Y-147880927D01*
X263925480Y-148279280D01*
X263640325Y-148628914D01*
X263292697Y-148916497D01*
X262895825Y-149131085D01*
X262464834Y-149264500D01*
X261984346Y-149315000D01*
X203033504Y-149315000D01*
X202550984Y-149267688D01*
X202119073Y-149137287D01*
X201720720Y-148925480D01*
X201371086Y-148640325D01*
X201083503Y-148292697D01*
X200868915Y-147895825D01*
X200735500Y-147464834D01*
X200685000Y-146984346D01*
X200685000Y-146304495D01*
X201515000Y-146304495D01*
X201515000Y-146695505D01*
X201591282Y-147079003D01*
X201740915Y-147440250D01*
X201958149Y-147765364D01*
X202234636Y-148041851D01*
X202559750Y-148259085D01*
X202920997Y-148408718D01*
X203304495Y-148485000D01*
X203695505Y-148485000D01*
X204079003Y-148408718D01*
X204440250Y-148259085D01*
X204765364Y-148041851D01*
X205041851Y-147765364D01*
X205259085Y-147440250D01*
X205408718Y-147079003D01*
X205485000Y-146695505D01*
X205485000Y-146546890D01*
X207448524Y-146546890D01*
X207493175Y-146694099D01*
X207618359Y-146956920D01*
X207792412Y-147190269D01*
X208008645Y-147385178D01*
X208258748Y-147534157D01*
X208533109Y-147631481D01*
X208763000Y-147510814D01*
X208763000Y-146317000D01*
X209017000Y-146317000D01*
X209017000Y-147510814D01*
X209246891Y-147631481D01*
X209521252Y-147534157D01*
X209771355Y-147385178D01*
X209987588Y-147190269D01*
X210161641Y-146956920D01*
X210214049Y-146846890D01*
X211168524Y-146846890D01*
X211213175Y-146994099D01*
X211338359Y-147256920D01*
X211512412Y-147490269D01*
X211728645Y-147685178D01*
X211978748Y-147834157D01*
X212253109Y-147931481D01*
X212483000Y-147810814D01*
X212483000Y-146617000D01*
X212737000Y-146617000D01*
X212737000Y-147810814D01*
X212966891Y-147931481D01*
X213241252Y-147834157D01*
X213491355Y-147685178D01*
X213707588Y-147490269D01*
X213881641Y-147256920D01*
X214006825Y-146994099D01*
X214051476Y-146846890D01*
X213930155Y-146617000D01*
X212737000Y-146617000D01*
X212483000Y-146617000D01*
X211289845Y-146617000D01*
X211168524Y-146846890D01*
X210214049Y-146846890D01*
X210286825Y-146694099D01*
X210331476Y-146546890D01*
X210327333Y-146539039D01*
X215118096Y-146539039D01*
X215158754Y-146673087D01*
X215278963Y-146927420D01*
X215446481Y-147153414D01*
X215654869Y-147342385D01*
X215896119Y-147487070D01*
X216160960Y-147581909D01*
X216383000Y-147460624D01*
X216383000Y-146317000D01*
X216637000Y-146317000D01*
X216637000Y-147460624D01*
X216859040Y-147581909D01*
X217123881Y-147487070D01*
X217365131Y-147342385D01*
X217573519Y-147153414D01*
X217741037Y-146927420D01*
X217861246Y-146673087D01*
X217901904Y-146539039D01*
X217779915Y-146317000D01*
X216637000Y-146317000D01*
X216383000Y-146317000D01*
X215240085Y-146317000D01*
X215118096Y-146539039D01*
X210327333Y-146539039D01*
X210210155Y-146317000D01*
X209017000Y-146317000D01*
X208763000Y-146317000D01*
X207569845Y-146317000D01*
X207448524Y-146546890D01*
X205485000Y-146546890D01*
X205485000Y-146304495D01*
X205408718Y-145920997D01*
X205259085Y-145559750D01*
X205041851Y-145234636D01*
X204765364Y-144958149D01*
X204440250Y-144740915D01*
X204079003Y-144591282D01*
X203695505Y-144515000D01*
X203304495Y-144515000D01*
X202920997Y-144591282D01*
X202559750Y-144740915D01*
X202234636Y-144958149D01*
X201958149Y-145234636D01*
X201740915Y-145559750D01*
X201591282Y-145920997D01*
X201515000Y-146304495D01*
X200685000Y-146304495D01*
X200685000Y-137720000D01*
X207401928Y-137720000D01*
X207401928Y-139420000D01*
X207414188Y-139544482D01*
X207450498Y-139664180D01*
X207509463Y-139774494D01*
X207588815Y-139871185D01*
X207685506Y-139950537D01*
X207795820Y-140009502D01*
X207868380Y-140031513D01*
X207736525Y-140163368D01*
X207574010Y-140406589D01*
X207462068Y-140676842D01*
X207405000Y-140963740D01*
X207405000Y-141256260D01*
X207462068Y-141543158D01*
X207574010Y-141813411D01*
X207736525Y-142056632D01*
X207943368Y-142263475D01*
X208117760Y-142380000D01*
X207943368Y-142496525D01*
X207736525Y-142703368D01*
X207574010Y-142946589D01*
X207462068Y-143216842D01*
X207405000Y-143503740D01*
X207405000Y-143796260D01*
X207462068Y-144083158D01*
X207574010Y-144353411D01*
X207736525Y-144596632D01*
X207943368Y-144803475D01*
X208125534Y-144925195D01*
X208008645Y-144994822D01*
X207792412Y-145189731D01*
X207618359Y-145423080D01*
X207493175Y-145685901D01*
X207448524Y-145833110D01*
X207569845Y-146063000D01*
X208763000Y-146063000D01*
X208763000Y-146043000D01*
X209017000Y-146043000D01*
X209017000Y-146063000D01*
X210210155Y-146063000D01*
X210331476Y-145833110D01*
X210286825Y-145685901D01*
X210161641Y-145423080D01*
X209987588Y-145189731D01*
X209771355Y-144994822D01*
X209654466Y-144925195D01*
X209836632Y-144803475D01*
X210043475Y-144596632D01*
X210151474Y-144435000D01*
X211203542Y-144435000D01*
X211294010Y-144653411D01*
X211456525Y-144896632D01*
X211663368Y-145103475D01*
X211845534Y-145225195D01*
X211728645Y-145294822D01*
X211512412Y-145489731D01*
X211338359Y-145723080D01*
X211213175Y-145985901D01*
X211168524Y-146133110D01*
X211289845Y-146363000D01*
X212483000Y-146363000D01*
X212483000Y-146343000D01*
X212737000Y-146343000D01*
X212737000Y-146363000D01*
X213930155Y-146363000D01*
X214051476Y-146133110D01*
X214006825Y-145985901D01*
X213937789Y-145840961D01*
X215118096Y-145840961D01*
X215240085Y-146063000D01*
X216383000Y-146063000D01*
X216383000Y-144919376D01*
X216637000Y-144919376D01*
X216637000Y-146063000D01*
X217779915Y-146063000D01*
X217901904Y-145840961D01*
X217861246Y-145706913D01*
X217741037Y-145452580D01*
X217573519Y-145226586D01*
X217365131Y-145037615D01*
X217123881Y-144892930D01*
X216859040Y-144798091D01*
X216637000Y-144919376D01*
X216383000Y-144919376D01*
X216160960Y-144798091D01*
X215896119Y-144892930D01*
X215654869Y-145037615D01*
X215446481Y-145226586D01*
X215278963Y-145452580D01*
X215158754Y-145706913D01*
X215118096Y-145840961D01*
X213937789Y-145840961D01*
X213881641Y-145723080D01*
X213707588Y-145489731D01*
X213491355Y-145294822D01*
X213374466Y-145225195D01*
X213556632Y-145103475D01*
X213763475Y-144896632D01*
X213871474Y-144735000D01*
X214901447Y-144735000D01*
X214940000Y-144738797D01*
X214978553Y-144735000D01*
X214978561Y-144735000D01*
X215093887Y-144723641D01*
X215241860Y-144678754D01*
X215378233Y-144605862D01*
X215497764Y-144507764D01*
X215522347Y-144477810D01*
X216215604Y-143784554D01*
X216368665Y-143815000D01*
X216651335Y-143815000D01*
X216928574Y-143759853D01*
X217189727Y-143651680D01*
X217424759Y-143494637D01*
X217624637Y-143294759D01*
X217711339Y-143165000D01*
X221551447Y-143165000D01*
X221590000Y-143168797D01*
X221628553Y-143165000D01*
X221628561Y-143165000D01*
X221743887Y-143153641D01*
X221891860Y-143108754D01*
X222028233Y-143035862D01*
X222147764Y-142937764D01*
X222172347Y-142907810D01*
X222695000Y-142385157D01*
X222695000Y-142521335D01*
X222750147Y-142798574D01*
X222858320Y-143059727D01*
X223015363Y-143294759D01*
X223215241Y-143494637D01*
X223345000Y-143581339D01*
X223345001Y-144988661D01*
X223215241Y-145075363D01*
X223015363Y-145275241D01*
X222858320Y-145510273D01*
X222750147Y-145771426D01*
X222695000Y-146048665D01*
X222695000Y-146331335D01*
X222750147Y-146608574D01*
X222858320Y-146869727D01*
X223015363Y-147104759D01*
X223215241Y-147304637D01*
X223450273Y-147461680D01*
X223711426Y-147569853D01*
X223988665Y-147625000D01*
X224271335Y-147625000D01*
X224548574Y-147569853D01*
X224809727Y-147461680D01*
X225044759Y-147304637D01*
X225244637Y-147104759D01*
X225401680Y-146869727D01*
X225509853Y-146608574D01*
X225565000Y-146331335D01*
X225565000Y-146048665D01*
X225509853Y-145771426D01*
X225401680Y-145510273D01*
X225244637Y-145275241D01*
X225044759Y-145075363D01*
X224915000Y-144988661D01*
X224915000Y-143581339D01*
X225044759Y-143494637D01*
X225244637Y-143294759D01*
X225401680Y-143059727D01*
X225509853Y-142798574D01*
X225565000Y-142521335D01*
X225565000Y-142238665D01*
X232855000Y-142238665D01*
X232855000Y-142521335D01*
X232910147Y-142798574D01*
X233018320Y-143059727D01*
X233175363Y-143294759D01*
X233375241Y-143494637D01*
X233610273Y-143651680D01*
X233871426Y-143759853D01*
X234148665Y-143815000D01*
X234431335Y-143815000D01*
X234708574Y-143759853D01*
X234969727Y-143651680D01*
X235204759Y-143494637D01*
X235404637Y-143294759D01*
X235561680Y-143059727D01*
X235669853Y-142798574D01*
X235683684Y-142729039D01*
X240518096Y-142729039D01*
X240558754Y-142863087D01*
X240678963Y-143117420D01*
X240846481Y-143343414D01*
X241054869Y-143532385D01*
X241296119Y-143677070D01*
X241560960Y-143771909D01*
X241783000Y-143650624D01*
X241783000Y-142507000D01*
X240640085Y-142507000D01*
X240518096Y-142729039D01*
X235683684Y-142729039D01*
X235725000Y-142521335D01*
X235725000Y-142238665D01*
X235683685Y-142030961D01*
X240518096Y-142030961D01*
X240640085Y-142253000D01*
X241783000Y-142253000D01*
X241783000Y-141109376D01*
X242037000Y-141109376D01*
X242037000Y-142253000D01*
X242057000Y-142253000D01*
X242057000Y-142507000D01*
X242037000Y-142507000D01*
X242037000Y-143650624D01*
X242259040Y-143771909D01*
X242523881Y-143677070D01*
X242765131Y-143532385D01*
X242973519Y-143343414D01*
X243141037Y-143117420D01*
X243261246Y-142863087D01*
X243301904Y-142729039D01*
X243179916Y-142507002D01*
X243315000Y-142507002D01*
X243315000Y-146033646D01*
X243318366Y-146067821D01*
X243318366Y-146080806D01*
X243319366Y-146090318D01*
X243341121Y-146284268D01*
X243354025Y-146344976D01*
X243366089Y-146405901D01*
X243368917Y-146415038D01*
X243427930Y-146601068D01*
X243452377Y-146658105D01*
X243476046Y-146715531D01*
X243480595Y-146723944D01*
X243574617Y-146894969D01*
X243609692Y-146946194D01*
X243644050Y-146997906D01*
X243650146Y-147005276D01*
X243775596Y-147154782D01*
X243819974Y-147198240D01*
X243863703Y-147242275D01*
X243871109Y-147248315D01*
X243871113Y-147248319D01*
X243871115Y-147248320D01*
X244023214Y-147370611D01*
X244075139Y-147404589D01*
X244126632Y-147439322D01*
X244135077Y-147443812D01*
X244308033Y-147534232D01*
X244365590Y-147557487D01*
X244422835Y-147581550D01*
X244431991Y-147584315D01*
X244619217Y-147639418D01*
X244680218Y-147651054D01*
X244741015Y-147663534D01*
X244750533Y-147664468D01*
X244944895Y-147682157D01*
X245006986Y-147681723D01*
X245069066Y-147682156D01*
X245078585Y-147681223D01*
X245272682Y-147660822D01*
X245333496Y-147648339D01*
X245394481Y-147636705D01*
X245403637Y-147633941D01*
X245590075Y-147576229D01*
X245647279Y-147552182D01*
X245704873Y-147528913D01*
X245713317Y-147524423D01*
X245884994Y-147431598D01*
X245936468Y-147396878D01*
X245988418Y-147362883D01*
X245995829Y-147356839D01*
X246146207Y-147232435D01*
X246189973Y-147188362D01*
X246234311Y-147144943D01*
X246240408Y-147137574D01*
X246363758Y-146986332D01*
X246398126Y-146934603D01*
X246433191Y-146883392D01*
X246437739Y-146874981D01*
X246437740Y-146874980D01*
X246437742Y-146874976D01*
X246529366Y-146702657D01*
X246553022Y-146645261D01*
X246577482Y-146588193D01*
X246580310Y-146579056D01*
X246636719Y-146392220D01*
X246648780Y-146331310D01*
X246654479Y-146304495D01*
X259515000Y-146304495D01*
X259515000Y-146695505D01*
X259591282Y-147079003D01*
X259740915Y-147440250D01*
X259958149Y-147765364D01*
X260234636Y-148041851D01*
X260559750Y-148259085D01*
X260920997Y-148408718D01*
X261304495Y-148485000D01*
X261695505Y-148485000D01*
X262079003Y-148408718D01*
X262440250Y-148259085D01*
X262765364Y-148041851D01*
X263041851Y-147765364D01*
X263259085Y-147440250D01*
X263408718Y-147079003D01*
X263485000Y-146695505D01*
X263485000Y-146304495D01*
X263408718Y-145920997D01*
X263259085Y-145559750D01*
X263041851Y-145234636D01*
X262765364Y-144958149D01*
X262440250Y-144740915D01*
X262079003Y-144591282D01*
X261695505Y-144515000D01*
X261304495Y-144515000D01*
X260920997Y-144591282D01*
X260559750Y-144740915D01*
X260234636Y-144958149D01*
X259958149Y-145234636D01*
X259740915Y-145559750D01*
X259591282Y-145920997D01*
X259515000Y-146304495D01*
X246654479Y-146304495D01*
X246661686Y-146270591D01*
X246662686Y-146261079D01*
X246681731Y-146066845D01*
X246681731Y-146066837D01*
X246685000Y-146033647D01*
X246685000Y-130966353D01*
X246681633Y-130932169D01*
X246681633Y-130919193D01*
X246680634Y-130909681D01*
X246658879Y-130715732D01*
X246645975Y-130655024D01*
X246633911Y-130594099D01*
X246631083Y-130584962D01*
X246572070Y-130398932D01*
X246547618Y-130341882D01*
X246523954Y-130284470D01*
X246519405Y-130276056D01*
X246425383Y-130105031D01*
X246390310Y-130053809D01*
X246355951Y-130002094D01*
X246349854Y-129994724D01*
X246224404Y-129845218D01*
X246180046Y-129801779D01*
X246136297Y-129757724D01*
X246128885Y-129751679D01*
X245976785Y-129629389D01*
X245924845Y-129595401D01*
X245873367Y-129560678D01*
X245864923Y-129556187D01*
X245691967Y-129465768D01*
X245634410Y-129442513D01*
X245577165Y-129418450D01*
X245568009Y-129415685D01*
X245380783Y-129360582D01*
X245319775Y-129348945D01*
X245258985Y-129336466D01*
X245249466Y-129335532D01*
X245055105Y-129317843D01*
X244992981Y-129318277D01*
X244930933Y-129317844D01*
X244921426Y-129318776D01*
X244921419Y-129318776D01*
X244921413Y-129318777D01*
X244727318Y-129339178D01*
X244666504Y-129351661D01*
X244605519Y-129363295D01*
X244596363Y-129366059D01*
X244409925Y-129423771D01*
X244352692Y-129447830D01*
X244295127Y-129471087D01*
X244286682Y-129475577D01*
X244115006Y-129568402D01*
X244063532Y-129603122D01*
X244011582Y-129637117D01*
X244004170Y-129643162D01*
X243853793Y-129767565D01*
X243810027Y-129811638D01*
X243765689Y-129855057D01*
X243759592Y-129862426D01*
X243636242Y-130013668D01*
X243601881Y-130065386D01*
X243566809Y-130116607D01*
X243562260Y-130125020D01*
X243470635Y-130297343D01*
X243446978Y-130354739D01*
X243422519Y-130411807D01*
X243419690Y-130420943D01*
X243363281Y-130607780D01*
X243351219Y-130668698D01*
X243338314Y-130729410D01*
X243337314Y-130738922D01*
X243318269Y-130933155D01*
X243318269Y-130933173D01*
X243315001Y-130966353D01*
X243315000Y-142252998D01*
X243179916Y-142252998D01*
X243301904Y-142030961D01*
X243261246Y-141896913D01*
X243141037Y-141642580D01*
X242973519Y-141416586D01*
X242765131Y-141227615D01*
X242523881Y-141082930D01*
X242259040Y-140988091D01*
X242037000Y-141109376D01*
X241783000Y-141109376D01*
X241560960Y-140988091D01*
X241296119Y-141082930D01*
X241054869Y-141227615D01*
X240846481Y-141416586D01*
X240678963Y-141642580D01*
X240558754Y-141896913D01*
X240518096Y-142030961D01*
X235683685Y-142030961D01*
X235669853Y-141961426D01*
X235561680Y-141700273D01*
X235404637Y-141465241D01*
X235204759Y-141265363D01*
X235165000Y-141238797D01*
X235165000Y-139771339D01*
X235294759Y-139684637D01*
X235494637Y-139484759D01*
X235651680Y-139249727D01*
X235759853Y-138988574D01*
X235815000Y-138711335D01*
X235815000Y-138428665D01*
X235759853Y-138151426D01*
X235651680Y-137890273D01*
X235494637Y-137655241D01*
X235294759Y-137455363D01*
X235059727Y-137298320D01*
X234798574Y-137190147D01*
X234521335Y-137135000D01*
X234238665Y-137135000D01*
X233961426Y-137190147D01*
X233700273Y-137298320D01*
X233465241Y-137455363D01*
X233265363Y-137655241D01*
X233108320Y-137890273D01*
X233000147Y-138151426D01*
X232945000Y-138428665D01*
X232945000Y-138711335D01*
X233000147Y-138988574D01*
X233108320Y-139249727D01*
X233265363Y-139484759D01*
X233465241Y-139684637D01*
X233595000Y-139771339D01*
X233595001Y-141118525D01*
X233375241Y-141265363D01*
X233175363Y-141465241D01*
X233018320Y-141700273D01*
X232910147Y-141961426D01*
X232855000Y-142238665D01*
X225565000Y-142238665D01*
X225509853Y-141961426D01*
X225401680Y-141700273D01*
X225244637Y-141465241D01*
X225044759Y-141265363D01*
X224809727Y-141108320D01*
X224548574Y-141000147D01*
X224271335Y-140945000D01*
X224135158Y-140945000D01*
X224657816Y-140422342D01*
X224687764Y-140397764D01*
X224715568Y-140363886D01*
X224736450Y-140338441D01*
X224785862Y-140278233D01*
X224858754Y-140141860D01*
X224903641Y-139993887D01*
X224915000Y-139878561D01*
X224915000Y-139878554D01*
X224918797Y-139840001D01*
X224915000Y-139801448D01*
X224915000Y-139771339D01*
X225044759Y-139684637D01*
X225244637Y-139484759D01*
X225331339Y-139355000D01*
X225558661Y-139355000D01*
X225645363Y-139484759D01*
X225845241Y-139684637D01*
X226080273Y-139841680D01*
X226341426Y-139949853D01*
X226618665Y-140005000D01*
X226901335Y-140005000D01*
X227178574Y-139949853D01*
X227439727Y-139841680D01*
X227674759Y-139684637D01*
X227874637Y-139484759D01*
X228031680Y-139249727D01*
X228139853Y-138988574D01*
X228195000Y-138711335D01*
X228195000Y-138428665D01*
X228139853Y-138151426D01*
X228031680Y-137890273D01*
X227874637Y-137655241D01*
X227674759Y-137455363D01*
X227545000Y-137368661D01*
X227545000Y-135901203D01*
X227584759Y-135874637D01*
X227784637Y-135674759D01*
X227941680Y-135439727D01*
X228049853Y-135178574D01*
X228105000Y-134901335D01*
X228105000Y-134618665D01*
X228049853Y-134341426D01*
X227941680Y-134080273D01*
X227784637Y-133845241D01*
X227584759Y-133645363D01*
X227349727Y-133488320D01*
X227088574Y-133380147D01*
X226811335Y-133325000D01*
X226528665Y-133325000D01*
X226251426Y-133380147D01*
X225990273Y-133488320D01*
X225755241Y-133645363D01*
X225555363Y-133845241D01*
X225398320Y-134080273D01*
X225290147Y-134341426D01*
X225235000Y-134618665D01*
X225235000Y-134901335D01*
X225290147Y-135178574D01*
X225398320Y-135439727D01*
X225555363Y-135674759D01*
X225755241Y-135874637D01*
X225975001Y-136021475D01*
X225975000Y-137368661D01*
X225845241Y-137455363D01*
X225645363Y-137655241D01*
X225558661Y-137785000D01*
X225331339Y-137785000D01*
X225244637Y-137655241D01*
X225044759Y-137455363D01*
X224809727Y-137298320D01*
X224548574Y-137190147D01*
X224271335Y-137135000D01*
X223988665Y-137135000D01*
X223711426Y-137190147D01*
X223450273Y-137298320D01*
X223215241Y-137455363D01*
X223015363Y-137655241D01*
X222858320Y-137890273D01*
X222750147Y-138151426D01*
X222695000Y-138428665D01*
X222695000Y-138711335D01*
X222750147Y-138988574D01*
X222858320Y-139249727D01*
X223015363Y-139484759D01*
X223195223Y-139664619D01*
X221264843Y-141595000D01*
X217711339Y-141595000D01*
X217624637Y-141465241D01*
X217424759Y-141265363D01*
X217189727Y-141108320D01*
X216928574Y-141000147D01*
X216651335Y-140945000D01*
X216368665Y-140945000D01*
X216091426Y-141000147D01*
X215830273Y-141108320D01*
X215595241Y-141265363D01*
X215395363Y-141465241D01*
X215238320Y-141700273D01*
X215130147Y-141961426D01*
X215075000Y-142238665D01*
X215075000Y-142521335D01*
X215105446Y-142674396D01*
X214614843Y-143165000D01*
X213871474Y-143165000D01*
X213763475Y-143003368D01*
X213556632Y-142796525D01*
X213382240Y-142680000D01*
X213556632Y-142563475D01*
X213763475Y-142356632D01*
X213925990Y-142113411D01*
X214037932Y-141843158D01*
X214095000Y-141556260D01*
X214095000Y-141263740D01*
X214057075Y-141073082D01*
X214337812Y-140792345D01*
X214367765Y-140767763D01*
X214465863Y-140648232D01*
X214538755Y-140511859D01*
X214553465Y-140463368D01*
X214583643Y-140363886D01*
X214594806Y-140250537D01*
X214595001Y-140248560D01*
X214595001Y-140248555D01*
X214598798Y-140209999D01*
X214595001Y-140171443D01*
X214595001Y-139563156D01*
X215141698Y-139016459D01*
X215238320Y-139249727D01*
X215395363Y-139484759D01*
X215595241Y-139684637D01*
X215830273Y-139841680D01*
X216091426Y-139949853D01*
X216368665Y-140005000D01*
X216651335Y-140005000D01*
X216928574Y-139949853D01*
X217189727Y-139841680D01*
X217424759Y-139684637D01*
X217624637Y-139484759D01*
X217781680Y-139249727D01*
X217889853Y-138988574D01*
X217945000Y-138711335D01*
X217945000Y-138428665D01*
X217889853Y-138151426D01*
X217781680Y-137890273D01*
X217624637Y-137655241D01*
X217444777Y-137475381D01*
X218755604Y-136164554D01*
X218908665Y-136195000D01*
X219191335Y-136195000D01*
X219468574Y-136139853D01*
X219729727Y-136031680D01*
X219964759Y-135874637D01*
X220164637Y-135674759D01*
X220321680Y-135439727D01*
X220429853Y-135178574D01*
X220485000Y-134901335D01*
X220485000Y-134618665D01*
X220429853Y-134341426D01*
X220321680Y-134080273D01*
X220164637Y-133845241D01*
X219964759Y-133645363D01*
X219835000Y-133558661D01*
X219835000Y-128766890D01*
X256978524Y-128766890D01*
X257023175Y-128914099D01*
X257148359Y-129176920D01*
X257322412Y-129410269D01*
X257538645Y-129605178D01*
X257788748Y-129754157D01*
X258063109Y-129851481D01*
X258293000Y-129730814D01*
X258293000Y-128537000D01*
X258547000Y-128537000D01*
X258547000Y-129730814D01*
X258776891Y-129851481D01*
X259051252Y-129754157D01*
X259301355Y-129605178D01*
X259517588Y-129410269D01*
X259691641Y-129176920D01*
X259816825Y-128914099D01*
X259861476Y-128766890D01*
X259740155Y-128537000D01*
X258547000Y-128537000D01*
X258293000Y-128537000D01*
X257099845Y-128537000D01*
X256978524Y-128766890D01*
X219835000Y-128766890D01*
X219835000Y-124925157D01*
X222311604Y-122448554D01*
X222464665Y-122479000D01*
X222747335Y-122479000D01*
X223024574Y-122423853D01*
X223285727Y-122315680D01*
X223520759Y-122158637D01*
X223720637Y-121958759D01*
X223877680Y-121723727D01*
X223985853Y-121462574D01*
X224041000Y-121185335D01*
X224041000Y-120902665D01*
X223985853Y-120625426D01*
X223877680Y-120364273D01*
X223720637Y-120129241D01*
X223520759Y-119929363D01*
X223285727Y-119772320D01*
X223024574Y-119664147D01*
X222747335Y-119609000D01*
X222464665Y-119609000D01*
X222187426Y-119664147D01*
X221926273Y-119772320D01*
X221691241Y-119929363D01*
X221642248Y-119978356D01*
X221591680Y-119856273D01*
X221434637Y-119621241D01*
X221234759Y-119421363D01*
X220999727Y-119264320D01*
X220738574Y-119156147D01*
X220461335Y-119101000D01*
X220178665Y-119101000D01*
X219901426Y-119156147D01*
X219640273Y-119264320D01*
X219405241Y-119421363D01*
X219205363Y-119621241D01*
X219048320Y-119856273D01*
X218940147Y-120117426D01*
X218885000Y-120394665D01*
X218885000Y-120677335D01*
X218915446Y-120830396D01*
X215474185Y-124271658D01*
X215444237Y-124296236D01*
X215419659Y-124326184D01*
X215419655Y-124326188D01*
X215407896Y-124340517D01*
X215346139Y-124415767D01*
X215319824Y-124464999D01*
X215273246Y-124552141D01*
X215228359Y-124700114D01*
X215213203Y-124854000D01*
X215217001Y-124892563D01*
X215217000Y-132257925D01*
X215157727Y-132218320D01*
X214896574Y-132110147D01*
X214619335Y-132055000D01*
X214336665Y-132055000D01*
X214059426Y-132110147D01*
X213798273Y-132218320D01*
X213563241Y-132375363D01*
X213363363Y-132575241D01*
X213206320Y-132810273D01*
X213098147Y-133071426D01*
X213043000Y-133348665D01*
X213043000Y-133631335D01*
X213098147Y-133908574D01*
X213206320Y-134169727D01*
X213363363Y-134404759D01*
X213563241Y-134604637D01*
X213593000Y-134624522D01*
X213593001Y-136635420D01*
X212846494Y-137381928D01*
X211760000Y-137381928D01*
X211635518Y-137394188D01*
X211515820Y-137430498D01*
X211405506Y-137489463D01*
X211308815Y-137568815D01*
X211229463Y-137665506D01*
X211170498Y-137775820D01*
X211134188Y-137895518D01*
X211125375Y-137985000D01*
X210378072Y-137985000D01*
X210378072Y-137720000D01*
X210365812Y-137595518D01*
X210329502Y-137475820D01*
X210270537Y-137365506D01*
X210191185Y-137268815D01*
X210094494Y-137189463D01*
X209984180Y-137130498D01*
X209864482Y-137094188D01*
X209740000Y-137081928D01*
X208040000Y-137081928D01*
X207915518Y-137094188D01*
X207795820Y-137130498D01*
X207685506Y-137189463D01*
X207588815Y-137268815D01*
X207509463Y-137365506D01*
X207450498Y-137475820D01*
X207414188Y-137595518D01*
X207401928Y-137720000D01*
X200685000Y-137720000D01*
X200685000Y-131185000D01*
X204533647Y-131185000D01*
X204562601Y-131182148D01*
X204565573Y-131182169D01*
X204575092Y-131181236D01*
X204623218Y-131176178D01*
X204634283Y-131175088D01*
X204634652Y-131174976D01*
X204672140Y-131171036D01*
X204732990Y-131158545D01*
X204793942Y-131146918D01*
X204803096Y-131144155D01*
X204803102Y-131144153D01*
X204896317Y-131115298D01*
X204953533Y-131091246D01*
X205011119Y-131067980D01*
X205019564Y-131063490D01*
X205105401Y-131017077D01*
X205156867Y-130982362D01*
X205208821Y-130948364D01*
X205216232Y-130942320D01*
X205291421Y-130880118D01*
X205335162Y-130836070D01*
X205379522Y-130792631D01*
X205385618Y-130785261D01*
X205385623Y-130785256D01*
X205385627Y-130785250D01*
X205447294Y-130709640D01*
X205481632Y-130657959D01*
X205516733Y-130606694D01*
X205521282Y-130598281D01*
X205567094Y-130512120D01*
X205590758Y-130454704D01*
X205615208Y-130397661D01*
X205618036Y-130388525D01*
X205646241Y-130295107D01*
X205658303Y-130234187D01*
X205671209Y-130173470D01*
X205672209Y-130163958D01*
X205681731Y-130066841D01*
X205681731Y-130066837D01*
X205685000Y-130033647D01*
X205685000Y-123441360D01*
X205902458Y-123484615D01*
X206581001Y-124163159D01*
X206581001Y-125093928D01*
X206466000Y-125093928D01*
X206341518Y-125106188D01*
X206221820Y-125142498D01*
X206111506Y-125201463D01*
X206014815Y-125280815D01*
X205935463Y-125377506D01*
X205876498Y-125487820D01*
X205840188Y-125607518D01*
X205827928Y-125732000D01*
X205827928Y-127532000D01*
X205840188Y-127656482D01*
X205876498Y-127776180D01*
X205935463Y-127886494D01*
X206014815Y-127983185D01*
X206111506Y-128062537D01*
X206221820Y-128121502D01*
X206341518Y-128157812D01*
X206466000Y-128170072D01*
X207831002Y-128170072D01*
X207831002Y-131951928D01*
X206720000Y-131951928D01*
X206595518Y-131964188D01*
X206475820Y-132000498D01*
X206365506Y-132059463D01*
X206268815Y-132138815D01*
X206189463Y-132235506D01*
X206130498Y-132345820D01*
X206094188Y-132465518D01*
X206081928Y-132590000D01*
X206081928Y-134390000D01*
X206094188Y-134514482D01*
X206130498Y-134634180D01*
X206189463Y-134744494D01*
X206268815Y-134841185D01*
X206365506Y-134920537D01*
X206475820Y-134979502D01*
X206595518Y-135015812D01*
X206720000Y-135028072D01*
X208520000Y-135028072D01*
X208644482Y-135015812D01*
X208764180Y-134979502D01*
X208874494Y-134920537D01*
X208971185Y-134841185D01*
X209050537Y-134744494D01*
X209109502Y-134634180D01*
X209112813Y-134623265D01*
X209159578Y-134670030D01*
X209275526Y-134554082D01*
X209359208Y-134808261D01*
X209631775Y-134939158D01*
X209924642Y-135014365D01*
X210226553Y-135030991D01*
X210525907Y-134988397D01*
X210811199Y-134888222D01*
X210960792Y-134808261D01*
X211044475Y-134554080D01*
X210160000Y-133669605D01*
X210145858Y-133683748D01*
X209966253Y-133504143D01*
X209980395Y-133490000D01*
X210339605Y-133490000D01*
X211224080Y-134374475D01*
X211478261Y-134290792D01*
X211609158Y-134018225D01*
X211684365Y-133725358D01*
X211700991Y-133423447D01*
X211658397Y-133124093D01*
X211558222Y-132838801D01*
X211478261Y-132689208D01*
X211224080Y-132605525D01*
X210339605Y-133490000D01*
X209980395Y-133490000D01*
X209966253Y-133475858D01*
X210145858Y-133296253D01*
X210160000Y-133310395D01*
X211044475Y-132425920D01*
X210960792Y-132171739D01*
X210688225Y-132040842D01*
X210395358Y-131965635D01*
X210093447Y-131949009D01*
X209794093Y-131991603D01*
X209508801Y-132091778D01*
X209401001Y-132149400D01*
X209401001Y-128087122D01*
X209670642Y-128156365D01*
X209972553Y-128172991D01*
X210271907Y-128130397D01*
X210557199Y-128030222D01*
X210706792Y-127950261D01*
X210790475Y-127696080D01*
X209906000Y-126811605D01*
X209891858Y-126825748D01*
X209712253Y-126646143D01*
X209726395Y-126632000D01*
X210085605Y-126632000D01*
X210970080Y-127516475D01*
X211224261Y-127432792D01*
X211355158Y-127160225D01*
X211430365Y-126867358D01*
X211446991Y-126565447D01*
X211404397Y-126266093D01*
X211304222Y-125980801D01*
X211224261Y-125831208D01*
X210970080Y-125747525D01*
X210085605Y-126632000D01*
X209726395Y-126632000D01*
X209712253Y-126617858D01*
X209891858Y-126438253D01*
X209906000Y-126452395D01*
X210790475Y-125567920D01*
X210706792Y-125313739D01*
X210434225Y-125182842D01*
X210141358Y-125107635D01*
X209839447Y-125091009D01*
X209540093Y-125133603D01*
X209401001Y-125182443D01*
X209401001Y-121316553D01*
X209404798Y-121278000D01*
X209401001Y-121239447D01*
X209401001Y-121239440D01*
X209389642Y-121124114D01*
X209344755Y-120976141D01*
X209271863Y-120839768D01*
X209173765Y-120720237D01*
X209143818Y-120695660D01*
X207754554Y-119306396D01*
X207785000Y-119153335D01*
X207785000Y-118870665D01*
X207729853Y-118593426D01*
X207621680Y-118332273D01*
X207464637Y-118097241D01*
X207264759Y-117897363D01*
X207029727Y-117740320D01*
X206768574Y-117632147D01*
X206491335Y-117577000D01*
X206208665Y-117577000D01*
X205931426Y-117632147D01*
X205685000Y-117734220D01*
X205685000Y-116987780D01*
X205931426Y-117089853D01*
X206208665Y-117145000D01*
X206491335Y-117145000D01*
X206644397Y-117114554D01*
X210219654Y-120689811D01*
X210244237Y-120719765D01*
X210363768Y-120817863D01*
X210498942Y-120890114D01*
X210500141Y-120890755D01*
X210648114Y-120935643D01*
X210723027Y-120943021D01*
X210763440Y-120947001D01*
X210763445Y-120947001D01*
X210802001Y-120950798D01*
X210840557Y-120947001D01*
X214059000Y-120947001D01*
X214059000Y-121185335D01*
X214114147Y-121462574D01*
X214222320Y-121723727D01*
X214379363Y-121958759D01*
X214579241Y-122158637D01*
X214814273Y-122315680D01*
X215075426Y-122423853D01*
X215352665Y-122479000D01*
X215635335Y-122479000D01*
X215912574Y-122423853D01*
X216173727Y-122315680D01*
X216408759Y-122158637D01*
X216608637Y-121958759D01*
X216765680Y-121723727D01*
X216873853Y-121462574D01*
X216929000Y-121185335D01*
X216929000Y-120902665D01*
X216879875Y-120655703D01*
X219067507Y-118468072D01*
X219900000Y-118468072D01*
X220024482Y-118455812D01*
X220144180Y-118419502D01*
X220254494Y-118360537D01*
X220351185Y-118281185D01*
X220430537Y-118184494D01*
X220489502Y-118074180D01*
X220513966Y-117993534D01*
X220589731Y-118077588D01*
X220823080Y-118251641D01*
X221085901Y-118376825D01*
X221233110Y-118421476D01*
X221463000Y-118300155D01*
X221463000Y-117107000D01*
X221443000Y-117107000D01*
X221443000Y-116853000D01*
X221463000Y-116853000D01*
X221463000Y-115659845D01*
X221717000Y-115659845D01*
X221717000Y-116853000D01*
X221737000Y-116853000D01*
X221737000Y-117107000D01*
X221717000Y-117107000D01*
X221717000Y-118300155D01*
X221946890Y-118421476D01*
X222094099Y-118376825D01*
X222356920Y-118251641D01*
X222590269Y-118077588D01*
X222785178Y-117861355D01*
X222854805Y-117744466D01*
X222976525Y-117926632D01*
X223183368Y-118133475D01*
X223426589Y-118295990D01*
X223696842Y-118407932D01*
X223983740Y-118465000D01*
X224276260Y-118465000D01*
X224563158Y-118407932D01*
X224833411Y-118295990D01*
X225076632Y-118133475D01*
X225283475Y-117926632D01*
X225400000Y-117752240D01*
X225516525Y-117926632D01*
X225723368Y-118133475D01*
X225966589Y-118295990D01*
X226236842Y-118407932D01*
X226523740Y-118465000D01*
X226816260Y-118465000D01*
X227103158Y-118407932D01*
X227373411Y-118295990D01*
X227616632Y-118133475D01*
X227823475Y-117926632D01*
X227940000Y-117752240D01*
X228056525Y-117926632D01*
X228263368Y-118133475D01*
X228506589Y-118295990D01*
X228776842Y-118407932D01*
X229063740Y-118465000D01*
X229356260Y-118465000D01*
X229643158Y-118407932D01*
X229913411Y-118295990D01*
X230156632Y-118133475D01*
X230363475Y-117926632D01*
X230480000Y-117752240D01*
X230596525Y-117926632D01*
X230803368Y-118133475D01*
X231046589Y-118295990D01*
X231316842Y-118407932D01*
X231603740Y-118465000D01*
X231896260Y-118465000D01*
X232183158Y-118407932D01*
X232453411Y-118295990D01*
X232696632Y-118133475D01*
X232903475Y-117926632D01*
X233065990Y-117683411D01*
X233177932Y-117413158D01*
X233235000Y-117126260D01*
X233235000Y-116833740D01*
X233177932Y-116546842D01*
X233065990Y-116276589D01*
X232903475Y-116033368D01*
X232798752Y-115928645D01*
X232864637Y-115862759D01*
X233021680Y-115627727D01*
X233129853Y-115366574D01*
X233185000Y-115089335D01*
X233185000Y-114806665D01*
X233129853Y-114529426D01*
X233021680Y-114268273D01*
X232864637Y-114033241D01*
X232664759Y-113833363D01*
X232429727Y-113676320D01*
X232168574Y-113568147D01*
X231891335Y-113513000D01*
X231608665Y-113513000D01*
X231331426Y-113568147D01*
X231070273Y-113676320D01*
X230835241Y-113833363D01*
X230635363Y-114033241D01*
X230491007Y-114249286D01*
X230346650Y-114033241D01*
X230146772Y-113833363D01*
X229911740Y-113676320D01*
X229650587Y-113568147D01*
X229373348Y-113513000D01*
X229090678Y-113513000D01*
X228813439Y-113568147D01*
X228552286Y-113676320D01*
X228332007Y-113823506D01*
X228111727Y-113676320D01*
X227850574Y-113568147D01*
X227573335Y-113513000D01*
X227290665Y-113513000D01*
X227013426Y-113568147D01*
X226752273Y-113676320D01*
X226517241Y-113833363D01*
X226317363Y-114033241D01*
X226160320Y-114268273D01*
X226052147Y-114529426D01*
X225997000Y-114806665D01*
X225997000Y-115089335D01*
X226029553Y-115252986D01*
X226014139Y-115271767D01*
X225979303Y-115336942D01*
X225941246Y-115408141D01*
X225896359Y-115556114D01*
X225881203Y-115710000D01*
X225882225Y-115720380D01*
X225723368Y-115826525D01*
X225630537Y-115919356D01*
X225655680Y-115881727D01*
X225763853Y-115620574D01*
X225819000Y-115343335D01*
X225819000Y-115060665D01*
X225763853Y-114783426D01*
X225655680Y-114522273D01*
X225498637Y-114287241D01*
X225298759Y-114087363D01*
X225063727Y-113930320D01*
X224802574Y-113822147D01*
X224525335Y-113767000D01*
X224242665Y-113767000D01*
X223965426Y-113822147D01*
X223704273Y-113930320D01*
X223469241Y-114087363D01*
X223269363Y-114287241D01*
X223112320Y-114522273D01*
X223004147Y-114783426D01*
X222949000Y-115060665D01*
X222949000Y-115343335D01*
X223004147Y-115620574D01*
X223112320Y-115881727D01*
X223118667Y-115891226D01*
X222976525Y-116033368D01*
X222854805Y-116215534D01*
X222785178Y-116098645D01*
X222590269Y-115882412D01*
X222356920Y-115708359D01*
X222094099Y-115583175D01*
X221946890Y-115538524D01*
X221717000Y-115659845D01*
X221463000Y-115659845D01*
X221233110Y-115538524D01*
X221085901Y-115583175D01*
X220823080Y-115708359D01*
X220589731Y-115882412D01*
X220513966Y-115966466D01*
X220489502Y-115885820D01*
X220430537Y-115775506D01*
X220351185Y-115678815D01*
X220297127Y-115634451D01*
X226929687Y-109001891D01*
X230863525Y-109001891D01*
X230908176Y-109149100D01*
X231033360Y-109411921D01*
X231207413Y-109645270D01*
X231423646Y-109840179D01*
X231673749Y-109989158D01*
X231948110Y-110086482D01*
X232178001Y-109965815D01*
X232178001Y-108772001D01*
X232432001Y-108772001D01*
X232432001Y-109965815D01*
X232661892Y-110086482D01*
X232936253Y-109989158D01*
X233186356Y-109840179D01*
X233402589Y-109645270D01*
X233576642Y-109411921D01*
X233701826Y-109149100D01*
X233746477Y-109001891D01*
X235513525Y-109001891D01*
X235558176Y-109149100D01*
X235683360Y-109411921D01*
X235857413Y-109645270D01*
X236073646Y-109840179D01*
X236323749Y-109989158D01*
X236598110Y-110086482D01*
X236828001Y-109965815D01*
X236828001Y-108772001D01*
X237082001Y-108772001D01*
X237082001Y-109965815D01*
X237311892Y-110086482D01*
X237586253Y-109989158D01*
X237836356Y-109840179D01*
X238052589Y-109645270D01*
X238226642Y-109411921D01*
X238351826Y-109149100D01*
X238396477Y-109001891D01*
X238275156Y-108772001D01*
X237082001Y-108772001D01*
X236828001Y-108772001D01*
X235634846Y-108772001D01*
X235513525Y-109001891D01*
X233746477Y-109001891D01*
X233625156Y-108772001D01*
X232432001Y-108772001D01*
X232178001Y-108772001D01*
X230984846Y-108772001D01*
X230863525Y-109001891D01*
X226929687Y-109001891D01*
X227484578Y-108447001D01*
X230804532Y-108447001D01*
X230848001Y-108451282D01*
X230891470Y-108447001D01*
X230891478Y-108447001D01*
X230944615Y-108441768D01*
X230984846Y-108518001D01*
X232178001Y-108518001D01*
X232178001Y-108498001D01*
X232432001Y-108498001D01*
X232432001Y-108518001D01*
X233625156Y-108518001D01*
X233746477Y-108288111D01*
X233701826Y-108140902D01*
X233576642Y-107878081D01*
X233402589Y-107644732D01*
X233186356Y-107449823D01*
X233069467Y-107380196D01*
X233251633Y-107258476D01*
X233458476Y-107051633D01*
X233499657Y-106990001D01*
X235760345Y-106990001D01*
X235801526Y-107051633D01*
X236008369Y-107258476D01*
X236190535Y-107380196D01*
X236073646Y-107449823D01*
X235857413Y-107644732D01*
X235683360Y-107878081D01*
X235558176Y-108140902D01*
X235513525Y-108288111D01*
X235634846Y-108518001D01*
X236828001Y-108518001D01*
X236828001Y-108498001D01*
X237082001Y-108498001D01*
X237082001Y-108518001D01*
X238275156Y-108518001D01*
X238396477Y-108288111D01*
X238351826Y-108140902D01*
X238226642Y-107878081D01*
X238052589Y-107644732D01*
X237836356Y-107449823D01*
X237719467Y-107380196D01*
X237901633Y-107258476D01*
X238108476Y-107051633D01*
X238149657Y-106990001D01*
X240410345Y-106990001D01*
X240451526Y-107051633D01*
X240658369Y-107258476D01*
X240840535Y-107380196D01*
X240723646Y-107449823D01*
X240507413Y-107644732D01*
X240333360Y-107878081D01*
X240208176Y-108140902D01*
X240163525Y-108288111D01*
X240284846Y-108518001D01*
X241478001Y-108518001D01*
X241478001Y-108498001D01*
X241732001Y-108498001D01*
X241732001Y-108518001D01*
X242925156Y-108518001D01*
X243046477Y-108288111D01*
X243001826Y-108140902D01*
X242876642Y-107878081D01*
X242702589Y-107644732D01*
X242486356Y-107449823D01*
X242369467Y-107380196D01*
X242551633Y-107258476D01*
X242758476Y-107051633D01*
X242920991Y-106808412D01*
X243032933Y-106538159D01*
X243060734Y-106398393D01*
X243638341Y-105820787D01*
X244184208Y-105820787D01*
X244249461Y-105886040D01*
G04 #@! TA.AperFunction,Conductor*
D23*
G36*
X244249461Y-105886040D02*
G01*
X244235000Y-105958741D01*
X244235000Y-106251261D01*
X244292068Y-106538159D01*
X244404010Y-106808412D01*
X244566525Y-107051633D01*
X244773368Y-107258476D01*
X244955534Y-107380196D01*
X244838645Y-107449823D01*
X244622412Y-107644732D01*
X244448359Y-107878081D01*
X244323175Y-108140902D01*
X244278524Y-108288111D01*
X244399845Y-108518001D01*
X245593000Y-108518001D01*
X245593000Y-108498001D01*
X245847000Y-108498001D01*
X245847000Y-108518001D01*
X245867000Y-108518001D01*
X245867000Y-108772001D01*
X245847000Y-108772001D01*
X245847000Y-108792001D01*
X245593000Y-108792001D01*
X245593000Y-108772001D01*
X244399845Y-108772001D01*
X244278524Y-109001891D01*
X244323175Y-109149100D01*
X244448359Y-109411921D01*
X244522310Y-109511065D01*
X244394752Y-109638622D01*
X242707547Y-109638623D01*
X242876642Y-109411921D01*
X243001826Y-109149100D01*
X243046477Y-109001891D01*
X242925156Y-108772001D01*
X241732001Y-108772001D01*
X241732001Y-108792001D01*
X241478001Y-108792001D01*
X241478001Y-108772001D01*
X240284846Y-108772001D01*
X240163525Y-109001891D01*
X240208176Y-109149100D01*
X240333360Y-109411921D01*
X240507413Y-109645270D01*
X240723646Y-109840179D01*
X240973749Y-109989158D01*
X241104354Y-110035488D01*
X236857186Y-114282657D01*
X236827238Y-114307235D01*
X236802660Y-114337183D01*
X236802656Y-114337187D01*
X236779293Y-114365655D01*
X236729140Y-114426766D01*
X236722066Y-114440001D01*
X236675603Y-114526927D01*
X236535001Y-114526927D01*
X236410519Y-114539187D01*
X236290821Y-114575497D01*
X236180507Y-114634462D01*
X236083816Y-114713814D01*
X236004464Y-114810505D01*
X235945499Y-114920819D01*
X235909189Y-115040517D01*
X235896929Y-115164999D01*
X235896929Y-116864999D01*
X235909189Y-116989481D01*
X235945499Y-117109179D01*
X236004464Y-117219493D01*
X236083816Y-117316184D01*
X236180507Y-117395536D01*
X236290821Y-117454501D01*
X236410519Y-117490811D01*
X236535001Y-117503071D01*
X236600001Y-117503071D01*
X236600001Y-119176927D01*
X236535001Y-119176927D01*
X236410519Y-119189187D01*
X236290821Y-119225497D01*
X236180507Y-119284462D01*
X236083816Y-119363814D01*
X236004464Y-119460505D01*
X235945499Y-119570819D01*
X235909189Y-119690517D01*
X235896929Y-119814999D01*
X235896929Y-121514999D01*
X235909189Y-121639481D01*
X235945499Y-121759179D01*
X236004464Y-121869493D01*
X236083816Y-121966184D01*
X236180507Y-122045536D01*
X236290821Y-122104501D01*
X236410519Y-122140811D01*
X236535001Y-122153071D01*
X236600002Y-122153071D01*
X236600002Y-123826927D01*
X236535001Y-123826927D01*
X236410519Y-123839187D01*
X236290821Y-123875497D01*
X236180507Y-123934462D01*
X236083816Y-124013814D01*
X236004464Y-124110505D01*
X235945499Y-124220819D01*
X235909189Y-124340517D01*
X235896929Y-124464999D01*
X235896929Y-126164999D01*
X235909189Y-126289481D01*
X235945499Y-126409179D01*
X236004464Y-126519493D01*
X236083816Y-126616184D01*
X236180507Y-126695536D01*
X236290821Y-126754501D01*
X236410519Y-126790811D01*
X236535001Y-126803071D01*
X238235001Y-126803071D01*
X238359483Y-126790811D01*
X238479181Y-126754501D01*
X238589495Y-126695536D01*
X238686186Y-126616184D01*
X238765538Y-126519493D01*
X238824503Y-126409179D01*
X238846514Y-126336619D01*
X238978369Y-126468474D01*
X239221590Y-126630989D01*
X239491843Y-126742931D01*
X239778741Y-126799999D01*
X240071261Y-126799999D01*
X240358159Y-126742931D01*
X240628412Y-126630989D01*
X240871633Y-126468474D01*
X241078476Y-126261631D01*
X241195001Y-126087239D01*
X241311526Y-126261631D01*
X241518369Y-126468474D01*
X241761590Y-126630989D01*
X242031843Y-126742931D01*
X242318741Y-126799999D01*
X242611261Y-126799999D01*
X242898159Y-126742931D01*
X243168412Y-126630989D01*
X243411633Y-126468474D01*
X243618476Y-126261631D01*
X243735001Y-126087239D01*
X243851526Y-126261631D01*
X244058369Y-126468474D01*
X244301590Y-126630989D01*
X244571843Y-126742931D01*
X244858741Y-126799999D01*
X245151261Y-126799999D01*
X245438159Y-126742931D01*
X245708412Y-126630989D01*
X245951633Y-126468474D01*
X246158476Y-126261631D01*
X246275001Y-126087239D01*
X246391526Y-126261631D01*
X246598369Y-126468474D01*
X246841590Y-126630989D01*
X247111843Y-126742931D01*
X247398741Y-126799999D01*
X247691261Y-126799999D01*
X247978159Y-126742931D01*
X248248412Y-126630989D01*
X248491633Y-126468474D01*
X248698476Y-126261631D01*
X248815001Y-126087239D01*
X248931526Y-126261631D01*
X249138369Y-126468474D01*
X249381590Y-126630989D01*
X249651843Y-126742931D01*
X249938741Y-126799999D01*
X250231261Y-126799999D01*
X250518159Y-126742931D01*
X250788412Y-126630989D01*
X251031633Y-126468474D01*
X251238476Y-126261631D01*
X251360196Y-126079465D01*
X251429823Y-126196354D01*
X251624732Y-126412587D01*
X251858081Y-126586640D01*
X252120902Y-126711824D01*
X252268111Y-126756475D01*
X252498001Y-126635154D01*
X252498001Y-125441999D01*
X252752001Y-125441999D01*
X252752001Y-126635154D01*
X252981891Y-126756475D01*
X253129100Y-126711824D01*
X253391921Y-126586640D01*
X253625270Y-126412587D01*
X253820179Y-126196354D01*
X253969158Y-125946251D01*
X254066482Y-125671890D01*
X253945815Y-125441999D01*
X252752001Y-125441999D01*
X252498001Y-125441999D01*
X252478001Y-125441999D01*
X252478001Y-125187999D01*
X252498001Y-125187999D01*
X252498001Y-123994844D01*
X252752001Y-123994844D01*
X252752001Y-125187999D01*
X253945815Y-125187999D01*
X254066482Y-124958108D01*
X253969158Y-124683747D01*
X253820179Y-124433644D01*
X253625270Y-124217411D01*
X253391921Y-124043358D01*
X253129100Y-123918174D01*
X252981891Y-123873523D01*
X252752001Y-123994844D01*
X252498001Y-123994844D01*
X252268111Y-123873523D01*
X252120902Y-123918174D01*
X251858081Y-124043358D01*
X251624732Y-124217411D01*
X251429823Y-124433644D01*
X251360196Y-124550533D01*
X251238476Y-124368367D01*
X251031633Y-124161524D01*
X250870001Y-124053525D01*
X250870001Y-121926473D01*
X251031633Y-121818474D01*
X251238476Y-121611631D01*
X251360196Y-121429465D01*
X251429823Y-121546354D01*
X251624732Y-121762587D01*
X251858081Y-121936640D01*
X252120902Y-122061824D01*
X252268111Y-122106475D01*
X252498001Y-121985154D01*
X252498001Y-120791999D01*
X252752001Y-120791999D01*
X252752001Y-121985154D01*
X252981891Y-122106475D01*
X253129100Y-122061824D01*
X253391921Y-121936640D01*
X253625270Y-121762587D01*
X253820179Y-121546354D01*
X253969158Y-121296251D01*
X254066482Y-121021890D01*
X253945815Y-120791999D01*
X252752001Y-120791999D01*
X252498001Y-120791999D01*
X252478001Y-120791999D01*
X252478001Y-120537999D01*
X252498001Y-120537999D01*
X252498001Y-119344844D01*
X252752001Y-119344844D01*
X252752001Y-120537999D01*
X253945815Y-120537999D01*
X254066482Y-120308108D01*
X253969158Y-120033747D01*
X253913316Y-119940000D01*
X256931928Y-119940000D01*
X256931928Y-121640000D01*
X256944188Y-121764482D01*
X256980498Y-121884180D01*
X257039463Y-121994494D01*
X257118815Y-122091185D01*
X257215506Y-122170537D01*
X257325820Y-122229502D01*
X257398380Y-122251513D01*
X257266525Y-122383368D01*
X257104010Y-122626589D01*
X256992068Y-122896842D01*
X256935000Y-123183740D01*
X256935000Y-123476260D01*
X256992068Y-123763158D01*
X257104010Y-124033411D01*
X257266525Y-124276632D01*
X257473368Y-124483475D01*
X257535001Y-124524657D01*
X257535001Y-124675343D01*
X257473368Y-124716525D01*
X257266525Y-124923368D01*
X257104010Y-125166589D01*
X256992068Y-125436842D01*
X256935000Y-125723740D01*
X256935000Y-126016260D01*
X256992068Y-126303158D01*
X257104010Y-126573411D01*
X257266525Y-126816632D01*
X257473368Y-127023475D01*
X257655534Y-127145195D01*
X257538645Y-127214822D01*
X257322412Y-127409731D01*
X257148359Y-127643080D01*
X257023175Y-127905901D01*
X256978524Y-128053110D01*
X257099845Y-128283000D01*
X258293000Y-128283000D01*
X258293000Y-128263000D01*
X258547000Y-128263000D01*
X258547000Y-128283000D01*
X259740155Y-128283000D01*
X259861476Y-128053110D01*
X259816825Y-127905901D01*
X259691641Y-127643080D01*
X259517588Y-127409731D01*
X259301355Y-127214822D01*
X259184466Y-127145195D01*
X259366632Y-127023475D01*
X259573475Y-126816632D01*
X259735990Y-126573411D01*
X259847932Y-126303158D01*
X259863102Y-126226890D01*
X260788524Y-126226890D01*
X260833175Y-126374099D01*
X260958359Y-126636920D01*
X261132412Y-126870269D01*
X261348645Y-127065178D01*
X261598748Y-127214157D01*
X261873109Y-127311481D01*
X262103000Y-127190814D01*
X262103000Y-125997000D01*
X262357000Y-125997000D01*
X262357000Y-127190814D01*
X262586891Y-127311481D01*
X262861252Y-127214157D01*
X263111355Y-127065178D01*
X263327588Y-126870269D01*
X263501641Y-126636920D01*
X263626825Y-126374099D01*
X263671476Y-126226890D01*
X263550155Y-125997000D01*
X262357000Y-125997000D01*
X262103000Y-125997000D01*
X260909845Y-125997000D01*
X260788524Y-126226890D01*
X259863102Y-126226890D01*
X259905000Y-126016260D01*
X259905000Y-125723740D01*
X259847932Y-125436842D01*
X259735990Y-125166589D01*
X259573475Y-124923368D01*
X259366632Y-124716525D01*
X259305000Y-124675344D01*
X259305000Y-124524656D01*
X259366632Y-124483475D01*
X259573475Y-124276632D01*
X259614656Y-124215000D01*
X260745375Y-124215000D01*
X260754188Y-124304482D01*
X260790498Y-124424180D01*
X260849463Y-124534494D01*
X260928815Y-124631185D01*
X261025506Y-124710537D01*
X261135820Y-124769502D01*
X261216466Y-124793966D01*
X261132412Y-124869731D01*
X260958359Y-125103080D01*
X260833175Y-125365901D01*
X260788524Y-125513110D01*
X260909845Y-125743000D01*
X262103000Y-125743000D01*
X262103000Y-125723000D01*
X262357000Y-125723000D01*
X262357000Y-125743000D01*
X263550155Y-125743000D01*
X263671476Y-125513110D01*
X263626825Y-125365901D01*
X263501641Y-125103080D01*
X263327588Y-124869731D01*
X263243534Y-124793966D01*
X263324180Y-124769502D01*
X263434494Y-124710537D01*
X263531185Y-124631185D01*
X263610537Y-124534494D01*
X263669502Y-124424180D01*
X263705812Y-124304482D01*
X263718072Y-124180000D01*
X263718072Y-122480000D01*
X263705812Y-122355518D01*
X263669502Y-122235820D01*
X263610537Y-122125506D01*
X263531185Y-122028815D01*
X263434494Y-121949463D01*
X263324180Y-121890498D01*
X263204482Y-121854188D01*
X263080000Y-121841928D01*
X261380000Y-121841928D01*
X261255518Y-121854188D01*
X261135820Y-121890498D01*
X261025506Y-121949463D01*
X260928815Y-122028815D01*
X260849463Y-122125506D01*
X260790498Y-122235820D01*
X260754188Y-122355518D01*
X260745375Y-122445000D01*
X259614656Y-122445000D01*
X259573475Y-122383368D01*
X259441620Y-122251513D01*
X259514180Y-122229502D01*
X259624494Y-122170537D01*
X259721185Y-122091185D01*
X259800537Y-121994494D01*
X259859502Y-121884180D01*
X259895812Y-121764482D01*
X259908072Y-121640000D01*
X259908072Y-119940000D01*
X259895812Y-119815518D01*
X259859502Y-119695820D01*
X259800537Y-119585506D01*
X259721185Y-119488815D01*
X259624494Y-119409463D01*
X259514180Y-119350498D01*
X259394482Y-119314188D01*
X259270000Y-119301928D01*
X257570000Y-119301928D01*
X257445518Y-119314188D01*
X257325820Y-119350498D01*
X257215506Y-119409463D01*
X257118815Y-119488815D01*
X257039463Y-119585506D01*
X256980498Y-119695820D01*
X256944188Y-119815518D01*
X256931928Y-119940000D01*
X253913316Y-119940000D01*
X253820179Y-119783644D01*
X253625270Y-119567411D01*
X253391921Y-119393358D01*
X253129100Y-119268174D01*
X252981891Y-119223523D01*
X252752001Y-119344844D01*
X252498001Y-119344844D01*
X252268111Y-119223523D01*
X252120902Y-119268174D01*
X251858081Y-119393358D01*
X251624732Y-119567411D01*
X251429823Y-119783644D01*
X251360196Y-119900533D01*
X251238476Y-119718367D01*
X251031633Y-119511524D01*
X250870001Y-119403525D01*
X250870001Y-117276473D01*
X251031633Y-117168474D01*
X251238476Y-116961631D01*
X251360196Y-116779465D01*
X251429823Y-116896354D01*
X251624732Y-117112587D01*
X251858081Y-117286640D01*
X252120902Y-117411824D01*
X252268111Y-117456475D01*
X252498001Y-117335154D01*
X252498001Y-116141999D01*
X252752001Y-116141999D01*
X252752001Y-117335154D01*
X252981891Y-117456475D01*
X253129100Y-117411824D01*
X253391921Y-117286640D01*
X253625270Y-117112587D01*
X253820179Y-116896354D01*
X253969158Y-116646251D01*
X254066482Y-116371890D01*
X253945815Y-116141999D01*
X252752001Y-116141999D01*
X252498001Y-116141999D01*
X252478001Y-116141999D01*
X252478001Y-115887999D01*
X252498001Y-115887999D01*
X252498001Y-114694844D01*
X252752001Y-114694844D01*
X252752001Y-115887999D01*
X253945815Y-115887999D01*
X254066482Y-115658108D01*
X253969158Y-115383747D01*
X253820179Y-115133644D01*
X253625270Y-114917411D01*
X253391921Y-114743358D01*
X253129100Y-114618174D01*
X252981891Y-114573523D01*
X252752001Y-114694844D01*
X252498001Y-114694844D01*
X252268111Y-114573523D01*
X252120902Y-114618174D01*
X251858081Y-114743358D01*
X251624732Y-114917411D01*
X251429823Y-115133644D01*
X251360196Y-115250533D01*
X251238476Y-115068367D01*
X251031633Y-114861524D01*
X250870001Y-114753525D01*
X250870001Y-113173360D01*
X252717817Y-111325545D01*
X252747764Y-111300968D01*
X252774204Y-111268752D01*
X252796450Y-111241645D01*
X252845862Y-111181437D01*
X252918754Y-111045064D01*
X252938070Y-110981387D01*
X252963641Y-110897092D01*
X252969832Y-110834236D01*
X252975000Y-110781765D01*
X252975000Y-110781758D01*
X252978018Y-110751110D01*
X253198665Y-110795000D01*
X253481335Y-110795000D01*
X253758574Y-110739853D01*
X254019727Y-110631680D01*
X254254759Y-110474637D01*
X254454637Y-110274759D01*
X254611680Y-110039727D01*
X254719853Y-109778574D01*
X254775000Y-109501335D01*
X254775000Y-109218665D01*
X254744554Y-109065603D01*
X257475157Y-106335000D01*
X259421928Y-106335000D01*
X259421928Y-106450000D01*
X259434188Y-106574482D01*
X259470498Y-106694180D01*
X259529463Y-106804494D01*
X259608815Y-106901185D01*
X259705506Y-106980537D01*
X259815820Y-107039502D01*
X259935518Y-107075812D01*
X260060000Y-107088072D01*
X261860000Y-107088072D01*
X261984482Y-107075812D01*
X262104180Y-107039502D01*
X262214494Y-106980537D01*
X262311185Y-106901185D01*
X262390537Y-106804494D01*
X262449502Y-106694180D01*
X262452813Y-106683265D01*
X262499578Y-106730030D01*
X262615526Y-106614082D01*
X262699208Y-106868261D01*
X262971775Y-106999158D01*
X263264642Y-107074365D01*
X263566553Y-107090991D01*
X263865907Y-107048397D01*
X264151199Y-106948222D01*
X264300792Y-106868261D01*
X264315001Y-106825103D01*
X264315001Y-110624897D01*
X264300792Y-110581739D01*
X264028225Y-110450842D01*
X263735358Y-110375635D01*
X263433447Y-110359009D01*
X263134093Y-110401603D01*
X262848801Y-110501778D01*
X262699208Y-110581739D01*
X262615526Y-110835918D01*
X262499578Y-110719970D01*
X262452813Y-110766735D01*
X262449502Y-110755820D01*
X262390537Y-110645506D01*
X262311185Y-110548815D01*
X262214494Y-110469463D01*
X262104180Y-110410498D01*
X261984482Y-110374188D01*
X261860000Y-110361928D01*
X260060000Y-110361928D01*
X259935518Y-110374188D01*
X259815820Y-110410498D01*
X259705506Y-110469463D01*
X259608815Y-110548815D01*
X259536766Y-110636608D01*
X258554554Y-109654396D01*
X258585000Y-109501335D01*
X258585000Y-109218665D01*
X258529853Y-108941426D01*
X258421680Y-108680273D01*
X258264637Y-108445241D01*
X258064759Y-108245363D01*
X257829727Y-108088320D01*
X257568574Y-107980147D01*
X257291335Y-107925000D01*
X257008665Y-107925000D01*
X256731426Y-107980147D01*
X256470273Y-108088320D01*
X256235241Y-108245363D01*
X256035363Y-108445241D01*
X255878320Y-108680273D01*
X255770147Y-108941426D01*
X255715000Y-109218665D01*
X255715000Y-109501335D01*
X255770147Y-109778574D01*
X255878320Y-110039727D01*
X256035363Y-110274759D01*
X256235241Y-110474637D01*
X256470273Y-110631680D01*
X256731426Y-110739853D01*
X257008665Y-110795000D01*
X257291335Y-110795000D01*
X257444396Y-110764554D01*
X259107658Y-112427816D01*
X259132236Y-112457764D01*
X259162184Y-112482342D01*
X259162187Y-112482345D01*
X259178486Y-112495721D01*
X259251767Y-112555862D01*
X259388140Y-112628754D01*
X259421928Y-112639003D01*
X259421928Y-112800000D01*
X259434188Y-112924482D01*
X259470498Y-113044180D01*
X259529463Y-113154494D01*
X259608815Y-113251185D01*
X259705506Y-113330537D01*
X259815820Y-113389502D01*
X259935518Y-113425812D01*
X260060000Y-113438072D01*
X261860000Y-113438072D01*
X261984482Y-113425812D01*
X262104180Y-113389502D01*
X262214494Y-113330537D01*
X262311185Y-113251185D01*
X262390537Y-113154494D01*
X262449502Y-113044180D01*
X262452813Y-113033265D01*
X262499578Y-113080030D01*
X262615526Y-112964082D01*
X262699208Y-113218261D01*
X262971775Y-113349158D01*
X263264642Y-113424365D01*
X263566553Y-113440991D01*
X263865907Y-113398397D01*
X264151199Y-113298222D01*
X264300792Y-113218261D01*
X264315001Y-113175103D01*
X264315000Y-146966495D01*
X264267688Y-147449016D01*
X264137287Y-147880927D01*
X263925480Y-148279280D01*
X263640325Y-148628914D01*
X263292697Y-148916497D01*
X262895825Y-149131085D01*
X262464834Y-149264500D01*
X261984346Y-149315000D01*
X203033504Y-149315000D01*
X202550984Y-149267688D01*
X202119073Y-149137287D01*
X201720720Y-148925480D01*
X201371086Y-148640325D01*
X201083503Y-148292697D01*
X200868915Y-147895825D01*
X200735500Y-147464834D01*
X200685000Y-146984346D01*
X200685000Y-146304495D01*
X201515000Y-146304495D01*
X201515000Y-146695505D01*
X201591282Y-147079003D01*
X201740915Y-147440250D01*
X201958149Y-147765364D01*
X202234636Y-148041851D01*
X202559750Y-148259085D01*
X202920997Y-148408718D01*
X203304495Y-148485000D01*
X203695505Y-148485000D01*
X204079003Y-148408718D01*
X204440250Y-148259085D01*
X204765364Y-148041851D01*
X205041851Y-147765364D01*
X205259085Y-147440250D01*
X205408718Y-147079003D01*
X205485000Y-146695505D01*
X205485000Y-146546890D01*
X207448524Y-146546890D01*
X207493175Y-146694099D01*
X207618359Y-146956920D01*
X207792412Y-147190269D01*
X208008645Y-147385178D01*
X208258748Y-147534157D01*
X208533109Y-147631481D01*
X208763000Y-147510814D01*
X208763000Y-146317000D01*
X209017000Y-146317000D01*
X209017000Y-147510814D01*
X209246891Y-147631481D01*
X209521252Y-147534157D01*
X209771355Y-147385178D01*
X209987588Y-147190269D01*
X210161641Y-146956920D01*
X210214049Y-146846890D01*
X211168524Y-146846890D01*
X211213175Y-146994099D01*
X211338359Y-147256920D01*
X211512412Y-147490269D01*
X211728645Y-147685178D01*
X211978748Y-147834157D01*
X212253109Y-147931481D01*
X212483000Y-147810814D01*
X212483000Y-146617000D01*
X212737000Y-146617000D01*
X212737000Y-147810814D01*
X212966891Y-147931481D01*
X213241252Y-147834157D01*
X213491355Y-147685178D01*
X213707588Y-147490269D01*
X213881641Y-147256920D01*
X214006825Y-146994099D01*
X214051476Y-146846890D01*
X213930155Y-146617000D01*
X212737000Y-146617000D01*
X212483000Y-146617000D01*
X211289845Y-146617000D01*
X211168524Y-146846890D01*
X210214049Y-146846890D01*
X210286825Y-146694099D01*
X210331476Y-146546890D01*
X210327333Y-146539039D01*
X215118096Y-146539039D01*
X215158754Y-146673087D01*
X215278963Y-146927420D01*
X215446481Y-147153414D01*
X215654869Y-147342385D01*
X215896119Y-147487070D01*
X216160960Y-147581909D01*
X216383000Y-147460624D01*
X216383000Y-146317000D01*
X216637000Y-146317000D01*
X216637000Y-147460624D01*
X216859040Y-147581909D01*
X217123881Y-147487070D01*
X217365131Y-147342385D01*
X217573519Y-147153414D01*
X217741037Y-146927420D01*
X217861246Y-146673087D01*
X217901904Y-146539039D01*
X217779915Y-146317000D01*
X216637000Y-146317000D01*
X216383000Y-146317000D01*
X215240085Y-146317000D01*
X215118096Y-146539039D01*
X210327333Y-146539039D01*
X210210155Y-146317000D01*
X209017000Y-146317000D01*
X208763000Y-146317000D01*
X207569845Y-146317000D01*
X207448524Y-146546890D01*
X205485000Y-146546890D01*
X205485000Y-146304495D01*
X205408718Y-145920997D01*
X205259085Y-145559750D01*
X205041851Y-145234636D01*
X204765364Y-144958149D01*
X204440250Y-144740915D01*
X204079003Y-144591282D01*
X203695505Y-144515000D01*
X203304495Y-144515000D01*
X202920997Y-144591282D01*
X202559750Y-144740915D01*
X202234636Y-144958149D01*
X201958149Y-145234636D01*
X201740915Y-145559750D01*
X201591282Y-145920997D01*
X201515000Y-146304495D01*
X200685000Y-146304495D01*
X200685000Y-137720000D01*
X207401928Y-137720000D01*
X207401928Y-139420000D01*
X207414188Y-139544482D01*
X207450498Y-139664180D01*
X207509463Y-139774494D01*
X207588815Y-139871185D01*
X207685506Y-139950537D01*
X207795820Y-140009502D01*
X207868380Y-140031513D01*
X207736525Y-140163368D01*
X207574010Y-140406589D01*
X207462068Y-140676842D01*
X207405000Y-140963740D01*
X207405000Y-141256260D01*
X207462068Y-141543158D01*
X207574010Y-141813411D01*
X207736525Y-142056632D01*
X207943368Y-142263475D01*
X208117760Y-142380000D01*
X207943368Y-142496525D01*
X207736525Y-142703368D01*
X207574010Y-142946589D01*
X207462068Y-143216842D01*
X207405000Y-143503740D01*
X207405000Y-143796260D01*
X207462068Y-144083158D01*
X207574010Y-144353411D01*
X207736525Y-144596632D01*
X207943368Y-144803475D01*
X208125534Y-144925195D01*
X208008645Y-144994822D01*
X207792412Y-145189731D01*
X207618359Y-145423080D01*
X207493175Y-145685901D01*
X207448524Y-145833110D01*
X207569845Y-146063000D01*
X208763000Y-146063000D01*
X208763000Y-146043000D01*
X209017000Y-146043000D01*
X209017000Y-146063000D01*
X210210155Y-146063000D01*
X210331476Y-145833110D01*
X210286825Y-145685901D01*
X210161641Y-145423080D01*
X209987588Y-145189731D01*
X209771355Y-144994822D01*
X209654466Y-144925195D01*
X209836632Y-144803475D01*
X210043475Y-144596632D01*
X210151474Y-144435000D01*
X211203542Y-144435000D01*
X211294010Y-144653411D01*
X211456525Y-144896632D01*
X211663368Y-145103475D01*
X211845534Y-145225195D01*
X211728645Y-145294822D01*
X211512412Y-145489731D01*
X211338359Y-145723080D01*
X211213175Y-145985901D01*
X211168524Y-146133110D01*
X211289845Y-146363000D01*
X212483000Y-146363000D01*
X212483000Y-146343000D01*
X212737000Y-146343000D01*
X212737000Y-146363000D01*
X213930155Y-146363000D01*
X214051476Y-146133110D01*
X214006825Y-145985901D01*
X213937789Y-145840961D01*
X215118096Y-145840961D01*
X215240085Y-146063000D01*
X216383000Y-146063000D01*
X216383000Y-144919376D01*
X216637000Y-144919376D01*
X216637000Y-146063000D01*
X217779915Y-146063000D01*
X217901904Y-145840961D01*
X217861246Y-145706913D01*
X217741037Y-145452580D01*
X217573519Y-145226586D01*
X217365131Y-145037615D01*
X217123881Y-144892930D01*
X216859040Y-144798091D01*
X216637000Y-144919376D01*
X216383000Y-144919376D01*
X216160960Y-144798091D01*
X215896119Y-144892930D01*
X215654869Y-145037615D01*
X215446481Y-145226586D01*
X215278963Y-145452580D01*
X215158754Y-145706913D01*
X215118096Y-145840961D01*
X213937789Y-145840961D01*
X213881641Y-145723080D01*
X213707588Y-145489731D01*
X213491355Y-145294822D01*
X213374466Y-145225195D01*
X213556632Y-145103475D01*
X213763475Y-144896632D01*
X213871474Y-144735000D01*
X214901447Y-144735000D01*
X214940000Y-144738797D01*
X214978553Y-144735000D01*
X214978561Y-144735000D01*
X215093887Y-144723641D01*
X215241860Y-144678754D01*
X215378233Y-144605862D01*
X215497764Y-144507764D01*
X215522347Y-144477810D01*
X216215604Y-143784554D01*
X216368665Y-143815000D01*
X216651335Y-143815000D01*
X216928574Y-143759853D01*
X217189727Y-143651680D01*
X217424759Y-143494637D01*
X217624637Y-143294759D01*
X217711339Y-143165000D01*
X221551447Y-143165000D01*
X221590000Y-143168797D01*
X221628553Y-143165000D01*
X221628561Y-143165000D01*
X221743887Y-143153641D01*
X221891860Y-143108754D01*
X222028233Y-143035862D01*
X222147764Y-142937764D01*
X222172347Y-142907810D01*
X222695000Y-142385157D01*
X222695000Y-142521335D01*
X222750147Y-142798574D01*
X222858320Y-143059727D01*
X223015363Y-143294759D01*
X223215241Y-143494637D01*
X223345000Y-143581339D01*
X223345001Y-144988661D01*
X223215241Y-145075363D01*
X223015363Y-145275241D01*
X222858320Y-145510273D01*
X222750147Y-145771426D01*
X222695000Y-146048665D01*
X222695000Y-146331335D01*
X222750147Y-146608574D01*
X222858320Y-146869727D01*
X223015363Y-147104759D01*
X223215241Y-147304637D01*
X223450273Y-147461680D01*
X223711426Y-147569853D01*
X223988665Y-147625000D01*
X224271335Y-147625000D01*
X224548574Y-147569853D01*
X224809727Y-147461680D01*
X225044759Y-147304637D01*
X225244637Y-147104759D01*
X225401680Y-146869727D01*
X225509853Y-146608574D01*
X225565000Y-146331335D01*
X225565000Y-146048665D01*
X225509853Y-145771426D01*
X225401680Y-145510273D01*
X225244637Y-145275241D01*
X225044759Y-145075363D01*
X224915000Y-144988661D01*
X224915000Y-143581339D01*
X225044759Y-143494637D01*
X225244637Y-143294759D01*
X225401680Y-143059727D01*
X225509853Y-142798574D01*
X225565000Y-142521335D01*
X225565000Y-142238665D01*
X232855000Y-142238665D01*
X232855000Y-142521335D01*
X232910147Y-142798574D01*
X233018320Y-143059727D01*
X233175363Y-143294759D01*
X233375241Y-143494637D01*
X233610273Y-143651680D01*
X233871426Y-143759853D01*
X234148665Y-143815000D01*
X234431335Y-143815000D01*
X234708574Y-143759853D01*
X234969727Y-143651680D01*
X235204759Y-143494637D01*
X235404637Y-143294759D01*
X235561680Y-143059727D01*
X235669853Y-142798574D01*
X235683684Y-142729039D01*
X240518096Y-142729039D01*
X240558754Y-142863087D01*
X240678963Y-143117420D01*
X240846481Y-143343414D01*
X241054869Y-143532385D01*
X241296119Y-143677070D01*
X241560960Y-143771909D01*
X241783000Y-143650624D01*
X241783000Y-142507000D01*
X240640085Y-142507000D01*
X240518096Y-142729039D01*
X235683684Y-142729039D01*
X235725000Y-142521335D01*
X235725000Y-142238665D01*
X235683685Y-142030961D01*
X240518096Y-142030961D01*
X240640085Y-142253000D01*
X241783000Y-142253000D01*
X241783000Y-141109376D01*
X242037000Y-141109376D01*
X242037000Y-142253000D01*
X242057000Y-142253000D01*
X242057000Y-142507000D01*
X242037000Y-142507000D01*
X242037000Y-143650624D01*
X242259040Y-143771909D01*
X242523881Y-143677070D01*
X242765131Y-143532385D01*
X242973519Y-143343414D01*
X243141037Y-143117420D01*
X243261246Y-142863087D01*
X243301904Y-142729039D01*
X243179916Y-142507002D01*
X243315000Y-142507002D01*
X243315000Y-146033646D01*
X243318366Y-146067821D01*
X243318366Y-146080806D01*
X243319366Y-146090318D01*
X243341121Y-146284268D01*
X243354025Y-146344976D01*
X243366089Y-146405901D01*
X243368917Y-146415038D01*
X243427930Y-146601068D01*
X243452377Y-146658105D01*
X243476046Y-146715531D01*
X243480595Y-146723944D01*
X243574617Y-146894969D01*
X243609692Y-146946194D01*
X243644050Y-146997906D01*
X243650146Y-147005276D01*
X243775596Y-147154782D01*
X243819974Y-147198240D01*
X243863703Y-147242275D01*
X243871109Y-147248315D01*
X243871113Y-147248319D01*
X243871115Y-147248320D01*
X244023214Y-147370611D01*
X244075139Y-147404589D01*
X244126632Y-147439322D01*
X244135077Y-147443812D01*
X244308033Y-147534232D01*
X244365590Y-147557487D01*
X244422835Y-147581550D01*
X244431991Y-147584315D01*
X244619217Y-147639418D01*
X244680218Y-147651054D01*
X244741015Y-147663534D01*
X244750533Y-147664468D01*
X244944895Y-147682157D01*
X245006986Y-147681723D01*
X245069066Y-147682156D01*
X245078585Y-147681223D01*
X245272682Y-147660822D01*
X245333496Y-147648339D01*
X245394481Y-147636705D01*
X245403637Y-147633941D01*
X245590075Y-147576229D01*
X245647279Y-147552182D01*
X245704873Y-147528913D01*
X245713317Y-147524423D01*
X245884994Y-147431598D01*
X245936468Y-147396878D01*
X245988418Y-147362883D01*
X245995829Y-147356839D01*
X246146207Y-147232435D01*
X246189973Y-147188362D01*
X246234311Y-147144943D01*
X246240408Y-147137574D01*
X246363758Y-146986332D01*
X246398126Y-146934603D01*
X246433191Y-146883392D01*
X246437739Y-146874981D01*
X246437740Y-146874980D01*
X246437742Y-146874976D01*
X246529366Y-146702657D01*
X246553022Y-146645261D01*
X246577482Y-146588193D01*
X246580310Y-146579056D01*
X246636719Y-146392220D01*
X246648780Y-146331310D01*
X246654479Y-146304495D01*
X259515000Y-146304495D01*
X259515000Y-146695505D01*
X259591282Y-147079003D01*
X259740915Y-147440250D01*
X259958149Y-147765364D01*
X260234636Y-148041851D01*
X260559750Y-148259085D01*
X260920997Y-148408718D01*
X261304495Y-148485000D01*
X261695505Y-148485000D01*
X262079003Y-148408718D01*
X262440250Y-148259085D01*
X262765364Y-148041851D01*
X263041851Y-147765364D01*
X263259085Y-147440250D01*
X263408718Y-147079003D01*
X263485000Y-146695505D01*
X263485000Y-146304495D01*
X263408718Y-145920997D01*
X263259085Y-145559750D01*
X263041851Y-145234636D01*
X262765364Y-144958149D01*
X262440250Y-144740915D01*
X262079003Y-144591282D01*
X261695505Y-144515000D01*
X261304495Y-144515000D01*
X260920997Y-144591282D01*
X260559750Y-144740915D01*
X260234636Y-144958149D01*
X259958149Y-145234636D01*
X259740915Y-145559750D01*
X259591282Y-145920997D01*
X259515000Y-146304495D01*
X246654479Y-146304495D01*
X246661686Y-146270591D01*
X246662686Y-146261079D01*
X246681731Y-146066845D01*
X246681731Y-146066837D01*
X246685000Y-146033647D01*
X246685000Y-130966353D01*
X246681633Y-130932169D01*
X246681633Y-130919193D01*
X246680634Y-130909681D01*
X246658879Y-130715732D01*
X246645975Y-130655024D01*
X246633911Y-130594099D01*
X246631083Y-130584962D01*
X246572070Y-130398932D01*
X246547618Y-130341882D01*
X246523954Y-130284470D01*
X246519405Y-130276056D01*
X246425383Y-130105031D01*
X246390310Y-130053809D01*
X246355951Y-130002094D01*
X246349854Y-129994724D01*
X246224404Y-129845218D01*
X246180046Y-129801779D01*
X246136297Y-129757724D01*
X246128885Y-129751679D01*
X245976785Y-129629389D01*
X245924845Y-129595401D01*
X245873367Y-129560678D01*
X245864923Y-129556187D01*
X245691967Y-129465768D01*
X245634410Y-129442513D01*
X245577165Y-129418450D01*
X245568009Y-129415685D01*
X245380783Y-129360582D01*
X245319775Y-129348945D01*
X245258985Y-129336466D01*
X245249466Y-129335532D01*
X245055105Y-129317843D01*
X244992981Y-129318277D01*
X244930933Y-129317844D01*
X244921426Y-129318776D01*
X244921419Y-129318776D01*
X244921413Y-129318777D01*
X244727318Y-129339178D01*
X244666504Y-129351661D01*
X244605519Y-129363295D01*
X244596363Y-129366059D01*
X244409925Y-129423771D01*
X244352692Y-129447830D01*
X244295127Y-129471087D01*
X244286682Y-129475577D01*
X244115006Y-129568402D01*
X244063532Y-129603122D01*
X244011582Y-129637117D01*
X244004170Y-129643162D01*
X243853793Y-129767565D01*
X243810027Y-129811638D01*
X243765689Y-129855057D01*
X243759592Y-129862426D01*
X243636242Y-130013668D01*
X243601881Y-130065386D01*
X243566809Y-130116607D01*
X243562260Y-130125020D01*
X243470635Y-130297343D01*
X243446978Y-130354739D01*
X243422519Y-130411807D01*
X243419690Y-130420943D01*
X243363281Y-130607780D01*
X243351219Y-130668698D01*
X243338314Y-130729410D01*
X243337314Y-130738922D01*
X243318269Y-130933155D01*
X243318269Y-130933173D01*
X243315001Y-130966353D01*
X243315000Y-142252998D01*
X243179916Y-142252998D01*
X243301904Y-142030961D01*
X243261246Y-141896913D01*
X243141037Y-141642580D01*
X242973519Y-141416586D01*
X242765131Y-141227615D01*
X242523881Y-141082930D01*
X242259040Y-140988091D01*
X242037000Y-141109376D01*
X241783000Y-141109376D01*
X241560960Y-140988091D01*
X241296119Y-141082930D01*
X241054869Y-141227615D01*
X240846481Y-141416586D01*
X240678963Y-141642580D01*
X240558754Y-141896913D01*
X240518096Y-142030961D01*
X235683685Y-142030961D01*
X235669853Y-141961426D01*
X235561680Y-141700273D01*
X235404637Y-141465241D01*
X235204759Y-141265363D01*
X235165000Y-141238797D01*
X235165000Y-139771339D01*
X235294759Y-139684637D01*
X235494637Y-139484759D01*
X235651680Y-139249727D01*
X235759853Y-138988574D01*
X235815000Y-138711335D01*
X235815000Y-138428665D01*
X235759853Y-138151426D01*
X235651680Y-137890273D01*
X235494637Y-137655241D01*
X235294759Y-137455363D01*
X235059727Y-137298320D01*
X234798574Y-137190147D01*
X234521335Y-137135000D01*
X234238665Y-137135000D01*
X233961426Y-137190147D01*
X233700273Y-137298320D01*
X233465241Y-137455363D01*
X233265363Y-137655241D01*
X233108320Y-137890273D01*
X233000147Y-138151426D01*
X232945000Y-138428665D01*
X232945000Y-138711335D01*
X233000147Y-138988574D01*
X233108320Y-139249727D01*
X233265363Y-139484759D01*
X233465241Y-139684637D01*
X233595000Y-139771339D01*
X233595001Y-141118525D01*
X233375241Y-141265363D01*
X233175363Y-141465241D01*
X233018320Y-141700273D01*
X232910147Y-141961426D01*
X232855000Y-142238665D01*
X225565000Y-142238665D01*
X225509853Y-141961426D01*
X225401680Y-141700273D01*
X225244637Y-141465241D01*
X225044759Y-141265363D01*
X224809727Y-141108320D01*
X224548574Y-141000147D01*
X224271335Y-140945000D01*
X224135158Y-140945000D01*
X224657816Y-140422342D01*
X224687764Y-140397764D01*
X224715568Y-140363886D01*
X224736450Y-140338441D01*
X224785862Y-140278233D01*
X224858754Y-140141860D01*
X224903641Y-139993887D01*
X224915000Y-139878561D01*
X224915000Y-139878554D01*
X224918797Y-139840001D01*
X224915000Y-139801448D01*
X224915000Y-139771339D01*
X225044759Y-139684637D01*
X225244637Y-139484759D01*
X225331339Y-139355000D01*
X225558661Y-139355000D01*
X225645363Y-139484759D01*
X225845241Y-139684637D01*
X226080273Y-139841680D01*
X226341426Y-139949853D01*
X226618665Y-140005000D01*
X226901335Y-140005000D01*
X227178574Y-139949853D01*
X227439727Y-139841680D01*
X227674759Y-139684637D01*
X227874637Y-139484759D01*
X228031680Y-139249727D01*
X228139853Y-138988574D01*
X228195000Y-138711335D01*
X228195000Y-138428665D01*
X228139853Y-138151426D01*
X228031680Y-137890273D01*
X227874637Y-137655241D01*
X227674759Y-137455363D01*
X227545000Y-137368661D01*
X227545000Y-135901203D01*
X227584759Y-135874637D01*
X227784637Y-135674759D01*
X227941680Y-135439727D01*
X228049853Y-135178574D01*
X228105000Y-134901335D01*
X228105000Y-134618665D01*
X228049853Y-134341426D01*
X227941680Y-134080273D01*
X227784637Y-133845241D01*
X227584759Y-133645363D01*
X227349727Y-133488320D01*
X227088574Y-133380147D01*
X226811335Y-133325000D01*
X226528665Y-133325000D01*
X226251426Y-133380147D01*
X225990273Y-133488320D01*
X225755241Y-133645363D01*
X225555363Y-133845241D01*
X225398320Y-134080273D01*
X225290147Y-134341426D01*
X225235000Y-134618665D01*
X225235000Y-134901335D01*
X225290147Y-135178574D01*
X225398320Y-135439727D01*
X225555363Y-135674759D01*
X225755241Y-135874637D01*
X225975001Y-136021475D01*
X225975000Y-137368661D01*
X225845241Y-137455363D01*
X225645363Y-137655241D01*
X225558661Y-137785000D01*
X225331339Y-137785000D01*
X225244637Y-137655241D01*
X225044759Y-137455363D01*
X224809727Y-137298320D01*
X224548574Y-137190147D01*
X224271335Y-137135000D01*
X223988665Y-137135000D01*
X223711426Y-137190147D01*
X223450273Y-137298320D01*
X223215241Y-137455363D01*
X223015363Y-137655241D01*
X222858320Y-137890273D01*
X222750147Y-138151426D01*
X222695000Y-138428665D01*
X222695000Y-138711335D01*
X222750147Y-138988574D01*
X222858320Y-139249727D01*
X223015363Y-139484759D01*
X223195223Y-139664619D01*
X221264843Y-141595000D01*
X217711339Y-141595000D01*
X217624637Y-141465241D01*
X217424759Y-141265363D01*
X217189727Y-141108320D01*
X216928574Y-141000147D01*
X216651335Y-140945000D01*
X216368665Y-140945000D01*
X216091426Y-141000147D01*
X215830273Y-141108320D01*
X215595241Y-141265363D01*
X215395363Y-141465241D01*
X215238320Y-141700273D01*
X215130147Y-141961426D01*
X215075000Y-142238665D01*
X215075000Y-142521335D01*
X215105446Y-142674396D01*
X214614843Y-143165000D01*
X213871474Y-143165000D01*
X213763475Y-143003368D01*
X213556632Y-142796525D01*
X213382240Y-142680000D01*
X213556632Y-142563475D01*
X213763475Y-142356632D01*
X213925990Y-142113411D01*
X214037932Y-141843158D01*
X214095000Y-141556260D01*
X214095000Y-141263740D01*
X214057075Y-141073082D01*
X214337812Y-140792345D01*
X214367765Y-140767763D01*
X214465863Y-140648232D01*
X214538755Y-140511859D01*
X214553465Y-140463368D01*
X214583643Y-140363886D01*
X214594806Y-140250537D01*
X214595001Y-140248560D01*
X214595001Y-140248555D01*
X214598798Y-140209999D01*
X214595001Y-140171443D01*
X214595001Y-139563156D01*
X215141698Y-139016459D01*
X215238320Y-139249727D01*
X215395363Y-139484759D01*
X215595241Y-139684637D01*
X215830273Y-139841680D01*
X216091426Y-139949853D01*
X216368665Y-140005000D01*
X216651335Y-140005000D01*
X216928574Y-139949853D01*
X217189727Y-139841680D01*
X217424759Y-139684637D01*
X217624637Y-139484759D01*
X217781680Y-139249727D01*
X217889853Y-138988574D01*
X217945000Y-138711335D01*
X217945000Y-138428665D01*
X217889853Y-138151426D01*
X217781680Y-137890273D01*
X217624637Y-137655241D01*
X217444777Y-137475381D01*
X218755604Y-136164554D01*
X218908665Y-136195000D01*
X219191335Y-136195000D01*
X219468574Y-136139853D01*
X219729727Y-136031680D01*
X219964759Y-135874637D01*
X220164637Y-135674759D01*
X220321680Y-135439727D01*
X220429853Y-135178574D01*
X220485000Y-134901335D01*
X220485000Y-134618665D01*
X220429853Y-134341426D01*
X220321680Y-134080273D01*
X220164637Y-133845241D01*
X219964759Y-133645363D01*
X219835000Y-133558661D01*
X219835000Y-128766890D01*
X256978524Y-128766890D01*
X257023175Y-128914099D01*
X257148359Y-129176920D01*
X257322412Y-129410269D01*
X257538645Y-129605178D01*
X257788748Y-129754157D01*
X258063109Y-129851481D01*
X258293000Y-129730814D01*
X258293000Y-128537000D01*
X258547000Y-128537000D01*
X258547000Y-129730814D01*
X258776891Y-129851481D01*
X259051252Y-129754157D01*
X259301355Y-129605178D01*
X259517588Y-129410269D01*
X259691641Y-129176920D01*
X259816825Y-128914099D01*
X259861476Y-128766890D01*
X259740155Y-128537000D01*
X258547000Y-128537000D01*
X258293000Y-128537000D01*
X257099845Y-128537000D01*
X256978524Y-128766890D01*
X219835000Y-128766890D01*
X219835000Y-124925157D01*
X222311604Y-122448554D01*
X222464665Y-122479000D01*
X222747335Y-122479000D01*
X223024574Y-122423853D01*
X223285727Y-122315680D01*
X223520759Y-122158637D01*
X223720637Y-121958759D01*
X223877680Y-121723727D01*
X223985853Y-121462574D01*
X224041000Y-121185335D01*
X224041000Y-120902665D01*
X223985853Y-120625426D01*
X223877680Y-120364273D01*
X223720637Y-120129241D01*
X223520759Y-119929363D01*
X223285727Y-119772320D01*
X223024574Y-119664147D01*
X222747335Y-119609000D01*
X222464665Y-119609000D01*
X222187426Y-119664147D01*
X221926273Y-119772320D01*
X221691241Y-119929363D01*
X221642248Y-119978356D01*
X221591680Y-119856273D01*
X221434637Y-119621241D01*
X221234759Y-119421363D01*
X220999727Y-119264320D01*
X220738574Y-119156147D01*
X220461335Y-119101000D01*
X220178665Y-119101000D01*
X219901426Y-119156147D01*
X219640273Y-119264320D01*
X219405241Y-119421363D01*
X219205363Y-119621241D01*
X219048320Y-119856273D01*
X218940147Y-120117426D01*
X218885000Y-120394665D01*
X218885000Y-120677335D01*
X218915446Y-120830396D01*
X215474185Y-124271658D01*
X215444237Y-124296236D01*
X215419659Y-124326184D01*
X215419655Y-124326188D01*
X215407896Y-124340517D01*
X215346139Y-124415767D01*
X215319824Y-124464999D01*
X215273246Y-124552141D01*
X215228359Y-124700114D01*
X215213203Y-124854000D01*
X215217001Y-124892563D01*
X215217000Y-132257925D01*
X215157727Y-132218320D01*
X214896574Y-132110147D01*
X214619335Y-132055000D01*
X214336665Y-132055000D01*
X214059426Y-132110147D01*
X213798273Y-132218320D01*
X213563241Y-132375363D01*
X213363363Y-132575241D01*
X213206320Y-132810273D01*
X213098147Y-133071426D01*
X213043000Y-133348665D01*
X213043000Y-133631335D01*
X213098147Y-133908574D01*
X213206320Y-134169727D01*
X213363363Y-134404759D01*
X213563241Y-134604637D01*
X213593000Y-134624522D01*
X213593001Y-136635420D01*
X212846494Y-137381928D01*
X211760000Y-137381928D01*
X211635518Y-137394188D01*
X211515820Y-137430498D01*
X211405506Y-137489463D01*
X211308815Y-137568815D01*
X211229463Y-137665506D01*
X211170498Y-137775820D01*
X211134188Y-137895518D01*
X211125375Y-137985000D01*
X210378072Y-137985000D01*
X210378072Y-137720000D01*
X210365812Y-137595518D01*
X210329502Y-137475820D01*
X210270537Y-137365506D01*
X210191185Y-137268815D01*
X210094494Y-137189463D01*
X209984180Y-137130498D01*
X209864482Y-137094188D01*
X209740000Y-137081928D01*
X208040000Y-137081928D01*
X207915518Y-137094188D01*
X207795820Y-137130498D01*
X207685506Y-137189463D01*
X207588815Y-137268815D01*
X207509463Y-137365506D01*
X207450498Y-137475820D01*
X207414188Y-137595518D01*
X207401928Y-137720000D01*
X200685000Y-137720000D01*
X200685000Y-131185000D01*
X204533647Y-131185000D01*
X204562601Y-131182148D01*
X204565573Y-131182169D01*
X204575092Y-131181236D01*
X204623218Y-131176178D01*
X204634283Y-131175088D01*
X204634652Y-131174976D01*
X204672140Y-131171036D01*
X204732990Y-131158545D01*
X204793942Y-131146918D01*
X204803096Y-131144155D01*
X204803102Y-131144153D01*
X204896317Y-131115298D01*
X204953533Y-131091246D01*
X205011119Y-131067980D01*
X205019564Y-131063490D01*
X205105401Y-131017077D01*
X205156867Y-130982362D01*
X205208821Y-130948364D01*
X205216232Y-130942320D01*
X205291421Y-130880118D01*
X205335162Y-130836070D01*
X205379522Y-130792631D01*
X205385618Y-130785261D01*
X205385623Y-130785256D01*
X205385627Y-130785250D01*
X205447294Y-130709640D01*
X205481632Y-130657959D01*
X205516733Y-130606694D01*
X205521282Y-130598281D01*
X205567094Y-130512120D01*
X205590758Y-130454704D01*
X205615208Y-130397661D01*
X205618036Y-130388525D01*
X205646241Y-130295107D01*
X205658303Y-130234187D01*
X205671209Y-130173470D01*
X205672209Y-130163958D01*
X205681731Y-130066841D01*
X205681731Y-130066837D01*
X205685000Y-130033647D01*
X205685000Y-123441360D01*
X205902458Y-123484615D01*
X206581001Y-124163159D01*
X206581001Y-125093928D01*
X206466000Y-125093928D01*
X206341518Y-125106188D01*
X206221820Y-125142498D01*
X206111506Y-125201463D01*
X206014815Y-125280815D01*
X205935463Y-125377506D01*
X205876498Y-125487820D01*
X205840188Y-125607518D01*
X205827928Y-125732000D01*
X205827928Y-127532000D01*
X205840188Y-127656482D01*
X205876498Y-127776180D01*
X205935463Y-127886494D01*
X206014815Y-127983185D01*
X206111506Y-128062537D01*
X206221820Y-128121502D01*
X206341518Y-128157812D01*
X206466000Y-128170072D01*
X207831002Y-128170072D01*
X207831002Y-131951928D01*
X206720000Y-131951928D01*
X206595518Y-131964188D01*
X206475820Y-132000498D01*
X206365506Y-132059463D01*
X206268815Y-132138815D01*
X206189463Y-132235506D01*
X206130498Y-132345820D01*
X206094188Y-132465518D01*
X206081928Y-132590000D01*
X206081928Y-134390000D01*
X206094188Y-134514482D01*
X206130498Y-134634180D01*
X206189463Y-134744494D01*
X206268815Y-134841185D01*
X206365506Y-134920537D01*
X206475820Y-134979502D01*
X206595518Y-135015812D01*
X206720000Y-135028072D01*
X208520000Y-135028072D01*
X208644482Y-135015812D01*
X208764180Y-134979502D01*
X208874494Y-134920537D01*
X208971185Y-134841185D01*
X209050537Y-134744494D01*
X209109502Y-134634180D01*
X209112813Y-134623265D01*
X209159578Y-134670030D01*
X209275526Y-134554082D01*
X209359208Y-134808261D01*
X209631775Y-134939158D01*
X209924642Y-135014365D01*
X210226553Y-135030991D01*
X210525907Y-134988397D01*
X210811199Y-134888222D01*
X210960792Y-134808261D01*
X211044475Y-134554080D01*
X210160000Y-133669605D01*
X210145858Y-133683748D01*
X209966253Y-133504143D01*
X209980395Y-133490000D01*
X210339605Y-133490000D01*
X211224080Y-134374475D01*
X211478261Y-134290792D01*
X211609158Y-134018225D01*
X211684365Y-133725358D01*
X211700991Y-133423447D01*
X211658397Y-133124093D01*
X211558222Y-132838801D01*
X211478261Y-132689208D01*
X211224080Y-132605525D01*
X210339605Y-133490000D01*
X209980395Y-133490000D01*
X209966253Y-133475858D01*
X210145858Y-133296253D01*
X210160000Y-133310395D01*
X211044475Y-132425920D01*
X210960792Y-132171739D01*
X210688225Y-132040842D01*
X210395358Y-131965635D01*
X210093447Y-131949009D01*
X209794093Y-131991603D01*
X209508801Y-132091778D01*
X209401001Y-132149400D01*
X209401001Y-128087122D01*
X209670642Y-128156365D01*
X209972553Y-128172991D01*
X210271907Y-128130397D01*
X210557199Y-128030222D01*
X210706792Y-127950261D01*
X210790475Y-127696080D01*
X209906000Y-126811605D01*
X209891858Y-126825748D01*
X209712253Y-126646143D01*
X209726395Y-126632000D01*
X210085605Y-126632000D01*
X210970080Y-127516475D01*
X211224261Y-127432792D01*
X211355158Y-127160225D01*
X211430365Y-126867358D01*
X211446991Y-126565447D01*
X211404397Y-126266093D01*
X211304222Y-125980801D01*
X211224261Y-125831208D01*
X210970080Y-125747525D01*
X210085605Y-126632000D01*
X209726395Y-126632000D01*
X209712253Y-126617858D01*
X209891858Y-126438253D01*
X209906000Y-126452395D01*
X210790475Y-125567920D01*
X210706792Y-125313739D01*
X210434225Y-125182842D01*
X210141358Y-125107635D01*
X209839447Y-125091009D01*
X209540093Y-125133603D01*
X209401001Y-125182443D01*
X209401001Y-121316553D01*
X209404798Y-121278000D01*
X209401001Y-121239447D01*
X209401001Y-121239440D01*
X209389642Y-121124114D01*
X209344755Y-120976141D01*
X209271863Y-120839768D01*
X209173765Y-120720237D01*
X209143818Y-120695660D01*
X207754554Y-119306396D01*
X207785000Y-119153335D01*
X207785000Y-118870665D01*
X207729853Y-118593426D01*
X207621680Y-118332273D01*
X207464637Y-118097241D01*
X207264759Y-117897363D01*
X207029727Y-117740320D01*
X206768574Y-117632147D01*
X206491335Y-117577000D01*
X206208665Y-117577000D01*
X205931426Y-117632147D01*
X205685000Y-117734220D01*
X205685000Y-116987780D01*
X205931426Y-117089853D01*
X206208665Y-117145000D01*
X206491335Y-117145000D01*
X206644397Y-117114554D01*
X210219654Y-120689811D01*
X210244237Y-120719765D01*
X210363768Y-120817863D01*
X210498942Y-120890114D01*
X210500141Y-120890755D01*
X210648114Y-120935643D01*
X210723027Y-120943021D01*
X210763440Y-120947001D01*
X210763445Y-120947001D01*
X210802001Y-120950798D01*
X210840557Y-120947001D01*
X214059000Y-120947001D01*
X214059000Y-121185335D01*
X214114147Y-121462574D01*
X214222320Y-121723727D01*
X214379363Y-121958759D01*
X214579241Y-122158637D01*
X214814273Y-122315680D01*
X215075426Y-122423853D01*
X215352665Y-122479000D01*
X215635335Y-122479000D01*
X215912574Y-122423853D01*
X216173727Y-122315680D01*
X216408759Y-122158637D01*
X216608637Y-121958759D01*
X216765680Y-121723727D01*
X216873853Y-121462574D01*
X216929000Y-121185335D01*
X216929000Y-120902665D01*
X216879875Y-120655703D01*
X219067507Y-118468072D01*
X219900000Y-118468072D01*
X220024482Y-118455812D01*
X220144180Y-118419502D01*
X220254494Y-118360537D01*
X220351185Y-118281185D01*
X220430537Y-118184494D01*
X220489502Y-118074180D01*
X220513966Y-117993534D01*
X220589731Y-118077588D01*
X220823080Y-118251641D01*
X221085901Y-118376825D01*
X221233110Y-118421476D01*
X221463000Y-118300155D01*
X221463000Y-117107000D01*
X221443000Y-117107000D01*
X221443000Y-116853000D01*
X221463000Y-116853000D01*
X221463000Y-115659845D01*
X221717000Y-115659845D01*
X221717000Y-116853000D01*
X221737000Y-116853000D01*
X221737000Y-117107000D01*
X221717000Y-117107000D01*
X221717000Y-118300155D01*
X221946890Y-118421476D01*
X222094099Y-118376825D01*
X222356920Y-118251641D01*
X222590269Y-118077588D01*
X222785178Y-117861355D01*
X222854805Y-117744466D01*
X222976525Y-117926632D01*
X223183368Y-118133475D01*
X223426589Y-118295990D01*
X223696842Y-118407932D01*
X223983740Y-118465000D01*
X224276260Y-118465000D01*
X224563158Y-118407932D01*
X224833411Y-118295990D01*
X225076632Y-118133475D01*
X225283475Y-117926632D01*
X225400000Y-117752240D01*
X225516525Y-117926632D01*
X225723368Y-118133475D01*
X225966589Y-118295990D01*
X226236842Y-118407932D01*
X226523740Y-118465000D01*
X226816260Y-118465000D01*
X227103158Y-118407932D01*
X227373411Y-118295990D01*
X227616632Y-118133475D01*
X227823475Y-117926632D01*
X227940000Y-117752240D01*
X228056525Y-117926632D01*
X228263368Y-118133475D01*
X228506589Y-118295990D01*
X228776842Y-118407932D01*
X229063740Y-118465000D01*
X229356260Y-118465000D01*
X229643158Y-118407932D01*
X229913411Y-118295990D01*
X230156632Y-118133475D01*
X230363475Y-117926632D01*
X230480000Y-117752240D01*
X230596525Y-117926632D01*
X230803368Y-118133475D01*
X231046589Y-118295990D01*
X231316842Y-118407932D01*
X231603740Y-118465000D01*
X231896260Y-118465000D01*
X232183158Y-118407932D01*
X232453411Y-118295990D01*
X232696632Y-118133475D01*
X232903475Y-117926632D01*
X233065990Y-117683411D01*
X233177932Y-117413158D01*
X233235000Y-117126260D01*
X233235000Y-116833740D01*
X233177932Y-116546842D01*
X233065990Y-116276589D01*
X232903475Y-116033368D01*
X232798752Y-115928645D01*
X232864637Y-115862759D01*
X233021680Y-115627727D01*
X233129853Y-115366574D01*
X233185000Y-115089335D01*
X233185000Y-114806665D01*
X233129853Y-114529426D01*
X233021680Y-114268273D01*
X232864637Y-114033241D01*
X232664759Y-113833363D01*
X232429727Y-113676320D01*
X232168574Y-113568147D01*
X231891335Y-113513000D01*
X231608665Y-113513000D01*
X231331426Y-113568147D01*
X231070273Y-113676320D01*
X230835241Y-113833363D01*
X230635363Y-114033241D01*
X230491007Y-114249286D01*
X230346650Y-114033241D01*
X230146772Y-113833363D01*
X229911740Y-113676320D01*
X229650587Y-113568147D01*
X229373348Y-113513000D01*
X229090678Y-113513000D01*
X228813439Y-113568147D01*
X228552286Y-113676320D01*
X228332007Y-113823506D01*
X228111727Y-113676320D01*
X227850574Y-113568147D01*
X227573335Y-113513000D01*
X227290665Y-113513000D01*
X227013426Y-113568147D01*
X226752273Y-113676320D01*
X226517241Y-113833363D01*
X226317363Y-114033241D01*
X226160320Y-114268273D01*
X226052147Y-114529426D01*
X225997000Y-114806665D01*
X225997000Y-115089335D01*
X226029553Y-115252986D01*
X226014139Y-115271767D01*
X225979303Y-115336942D01*
X225941246Y-115408141D01*
X225896359Y-115556114D01*
X225881203Y-115710000D01*
X225882225Y-115720380D01*
X225723368Y-115826525D01*
X225630537Y-115919356D01*
X225655680Y-115881727D01*
X225763853Y-115620574D01*
X225819000Y-115343335D01*
X225819000Y-115060665D01*
X225763853Y-114783426D01*
X225655680Y-114522273D01*
X225498637Y-114287241D01*
X225298759Y-114087363D01*
X225063727Y-113930320D01*
X224802574Y-113822147D01*
X224525335Y-113767000D01*
X224242665Y-113767000D01*
X223965426Y-113822147D01*
X223704273Y-113930320D01*
X223469241Y-114087363D01*
X223269363Y-114287241D01*
X223112320Y-114522273D01*
X223004147Y-114783426D01*
X222949000Y-115060665D01*
X222949000Y-115343335D01*
X223004147Y-115620574D01*
X223112320Y-115881727D01*
X223118667Y-115891226D01*
X222976525Y-116033368D01*
X222854805Y-116215534D01*
X222785178Y-116098645D01*
X222590269Y-115882412D01*
X222356920Y-115708359D01*
X222094099Y-115583175D01*
X221946890Y-115538524D01*
X221717000Y-115659845D01*
X221463000Y-115659845D01*
X221233110Y-115538524D01*
X221085901Y-115583175D01*
X220823080Y-115708359D01*
X220589731Y-115882412D01*
X220513966Y-115966466D01*
X220489502Y-115885820D01*
X220430537Y-115775506D01*
X220351185Y-115678815D01*
X220297127Y-115634451D01*
X226929687Y-109001891D01*
X230863525Y-109001891D01*
X230908176Y-109149100D01*
X231033360Y-109411921D01*
X231207413Y-109645270D01*
X231423646Y-109840179D01*
X231673749Y-109989158D01*
X231948110Y-110086482D01*
X232178001Y-109965815D01*
X232178001Y-108772001D01*
X232432001Y-108772001D01*
X232432001Y-109965815D01*
X232661892Y-110086482D01*
X232936253Y-109989158D01*
X233186356Y-109840179D01*
X233402589Y-109645270D01*
X233576642Y-109411921D01*
X233701826Y-109149100D01*
X233746477Y-109001891D01*
X235513525Y-109001891D01*
X235558176Y-109149100D01*
X235683360Y-109411921D01*
X235857413Y-109645270D01*
X236073646Y-109840179D01*
X236323749Y-109989158D01*
X236598110Y-110086482D01*
X236828001Y-109965815D01*
X236828001Y-108772001D01*
X237082001Y-108772001D01*
X237082001Y-109965815D01*
X237311892Y-110086482D01*
X237586253Y-109989158D01*
X237836356Y-109840179D01*
X238052589Y-109645270D01*
X238226642Y-109411921D01*
X238351826Y-109149100D01*
X238396477Y-109001891D01*
X238275156Y-108772001D01*
X237082001Y-108772001D01*
X236828001Y-108772001D01*
X235634846Y-108772001D01*
X235513525Y-109001891D01*
X233746477Y-109001891D01*
X233625156Y-108772001D01*
X232432001Y-108772001D01*
X232178001Y-108772001D01*
X230984846Y-108772001D01*
X230863525Y-109001891D01*
X226929687Y-109001891D01*
X227484578Y-108447001D01*
X230804532Y-108447001D01*
X230848001Y-108451282D01*
X230891470Y-108447001D01*
X230891478Y-108447001D01*
X230944615Y-108441768D01*
X230984846Y-108518001D01*
X232178001Y-108518001D01*
X232178001Y-108498001D01*
X232432001Y-108498001D01*
X232432001Y-108518001D01*
X233625156Y-108518001D01*
X233746477Y-108288111D01*
X233701826Y-108140902D01*
X233576642Y-107878081D01*
X233402589Y-107644732D01*
X233186356Y-107449823D01*
X233069467Y-107380196D01*
X233251633Y-107258476D01*
X233458476Y-107051633D01*
X233499657Y-106990001D01*
X235760345Y-106990001D01*
X235801526Y-107051633D01*
X236008369Y-107258476D01*
X236190535Y-107380196D01*
X236073646Y-107449823D01*
X235857413Y-107644732D01*
X235683360Y-107878081D01*
X235558176Y-108140902D01*
X235513525Y-108288111D01*
X235634846Y-108518001D01*
X236828001Y-108518001D01*
X236828001Y-108498001D01*
X237082001Y-108498001D01*
X237082001Y-108518001D01*
X238275156Y-108518001D01*
X238396477Y-108288111D01*
X238351826Y-108140902D01*
X238226642Y-107878081D01*
X238052589Y-107644732D01*
X237836356Y-107449823D01*
X237719467Y-107380196D01*
X237901633Y-107258476D01*
X238108476Y-107051633D01*
X238149657Y-106990001D01*
X240410345Y-106990001D01*
X240451526Y-107051633D01*
X240658369Y-107258476D01*
X240840535Y-107380196D01*
X240723646Y-107449823D01*
X240507413Y-107644732D01*
X240333360Y-107878081D01*
X240208176Y-108140902D01*
X240163525Y-108288111D01*
X240284846Y-108518001D01*
X241478001Y-108518001D01*
X241478001Y-108498001D01*
X241732001Y-108498001D01*
X241732001Y-108518001D01*
X242925156Y-108518001D01*
X243046477Y-108288111D01*
X243001826Y-108140902D01*
X242876642Y-107878081D01*
X242702589Y-107644732D01*
X242486356Y-107449823D01*
X242369467Y-107380196D01*
X242551633Y-107258476D01*
X242758476Y-107051633D01*
X242920991Y-106808412D01*
X243032933Y-106538159D01*
X243060734Y-106398393D01*
X243638341Y-105820787D01*
X244184208Y-105820787D01*
X244249461Y-105886040D01*
G37*
G04 #@! TD.AperFunction*
D22*
X221080320Y-100806273D02*
X220972147Y-101067426D01*
X220917000Y-101344665D01*
X220917000Y-101627335D01*
X220947446Y-101780397D01*
X215599390Y-107128453D01*
X215612384Y-107078892D01*
X215631718Y-106757405D01*
X215587961Y-106438325D01*
X215482795Y-106133912D01*
X215389814Y-105959956D01*
X215125413Y-105864192D01*
X214169605Y-106820000D01*
X214183748Y-106834143D01*
X214004143Y-107013748D01*
X213990000Y-106999605D01*
X213034192Y-107955413D01*
X213129956Y-108219814D01*
X213419571Y-108360704D01*
X213731108Y-108442384D01*
X214052595Y-108461718D01*
X214371675Y-108417961D01*
X214555001Y-108354627D01*
X214555002Y-110156277D01*
X214511246Y-110238139D01*
X214466359Y-110386112D01*
X214455000Y-110501438D01*
X214455000Y-110501445D01*
X214451203Y-110539998D01*
X214455000Y-110578551D01*
X214455001Y-114114841D01*
X214264396Y-114305446D01*
X214111335Y-114275000D01*
X213828665Y-114275000D01*
X213551426Y-114330147D01*
X213290273Y-114438320D01*
X213055241Y-114595363D01*
X212855363Y-114795241D01*
X212698320Y-115030273D01*
X212590147Y-115291426D01*
X212535000Y-115568665D01*
X212535000Y-115851335D01*
X212590147Y-116128574D01*
X212698320Y-116389727D01*
X212855363Y-116624759D01*
X213055241Y-116824637D01*
X213185000Y-116911339D01*
X213185001Y-117810661D01*
X213055241Y-117897363D01*
X212855363Y-118097241D01*
X212698320Y-118332273D01*
X212590147Y-118593426D01*
X212535000Y-118870665D01*
X212535000Y-119153335D01*
X212579491Y-119377001D01*
X211127158Y-119377001D01*
X207754554Y-116004397D01*
X207785000Y-115851335D01*
X207785000Y-115568665D01*
X207729853Y-115291426D01*
X207621680Y-115030273D01*
X207464637Y-114795241D01*
X207264759Y-114595363D01*
X207029727Y-114438320D01*
X206768574Y-114330147D01*
X206491335Y-114275000D01*
X206208665Y-114275000D01*
X205931426Y-114330147D01*
X205685000Y-114432220D01*
X205685000Y-113966353D01*
X205682148Y-113937399D01*
X205682169Y-113934427D01*
X205681236Y-113924909D01*
X205676179Y-113876790D01*
X205675088Y-113865717D01*
X205674976Y-113865348D01*
X205671036Y-113827860D01*
X205658543Y-113767000D01*
X205646918Y-113706058D01*
X205644154Y-113696902D01*
X205615298Y-113603683D01*
X205591232Y-113546434D01*
X205567979Y-113488881D01*
X205563489Y-113480436D01*
X205517077Y-113394598D01*
X205482350Y-113343115D01*
X205448364Y-113291179D01*
X205442320Y-113283767D01*
X205380118Y-113208579D01*
X205336051Y-113164818D01*
X205292630Y-113120478D01*
X205285261Y-113114381D01*
X205209640Y-113052706D01*
X205157959Y-113018368D01*
X205106694Y-112983267D01*
X205098281Y-112978718D01*
X205012120Y-112932906D01*
X204954704Y-112909242D01*
X204897661Y-112884792D01*
X204888525Y-112881964D01*
X204795107Y-112853759D01*
X204734195Y-112841698D01*
X204673471Y-112828791D01*
X204663959Y-112827791D01*
X204566841Y-112818269D01*
X204566837Y-112818269D01*
X204533647Y-112815000D01*
X200685000Y-112815000D01*
X200685000Y-109716890D01*
X202368524Y-109716890D01*
X202413175Y-109864099D01*
X202538359Y-110126920D01*
X202712412Y-110360269D01*
X202928645Y-110555178D01*
X203178748Y-110704157D01*
X203453109Y-110801481D01*
X203683000Y-110680814D01*
X203683000Y-109487000D01*
X203937000Y-109487000D01*
X203937000Y-110680814D01*
X204166891Y-110801481D01*
X204441252Y-110704157D01*
X204691355Y-110555178D01*
X204907588Y-110360269D01*
X205081641Y-110126920D01*
X205206825Y-109864099D01*
X205251476Y-109716890D01*
X205130155Y-109487000D01*
X203937000Y-109487000D01*
X203683000Y-109487000D01*
X202489845Y-109487000D01*
X202368524Y-109716890D01*
X200685000Y-109716890D01*
X200685000Y-108464510D01*
X200908665Y-108509000D01*
X201191335Y-108509000D01*
X201468574Y-108453853D01*
X201729727Y-108345680D01*
X201964759Y-108188637D01*
X202164637Y-107988759D01*
X202184521Y-107959000D01*
X202394455Y-107959000D01*
X202429463Y-108024494D01*
X202508815Y-108121185D01*
X202605506Y-108200537D01*
X202715820Y-108259502D01*
X202796466Y-108283966D01*
X202712412Y-108359731D01*
X202538359Y-108593080D01*
X202413175Y-108855901D01*
X202368524Y-109003110D01*
X202489845Y-109233000D01*
X203683000Y-109233000D01*
X203683000Y-109213000D01*
X203937000Y-109213000D01*
X203937000Y-109233000D01*
X205130155Y-109233000D01*
X205251476Y-109003110D01*
X205206825Y-108855901D01*
X205081641Y-108593080D01*
X204907588Y-108359731D01*
X204823534Y-108283966D01*
X204904180Y-108259502D01*
X205014494Y-108200537D01*
X205111185Y-108121185D01*
X205190537Y-108024494D01*
X205249502Y-107914180D01*
X205285812Y-107794482D01*
X205298072Y-107670000D01*
X205298072Y-106882595D01*
X212348282Y-106882595D01*
X212392039Y-107201675D01*
X212497205Y-107506088D01*
X212590186Y-107680044D01*
X212854587Y-107775808D01*
X213810395Y-106820000D01*
X212854587Y-105864192D01*
X212590186Y-105959956D01*
X212449296Y-106249571D01*
X212367616Y-106561108D01*
X212348282Y-106882595D01*
X205298072Y-106882595D01*
X205298072Y-106583506D01*
X206196991Y-105684587D01*
X213034192Y-105684587D01*
X213990000Y-106640395D01*
X214945808Y-105684587D01*
X214850044Y-105420186D01*
X214560429Y-105279296D01*
X214248892Y-105197616D01*
X213927405Y-105178282D01*
X213608325Y-105222039D01*
X213303912Y-105327205D01*
X213129956Y-105420186D01*
X213034192Y-105684587D01*
X206196991Y-105684587D01*
X207443561Y-104438017D01*
X207478665Y-104445000D01*
X207761335Y-104445000D01*
X208038574Y-104389853D01*
X208299727Y-104281680D01*
X208534759Y-104124637D01*
X208734637Y-103924759D01*
X208891680Y-103689727D01*
X208999853Y-103428574D01*
X209050293Y-103175000D01*
X209285335Y-103175000D01*
X209562574Y-103119853D01*
X209823727Y-103011680D01*
X210058759Y-102854637D01*
X210258637Y-102654759D01*
X210415680Y-102419727D01*
X210523853Y-102158574D01*
X210579000Y-101881335D01*
X210579000Y-101598665D01*
X210548554Y-101445603D01*
X211239156Y-100755001D01*
X221114579Y-100755001D01*
X221080320Y-100806273D01*
G04 #@! TA.AperFunction,Conductor*
D23*
G36*
X221080320Y-100806273D02*
G01*
X220972147Y-101067426D01*
X220917000Y-101344665D01*
X220917000Y-101627335D01*
X220947446Y-101780397D01*
X215599390Y-107128453D01*
X215612384Y-107078892D01*
X215631718Y-106757405D01*
X215587961Y-106438325D01*
X215482795Y-106133912D01*
X215389814Y-105959956D01*
X215125413Y-105864192D01*
X214169605Y-106820000D01*
X214183748Y-106834143D01*
X214004143Y-107013748D01*
X213990000Y-106999605D01*
X213034192Y-107955413D01*
X213129956Y-108219814D01*
X213419571Y-108360704D01*
X213731108Y-108442384D01*
X214052595Y-108461718D01*
X214371675Y-108417961D01*
X214555001Y-108354627D01*
X214555002Y-110156277D01*
X214511246Y-110238139D01*
X214466359Y-110386112D01*
X214455000Y-110501438D01*
X214455000Y-110501445D01*
X214451203Y-110539998D01*
X214455000Y-110578551D01*
X214455001Y-114114841D01*
X214264396Y-114305446D01*
X214111335Y-114275000D01*
X213828665Y-114275000D01*
X213551426Y-114330147D01*
X213290273Y-114438320D01*
X213055241Y-114595363D01*
X212855363Y-114795241D01*
X212698320Y-115030273D01*
X212590147Y-115291426D01*
X212535000Y-115568665D01*
X212535000Y-115851335D01*
X212590147Y-116128574D01*
X212698320Y-116389727D01*
X212855363Y-116624759D01*
X213055241Y-116824637D01*
X213185000Y-116911339D01*
X213185001Y-117810661D01*
X213055241Y-117897363D01*
X212855363Y-118097241D01*
X212698320Y-118332273D01*
X212590147Y-118593426D01*
X212535000Y-118870665D01*
X212535000Y-119153335D01*
X212579491Y-119377001D01*
X211127158Y-119377001D01*
X207754554Y-116004397D01*
X207785000Y-115851335D01*
X207785000Y-115568665D01*
X207729853Y-115291426D01*
X207621680Y-115030273D01*
X207464637Y-114795241D01*
X207264759Y-114595363D01*
X207029727Y-114438320D01*
X206768574Y-114330147D01*
X206491335Y-114275000D01*
X206208665Y-114275000D01*
X205931426Y-114330147D01*
X205685000Y-114432220D01*
X205685000Y-113966353D01*
X205682148Y-113937399D01*
X205682169Y-113934427D01*
X205681236Y-113924909D01*
X205676179Y-113876790D01*
X205675088Y-113865717D01*
X205674976Y-113865348D01*
X205671036Y-113827860D01*
X205658543Y-113767000D01*
X205646918Y-113706058D01*
X205644154Y-113696902D01*
X205615298Y-113603683D01*
X205591232Y-113546434D01*
X205567979Y-113488881D01*
X205563489Y-113480436D01*
X205517077Y-113394598D01*
X205482350Y-113343115D01*
X205448364Y-113291179D01*
X205442320Y-113283767D01*
X205380118Y-113208579D01*
X205336051Y-113164818D01*
X205292630Y-113120478D01*
X205285261Y-113114381D01*
X205209640Y-113052706D01*
X205157959Y-113018368D01*
X205106694Y-112983267D01*
X205098281Y-112978718D01*
X205012120Y-112932906D01*
X204954704Y-112909242D01*
X204897661Y-112884792D01*
X204888525Y-112881964D01*
X204795107Y-112853759D01*
X204734195Y-112841698D01*
X204673471Y-112828791D01*
X204663959Y-112827791D01*
X204566841Y-112818269D01*
X204566837Y-112818269D01*
X204533647Y-112815000D01*
X200685000Y-112815000D01*
X200685000Y-109716890D01*
X202368524Y-109716890D01*
X202413175Y-109864099D01*
X202538359Y-110126920D01*
X202712412Y-110360269D01*
X202928645Y-110555178D01*
X203178748Y-110704157D01*
X203453109Y-110801481D01*
X203683000Y-110680814D01*
X203683000Y-109487000D01*
X203937000Y-109487000D01*
X203937000Y-110680814D01*
X204166891Y-110801481D01*
X204441252Y-110704157D01*
X204691355Y-110555178D01*
X204907588Y-110360269D01*
X205081641Y-110126920D01*
X205206825Y-109864099D01*
X205251476Y-109716890D01*
X205130155Y-109487000D01*
X203937000Y-109487000D01*
X203683000Y-109487000D01*
X202489845Y-109487000D01*
X202368524Y-109716890D01*
X200685000Y-109716890D01*
X200685000Y-108464510D01*
X200908665Y-108509000D01*
X201191335Y-108509000D01*
X201468574Y-108453853D01*
X201729727Y-108345680D01*
X201964759Y-108188637D01*
X202164637Y-107988759D01*
X202184521Y-107959000D01*
X202394455Y-107959000D01*
X202429463Y-108024494D01*
X202508815Y-108121185D01*
X202605506Y-108200537D01*
X202715820Y-108259502D01*
X202796466Y-108283966D01*
X202712412Y-108359731D01*
X202538359Y-108593080D01*
X202413175Y-108855901D01*
X202368524Y-109003110D01*
X202489845Y-109233000D01*
X203683000Y-109233000D01*
X203683000Y-109213000D01*
X203937000Y-109213000D01*
X203937000Y-109233000D01*
X205130155Y-109233000D01*
X205251476Y-109003110D01*
X205206825Y-108855901D01*
X205081641Y-108593080D01*
X204907588Y-108359731D01*
X204823534Y-108283966D01*
X204904180Y-108259502D01*
X205014494Y-108200537D01*
X205111185Y-108121185D01*
X205190537Y-108024494D01*
X205249502Y-107914180D01*
X205285812Y-107794482D01*
X205298072Y-107670000D01*
X205298072Y-106882595D01*
X212348282Y-106882595D01*
X212392039Y-107201675D01*
X212497205Y-107506088D01*
X212590186Y-107680044D01*
X212854587Y-107775808D01*
X213810395Y-106820000D01*
X212854587Y-105864192D01*
X212590186Y-105959956D01*
X212449296Y-106249571D01*
X212367616Y-106561108D01*
X212348282Y-106882595D01*
X205298072Y-106882595D01*
X205298072Y-106583506D01*
X206196991Y-105684587D01*
X213034192Y-105684587D01*
X213990000Y-106640395D01*
X214945808Y-105684587D01*
X214850044Y-105420186D01*
X214560429Y-105279296D01*
X214248892Y-105197616D01*
X213927405Y-105178282D01*
X213608325Y-105222039D01*
X213303912Y-105327205D01*
X213129956Y-105420186D01*
X213034192Y-105684587D01*
X206196991Y-105684587D01*
X207443561Y-104438017D01*
X207478665Y-104445000D01*
X207761335Y-104445000D01*
X208038574Y-104389853D01*
X208299727Y-104281680D01*
X208534759Y-104124637D01*
X208734637Y-103924759D01*
X208891680Y-103689727D01*
X208999853Y-103428574D01*
X209050293Y-103175000D01*
X209285335Y-103175000D01*
X209562574Y-103119853D01*
X209823727Y-103011680D01*
X210058759Y-102854637D01*
X210258637Y-102654759D01*
X210415680Y-102419727D01*
X210523853Y-102158574D01*
X210579000Y-101881335D01*
X210579000Y-101598665D01*
X210548554Y-101445603D01*
X211239156Y-100755001D01*
X221114579Y-100755001D01*
X221080320Y-100806273D01*
G37*
G04 #@! TD.AperFunction*
D22*
X263693748Y-111885858D02*
X263679605Y-111900000D01*
X263693748Y-111914143D01*
X263514143Y-112093748D01*
X263500000Y-112079605D01*
X263485858Y-112093748D01*
X263306253Y-111914143D01*
X263320395Y-111900000D01*
X263306253Y-111885858D01*
X263485858Y-111706253D01*
X263500000Y-111720395D01*
X263514143Y-111706253D01*
X263693748Y-111885858D01*
G04 #@! TA.AperFunction,Conductor*
D23*
G36*
X263693748Y-111885858D02*
G01*
X263679605Y-111900000D01*
X263693748Y-111914143D01*
X263514143Y-112093748D01*
X263500000Y-112079605D01*
X263485858Y-112093748D01*
X263306253Y-111914143D01*
X263320395Y-111900000D01*
X263306253Y-111885858D01*
X263485858Y-111706253D01*
X263500000Y-111720395D01*
X263514143Y-111706253D01*
X263693748Y-111885858D01*
G37*
G04 #@! TD.AperFunction*
D22*
X262449016Y-94732312D02*
X262880930Y-94862714D01*
X263279285Y-95074524D01*
X263628914Y-95359675D01*
X263916497Y-95707303D01*
X264131086Y-96104177D01*
X264264498Y-96535161D01*
X264315001Y-97015663D01*
X264315001Y-104274897D01*
X264300792Y-104231739D01*
X264028225Y-104100842D01*
X263735358Y-104025635D01*
X263433447Y-104009009D01*
X263134093Y-104051603D01*
X262848801Y-104151778D01*
X262699208Y-104231739D01*
X262615526Y-104485918D01*
X262499578Y-104369970D01*
X262452813Y-104416735D01*
X262449502Y-104405820D01*
X262390537Y-104295506D01*
X262311185Y-104198815D01*
X262214494Y-104119463D01*
X262104180Y-104060498D01*
X261984482Y-104024188D01*
X261860000Y-104011928D01*
X260060000Y-104011928D01*
X259935518Y-104024188D01*
X259815820Y-104060498D01*
X259705506Y-104119463D01*
X259608815Y-104198815D01*
X259529463Y-104295506D01*
X259470498Y-104405820D01*
X259434188Y-104525518D01*
X259421928Y-104650000D01*
X259421928Y-104765000D01*
X257188556Y-104765000D01*
X257150000Y-104761203D01*
X257111444Y-104765000D01*
X257111439Y-104765000D01*
X257071026Y-104768980D01*
X256996113Y-104776358D01*
X256848140Y-104821246D01*
X256711767Y-104894138D01*
X256592236Y-104992236D01*
X256567653Y-105022190D01*
X253634397Y-107955446D01*
X253481335Y-107925000D01*
X253198665Y-107925000D01*
X252975000Y-107969490D01*
X252975000Y-104636380D01*
X253072581Y-104571179D01*
X253272459Y-104371301D01*
X253429502Y-104136269D01*
X253537675Y-103875116D01*
X253592822Y-103597877D01*
X253592822Y-103315207D01*
X253561751Y-103159004D01*
X253758574Y-103119853D01*
X254019727Y-103011680D01*
X254254759Y-102854637D01*
X254454637Y-102654759D01*
X254541339Y-102525000D01*
X255948661Y-102525000D01*
X256035363Y-102654759D01*
X256235241Y-102854637D01*
X256470273Y-103011680D01*
X256731426Y-103119853D01*
X257008665Y-103175000D01*
X257291335Y-103175000D01*
X257568574Y-103119853D01*
X257829727Y-103011680D01*
X258064759Y-102854637D01*
X258264637Y-102654759D01*
X258421680Y-102419727D01*
X258529853Y-102158574D01*
X258585000Y-101881335D01*
X258585000Y-101598665D01*
X258529853Y-101321426D01*
X258421680Y-101060273D01*
X258264637Y-100825241D01*
X258064759Y-100625363D01*
X257829727Y-100468320D01*
X257568574Y-100360147D01*
X257291335Y-100305000D01*
X257008665Y-100305000D01*
X256731426Y-100360147D01*
X256470273Y-100468320D01*
X256235241Y-100625363D01*
X256035363Y-100825241D01*
X255948661Y-100955000D01*
X254541339Y-100955000D01*
X254454637Y-100825241D01*
X254254759Y-100625363D01*
X254019727Y-100468320D01*
X253758574Y-100360147D01*
X253481335Y-100305000D01*
X253198665Y-100305000D01*
X252921426Y-100360147D01*
X252660273Y-100468320D01*
X252425241Y-100625363D01*
X252225363Y-100825241D01*
X252138661Y-100955000D01*
X251456827Y-100955000D01*
X250185498Y-99683671D01*
X250280000Y-99542240D01*
X250396525Y-99716632D01*
X250603368Y-99923475D01*
X250846589Y-100085990D01*
X251116842Y-100197932D01*
X251403740Y-100255000D01*
X251696260Y-100255000D01*
X251983158Y-100197932D01*
X252253411Y-100085990D01*
X252496632Y-99923475D01*
X252703475Y-99716632D01*
X252820000Y-99542240D01*
X252936525Y-99716632D01*
X253143368Y-99923475D01*
X253386589Y-100085990D01*
X253656842Y-100197932D01*
X253943740Y-100255000D01*
X254236260Y-100255000D01*
X254523158Y-100197932D01*
X254793411Y-100085990D01*
X255036632Y-99923475D01*
X255243475Y-99716632D01*
X255365195Y-99534466D01*
X255434822Y-99651355D01*
X255629731Y-99867588D01*
X255863080Y-100041641D01*
X256125901Y-100166825D01*
X256273110Y-100211476D01*
X256503000Y-100090155D01*
X256503000Y-98897000D01*
X256757000Y-98897000D01*
X256757000Y-100090155D01*
X256986890Y-100211476D01*
X257134099Y-100166825D01*
X257396920Y-100041641D01*
X257630269Y-99867588D01*
X257825178Y-99651355D01*
X257974157Y-99401252D01*
X258071481Y-99126891D01*
X257950814Y-98897000D01*
X256757000Y-98897000D01*
X256503000Y-98897000D01*
X256483000Y-98897000D01*
X256483000Y-98643000D01*
X256503000Y-98643000D01*
X256503000Y-98623000D01*
X256757000Y-98623000D01*
X256757000Y-98643000D01*
X257950814Y-98643000D01*
X258071481Y-98413109D01*
X257974157Y-98138748D01*
X257825178Y-97888645D01*
X257630269Y-97672412D01*
X257400594Y-97501100D01*
X257576632Y-97383475D01*
X257655612Y-97304495D01*
X259515000Y-97304495D01*
X259515000Y-97695505D01*
X259591282Y-98079003D01*
X259740915Y-98440250D01*
X259958149Y-98765364D01*
X260234636Y-99041851D01*
X260559750Y-99259085D01*
X260920997Y-99408718D01*
X261304495Y-99485000D01*
X261695505Y-99485000D01*
X262079003Y-99408718D01*
X262440250Y-99259085D01*
X262765364Y-99041851D01*
X263041851Y-98765364D01*
X263259085Y-98440250D01*
X263408718Y-98079003D01*
X263485000Y-97695505D01*
X263485000Y-97304495D01*
X263408718Y-96920997D01*
X263259085Y-96559750D01*
X263041851Y-96234636D01*
X262765364Y-95958149D01*
X262440250Y-95740915D01*
X262079003Y-95591282D01*
X261695505Y-95515000D01*
X261304495Y-95515000D01*
X260920997Y-95591282D01*
X260559750Y-95740915D01*
X260234636Y-95958149D01*
X259958149Y-96234636D01*
X259740915Y-96559750D01*
X259591282Y-96920997D01*
X259515000Y-97304495D01*
X257655612Y-97304495D01*
X257783475Y-97176632D01*
X257945990Y-96933411D01*
X258057932Y-96663158D01*
X258115000Y-96376260D01*
X258115000Y-96083740D01*
X258057932Y-95796842D01*
X257945990Y-95526589D01*
X257783475Y-95283368D01*
X257576632Y-95076525D01*
X257333411Y-94914010D01*
X257063158Y-94802068D01*
X256776260Y-94745000D01*
X256483740Y-94745000D01*
X256196842Y-94802068D01*
X255926589Y-94914010D01*
X255683368Y-95076525D01*
X255476525Y-95283368D01*
X255360000Y-95457760D01*
X255243475Y-95283368D01*
X255036632Y-95076525D01*
X254793411Y-94914010D01*
X254523158Y-94802068D01*
X254236260Y-94745000D01*
X253943740Y-94745000D01*
X253656842Y-94802068D01*
X253386589Y-94914010D01*
X253143368Y-95076525D01*
X252936525Y-95283368D01*
X252820000Y-95457760D01*
X252703475Y-95283368D01*
X252496632Y-95076525D01*
X252253411Y-94914010D01*
X251983158Y-94802068D01*
X251696260Y-94745000D01*
X251403740Y-94745000D01*
X251116842Y-94802068D01*
X250846589Y-94914010D01*
X250603368Y-95076525D01*
X250396525Y-95283368D01*
X250274805Y-95465534D01*
X250205178Y-95348645D01*
X250010269Y-95132412D01*
X249776920Y-94958359D01*
X249514099Y-94833175D01*
X249366890Y-94788524D01*
X249137000Y-94909845D01*
X249137000Y-96103000D01*
X249157000Y-96103000D01*
X249157000Y-96357000D01*
X249137000Y-96357000D01*
X249137000Y-96377000D01*
X248883000Y-96377000D01*
X248883000Y-96357000D01*
X248863000Y-96357000D01*
X248863000Y-96103000D01*
X248883000Y-96103000D01*
X248883000Y-94909845D01*
X248653110Y-94788524D01*
X248505901Y-94833175D01*
X248243080Y-94958359D01*
X248009731Y-95132412D01*
X247814822Y-95348645D01*
X247745195Y-95465534D01*
X247623475Y-95283368D01*
X247416632Y-95076525D01*
X247173411Y-94914010D01*
X246903158Y-94802068D01*
X246616260Y-94745000D01*
X246323740Y-94745000D01*
X246036842Y-94802068D01*
X245766589Y-94914010D01*
X245523368Y-95076525D01*
X245316525Y-95283368D01*
X245194805Y-95465534D01*
X245125178Y-95348645D01*
X244930269Y-95132412D01*
X244696920Y-94958359D01*
X244434099Y-94833175D01*
X244286890Y-94788524D01*
X244057000Y-94909845D01*
X244057000Y-96103000D01*
X244077000Y-96103000D01*
X244077000Y-96357000D01*
X244057000Y-96357000D01*
X244057000Y-96377000D01*
X243803000Y-96377000D01*
X243803000Y-96357000D01*
X243783000Y-96357000D01*
X243783000Y-96103000D01*
X243803000Y-96103000D01*
X243803000Y-94909845D01*
X243573110Y-94788524D01*
X243425901Y-94833175D01*
X243163080Y-94958359D01*
X242929731Y-95132412D01*
X242734822Y-95348645D01*
X242665195Y-95465534D01*
X242543475Y-95283368D01*
X242336632Y-95076525D01*
X242093411Y-94914010D01*
X241823158Y-94802068D01*
X241536260Y-94745000D01*
X241243740Y-94745000D01*
X240956842Y-94802068D01*
X240686589Y-94914010D01*
X240443368Y-95076525D01*
X240236525Y-95283368D01*
X240120000Y-95457760D01*
X240003475Y-95283368D01*
X239796632Y-95076525D01*
X239553411Y-94914010D01*
X239283158Y-94802068D01*
X238996260Y-94745000D01*
X238703740Y-94745000D01*
X238416842Y-94802068D01*
X238146589Y-94914010D01*
X237903368Y-95076525D01*
X237696525Y-95283368D01*
X237580000Y-95457760D01*
X237463475Y-95283368D01*
X237256632Y-95076525D01*
X237013411Y-94914010D01*
X236743158Y-94802068D01*
X236456260Y-94745000D01*
X236163740Y-94745000D01*
X235876842Y-94802068D01*
X235606589Y-94914010D01*
X235363368Y-95076525D01*
X235156525Y-95283368D01*
X235040000Y-95457760D01*
X234923475Y-95283368D01*
X234716632Y-95076525D01*
X234473411Y-94914010D01*
X234203158Y-94802068D01*
X233916260Y-94745000D01*
X233623740Y-94745000D01*
X233336842Y-94802068D01*
X233066589Y-94914010D01*
X232823368Y-95076525D01*
X232616525Y-95283368D01*
X232494805Y-95465534D01*
X232425178Y-95348645D01*
X232230269Y-95132412D01*
X231996920Y-94958359D01*
X231734099Y-94833175D01*
X231586890Y-94788524D01*
X231357000Y-94909845D01*
X231357000Y-96103000D01*
X231377000Y-96103000D01*
X231377000Y-96357000D01*
X231357000Y-96357000D01*
X231357000Y-96377000D01*
X231103000Y-96377000D01*
X231103000Y-96357000D01*
X231083000Y-96357000D01*
X231083000Y-96103000D01*
X231103000Y-96103000D01*
X231103000Y-94909845D01*
X230873110Y-94788524D01*
X230725901Y-94833175D01*
X230463080Y-94958359D01*
X230229731Y-95132412D01*
X230034822Y-95348645D01*
X229965195Y-95465534D01*
X229843475Y-95283368D01*
X229636632Y-95076525D01*
X229393411Y-94914010D01*
X229123158Y-94802068D01*
X228836260Y-94745000D01*
X228543740Y-94745000D01*
X228256842Y-94802068D01*
X227986589Y-94914010D01*
X227743368Y-95076525D01*
X227536525Y-95283368D01*
X227420000Y-95457760D01*
X227303475Y-95283368D01*
X227096632Y-95076525D01*
X226853411Y-94914010D01*
X226583158Y-94802068D01*
X226296260Y-94745000D01*
X226003740Y-94745000D01*
X225716842Y-94802068D01*
X225446589Y-94914010D01*
X225203368Y-95076525D01*
X224996525Y-95283368D01*
X224874805Y-95465534D01*
X224805178Y-95348645D01*
X224610269Y-95132412D01*
X224376920Y-94958359D01*
X224114099Y-94833175D01*
X223966890Y-94788524D01*
X223737000Y-94909845D01*
X223737000Y-96103000D01*
X223757000Y-96103000D01*
X223757000Y-96357000D01*
X223737000Y-96357000D01*
X223737000Y-96377000D01*
X223483000Y-96377000D01*
X223483000Y-96357000D01*
X223463000Y-96357000D01*
X223463000Y-96103000D01*
X223483000Y-96103000D01*
X223483000Y-94909845D01*
X223253110Y-94788524D01*
X223105901Y-94833175D01*
X222843080Y-94958359D01*
X222609731Y-95132412D01*
X222414822Y-95348645D01*
X222345195Y-95465534D01*
X222223475Y-95283368D01*
X222016632Y-95076525D01*
X221773411Y-94914010D01*
X221503158Y-94802068D01*
X221216260Y-94745000D01*
X220923740Y-94745000D01*
X220636842Y-94802068D01*
X220366589Y-94914010D01*
X220123368Y-95076525D01*
X219916525Y-95283368D01*
X219800000Y-95457760D01*
X219683475Y-95283368D01*
X219476632Y-95076525D01*
X219233411Y-94914010D01*
X218963158Y-94802068D01*
X218676260Y-94745000D01*
X218383740Y-94745000D01*
X218096842Y-94802068D01*
X217826589Y-94914010D01*
X217583368Y-95076525D01*
X217376525Y-95283368D01*
X217260000Y-95457760D01*
X217143475Y-95283368D01*
X216936632Y-95076525D01*
X216693411Y-94914010D01*
X216423158Y-94802068D01*
X216136260Y-94745000D01*
X215843740Y-94745000D01*
X215556842Y-94802068D01*
X215286589Y-94914010D01*
X215043368Y-95076525D01*
X214836525Y-95283368D01*
X214714805Y-95465534D01*
X214645178Y-95348645D01*
X214450269Y-95132412D01*
X214216920Y-94958359D01*
X213954099Y-94833175D01*
X213806890Y-94788524D01*
X213577000Y-94909845D01*
X213577000Y-96103000D01*
X213597000Y-96103000D01*
X213597000Y-96357000D01*
X213577000Y-96357000D01*
X213577000Y-96377000D01*
X213323000Y-96377000D01*
X213323000Y-96357000D01*
X213303000Y-96357000D01*
X213303000Y-96103000D01*
X213323000Y-96103000D01*
X213323000Y-94909845D01*
X213093110Y-94788524D01*
X212945901Y-94833175D01*
X212683080Y-94958359D01*
X212449731Y-95132412D01*
X212254822Y-95348645D01*
X212185195Y-95465534D01*
X212063475Y-95283368D01*
X211856632Y-95076525D01*
X211613411Y-94914010D01*
X211343158Y-94802068D01*
X211056260Y-94745000D01*
X210763740Y-94745000D01*
X210476842Y-94802068D01*
X210206589Y-94914010D01*
X209963368Y-95076525D01*
X209756525Y-95283368D01*
X209640000Y-95457760D01*
X209523475Y-95283368D01*
X209316632Y-95076525D01*
X209073411Y-94914010D01*
X208803158Y-94802068D01*
X208516260Y-94745000D01*
X208223740Y-94745000D01*
X207936842Y-94802068D01*
X207666589Y-94914010D01*
X207423368Y-95076525D01*
X207216525Y-95283368D01*
X207054010Y-95526589D01*
X206942068Y-95796842D01*
X206885000Y-96083740D01*
X206885000Y-96376260D01*
X206942068Y-96663158D01*
X207054010Y-96933411D01*
X207216525Y-97176632D01*
X207348380Y-97308487D01*
X207275820Y-97330498D01*
X207165506Y-97389463D01*
X207068815Y-97468815D01*
X206989463Y-97565506D01*
X206930498Y-97675820D01*
X206894188Y-97795518D01*
X206881928Y-97920000D01*
X206881928Y-99620000D01*
X206894188Y-99744482D01*
X206930498Y-99864180D01*
X206989463Y-99974494D01*
X207068815Y-100071185D01*
X207165506Y-100150537D01*
X207275820Y-100209502D01*
X207395518Y-100245812D01*
X207520000Y-100258072D01*
X209220000Y-100258072D01*
X209344482Y-100245812D01*
X209464180Y-100209502D01*
X209574494Y-100150537D01*
X209671185Y-100071185D01*
X209750537Y-99974494D01*
X209809502Y-99864180D01*
X209831513Y-99791620D01*
X209906868Y-99866975D01*
X209438397Y-100335446D01*
X209285335Y-100305000D01*
X209002665Y-100305000D01*
X208725426Y-100360147D01*
X208464273Y-100468320D01*
X208229241Y-100625363D01*
X208029363Y-100825241D01*
X207872320Y-101060273D01*
X207764147Y-101321426D01*
X207713707Y-101575000D01*
X207478665Y-101575000D01*
X207201426Y-101630147D01*
X206940273Y-101738320D01*
X206705241Y-101895363D01*
X206505363Y-102095241D01*
X206348320Y-102330273D01*
X206240147Y-102591426D01*
X206185000Y-102868665D01*
X206185000Y-103151335D01*
X206191983Y-103186439D01*
X204046494Y-105331928D01*
X202960000Y-105331928D01*
X202835518Y-105344188D01*
X202715820Y-105380498D01*
X202605506Y-105439463D01*
X202508815Y-105518815D01*
X202429463Y-105615506D01*
X202370498Y-105725820D01*
X202334188Y-105845518D01*
X202321928Y-105970000D01*
X202321928Y-106189000D01*
X202184521Y-106189000D01*
X202164637Y-106159241D01*
X201964759Y-105959363D01*
X201729727Y-105802320D01*
X201468574Y-105694147D01*
X201191335Y-105639000D01*
X200908665Y-105639000D01*
X200685000Y-105683490D01*
X200685000Y-97304495D01*
X201515000Y-97304495D01*
X201515000Y-97695505D01*
X201591282Y-98079003D01*
X201740915Y-98440250D01*
X201958149Y-98765364D01*
X202234636Y-99041851D01*
X202559750Y-99259085D01*
X202920997Y-99408718D01*
X203304495Y-99485000D01*
X203695505Y-99485000D01*
X204079003Y-99408718D01*
X204440250Y-99259085D01*
X204765364Y-99041851D01*
X205041851Y-98765364D01*
X205259085Y-98440250D01*
X205408718Y-98079003D01*
X205485000Y-97695505D01*
X205485000Y-97304495D01*
X205408718Y-96920997D01*
X205259085Y-96559750D01*
X205041851Y-96234636D01*
X204765364Y-95958149D01*
X204440250Y-95740915D01*
X204079003Y-95591282D01*
X203695505Y-95515000D01*
X203304495Y-95515000D01*
X202920997Y-95591282D01*
X202559750Y-95740915D01*
X202234636Y-95958149D01*
X201958149Y-96234636D01*
X201740915Y-96559750D01*
X201591282Y-96920997D01*
X201515000Y-97304495D01*
X200685000Y-97304495D01*
X200685000Y-97033505D01*
X200732312Y-96550984D01*
X200862714Y-96119070D01*
X201074524Y-95720715D01*
X201359675Y-95371086D01*
X201707303Y-95083503D01*
X202104177Y-94868914D01*
X202535161Y-94735502D01*
X203015654Y-94685000D01*
X261966495Y-94685000D01*
X262449016Y-94732312D01*
G04 #@! TA.AperFunction,Conductor*
D23*
G36*
X262449016Y-94732312D02*
G01*
X262880930Y-94862714D01*
X263279285Y-95074524D01*
X263628914Y-95359675D01*
X263916497Y-95707303D01*
X264131086Y-96104177D01*
X264264498Y-96535161D01*
X264315001Y-97015663D01*
X264315001Y-104274897D01*
X264300792Y-104231739D01*
X264028225Y-104100842D01*
X263735358Y-104025635D01*
X263433447Y-104009009D01*
X263134093Y-104051603D01*
X262848801Y-104151778D01*
X262699208Y-104231739D01*
X262615526Y-104485918D01*
X262499578Y-104369970D01*
X262452813Y-104416735D01*
X262449502Y-104405820D01*
X262390537Y-104295506D01*
X262311185Y-104198815D01*
X262214494Y-104119463D01*
X262104180Y-104060498D01*
X261984482Y-104024188D01*
X261860000Y-104011928D01*
X260060000Y-104011928D01*
X259935518Y-104024188D01*
X259815820Y-104060498D01*
X259705506Y-104119463D01*
X259608815Y-104198815D01*
X259529463Y-104295506D01*
X259470498Y-104405820D01*
X259434188Y-104525518D01*
X259421928Y-104650000D01*
X259421928Y-104765000D01*
X257188556Y-104765000D01*
X257150000Y-104761203D01*
X257111444Y-104765000D01*
X257111439Y-104765000D01*
X257071026Y-104768980D01*
X256996113Y-104776358D01*
X256848140Y-104821246D01*
X256711767Y-104894138D01*
X256592236Y-104992236D01*
X256567653Y-105022190D01*
X253634397Y-107955446D01*
X253481335Y-107925000D01*
X253198665Y-107925000D01*
X252975000Y-107969490D01*
X252975000Y-104636380D01*
X253072581Y-104571179D01*
X253272459Y-104371301D01*
X253429502Y-104136269D01*
X253537675Y-103875116D01*
X253592822Y-103597877D01*
X253592822Y-103315207D01*
X253561751Y-103159004D01*
X253758574Y-103119853D01*
X254019727Y-103011680D01*
X254254759Y-102854637D01*
X254454637Y-102654759D01*
X254541339Y-102525000D01*
X255948661Y-102525000D01*
X256035363Y-102654759D01*
X256235241Y-102854637D01*
X256470273Y-103011680D01*
X256731426Y-103119853D01*
X257008665Y-103175000D01*
X257291335Y-103175000D01*
X257568574Y-103119853D01*
X257829727Y-103011680D01*
X258064759Y-102854637D01*
X258264637Y-102654759D01*
X258421680Y-102419727D01*
X258529853Y-102158574D01*
X258585000Y-101881335D01*
X258585000Y-101598665D01*
X258529853Y-101321426D01*
X258421680Y-101060273D01*
X258264637Y-100825241D01*
X258064759Y-100625363D01*
X257829727Y-100468320D01*
X257568574Y-100360147D01*
X257291335Y-100305000D01*
X257008665Y-100305000D01*
X256731426Y-100360147D01*
X256470273Y-100468320D01*
X256235241Y-100625363D01*
X256035363Y-100825241D01*
X255948661Y-100955000D01*
X254541339Y-100955000D01*
X254454637Y-100825241D01*
X254254759Y-100625363D01*
X254019727Y-100468320D01*
X253758574Y-100360147D01*
X253481335Y-100305000D01*
X253198665Y-100305000D01*
X252921426Y-100360147D01*
X252660273Y-100468320D01*
X252425241Y-100625363D01*
X252225363Y-100825241D01*
X252138661Y-100955000D01*
X251456827Y-100955000D01*
X250185498Y-99683671D01*
X250280000Y-99542240D01*
X250396525Y-99716632D01*
X250603368Y-99923475D01*
X250846589Y-100085990D01*
X251116842Y-100197932D01*
X251403740Y-100255000D01*
X251696260Y-100255000D01*
X251983158Y-100197932D01*
X252253411Y-100085990D01*
X252496632Y-99923475D01*
X252703475Y-99716632D01*
X252820000Y-99542240D01*
X252936525Y-99716632D01*
X253143368Y-99923475D01*
X253386589Y-100085990D01*
X253656842Y-100197932D01*
X253943740Y-100255000D01*
X254236260Y-100255000D01*
X254523158Y-100197932D01*
X254793411Y-100085990D01*
X255036632Y-99923475D01*
X255243475Y-99716632D01*
X255365195Y-99534466D01*
X255434822Y-99651355D01*
X255629731Y-99867588D01*
X255863080Y-100041641D01*
X256125901Y-100166825D01*
X256273110Y-100211476D01*
X256503000Y-100090155D01*
X256503000Y-98897000D01*
X256757000Y-98897000D01*
X256757000Y-100090155D01*
X256986890Y-100211476D01*
X257134099Y-100166825D01*
X257396920Y-100041641D01*
X257630269Y-99867588D01*
X257825178Y-99651355D01*
X257974157Y-99401252D01*
X258071481Y-99126891D01*
X257950814Y-98897000D01*
X256757000Y-98897000D01*
X256503000Y-98897000D01*
X256483000Y-98897000D01*
X256483000Y-98643000D01*
X256503000Y-98643000D01*
X256503000Y-98623000D01*
X256757000Y-98623000D01*
X256757000Y-98643000D01*
X257950814Y-98643000D01*
X258071481Y-98413109D01*
X257974157Y-98138748D01*
X257825178Y-97888645D01*
X257630269Y-97672412D01*
X257400594Y-97501100D01*
X257576632Y-97383475D01*
X257655612Y-97304495D01*
X259515000Y-97304495D01*
X259515000Y-97695505D01*
X259591282Y-98079003D01*
X259740915Y-98440250D01*
X259958149Y-98765364D01*
X260234636Y-99041851D01*
X260559750Y-99259085D01*
X260920997Y-99408718D01*
X261304495Y-99485000D01*
X261695505Y-99485000D01*
X262079003Y-99408718D01*
X262440250Y-99259085D01*
X262765364Y-99041851D01*
X263041851Y-98765364D01*
X263259085Y-98440250D01*
X263408718Y-98079003D01*
X263485000Y-97695505D01*
X263485000Y-97304495D01*
X263408718Y-96920997D01*
X263259085Y-96559750D01*
X263041851Y-96234636D01*
X262765364Y-95958149D01*
X262440250Y-95740915D01*
X262079003Y-95591282D01*
X261695505Y-95515000D01*
X261304495Y-95515000D01*
X260920997Y-95591282D01*
X260559750Y-95740915D01*
X260234636Y-95958149D01*
X259958149Y-96234636D01*
X259740915Y-96559750D01*
X259591282Y-96920997D01*
X259515000Y-97304495D01*
X257655612Y-97304495D01*
X257783475Y-97176632D01*
X257945990Y-96933411D01*
X258057932Y-96663158D01*
X258115000Y-96376260D01*
X258115000Y-96083740D01*
X258057932Y-95796842D01*
X257945990Y-95526589D01*
X257783475Y-95283368D01*
X257576632Y-95076525D01*
X257333411Y-94914010D01*
X257063158Y-94802068D01*
X256776260Y-94745000D01*
X256483740Y-94745000D01*
X256196842Y-94802068D01*
X255926589Y-94914010D01*
X255683368Y-95076525D01*
X255476525Y-95283368D01*
X255360000Y-95457760D01*
X255243475Y-95283368D01*
X255036632Y-95076525D01*
X254793411Y-94914010D01*
X254523158Y-94802068D01*
X254236260Y-94745000D01*
X253943740Y-94745000D01*
X253656842Y-94802068D01*
X253386589Y-94914010D01*
X253143368Y-95076525D01*
X252936525Y-95283368D01*
X252820000Y-95457760D01*
X252703475Y-95283368D01*
X252496632Y-95076525D01*
X252253411Y-94914010D01*
X251983158Y-94802068D01*
X251696260Y-94745000D01*
X251403740Y-94745000D01*
X251116842Y-94802068D01*
X250846589Y-94914010D01*
X250603368Y-95076525D01*
X250396525Y-95283368D01*
X250274805Y-95465534D01*
X250205178Y-95348645D01*
X250010269Y-95132412D01*
X249776920Y-94958359D01*
X249514099Y-94833175D01*
X249366890Y-94788524D01*
X249137000Y-94909845D01*
X249137000Y-96103000D01*
X249157000Y-96103000D01*
X249157000Y-96357000D01*
X249137000Y-96357000D01*
X249137000Y-96377000D01*
X248883000Y-96377000D01*
X248883000Y-96357000D01*
X248863000Y-96357000D01*
X248863000Y-96103000D01*
X248883000Y-96103000D01*
X248883000Y-94909845D01*
X248653110Y-94788524D01*
X248505901Y-94833175D01*
X248243080Y-94958359D01*
X248009731Y-95132412D01*
X247814822Y-95348645D01*
X247745195Y-95465534D01*
X247623475Y-95283368D01*
X247416632Y-95076525D01*
X247173411Y-94914010D01*
X246903158Y-94802068D01*
X246616260Y-94745000D01*
X246323740Y-94745000D01*
X246036842Y-94802068D01*
X245766589Y-94914010D01*
X245523368Y-95076525D01*
X245316525Y-95283368D01*
X245194805Y-95465534D01*
X245125178Y-95348645D01*
X244930269Y-95132412D01*
X244696920Y-94958359D01*
X244434099Y-94833175D01*
X244286890Y-94788524D01*
X244057000Y-94909845D01*
X244057000Y-96103000D01*
X244077000Y-96103000D01*
X244077000Y-96357000D01*
X244057000Y-96357000D01*
X244057000Y-96377000D01*
X243803000Y-96377000D01*
X243803000Y-96357000D01*
X243783000Y-96357000D01*
X243783000Y-96103000D01*
X243803000Y-96103000D01*
X243803000Y-94909845D01*
X243573110Y-94788524D01*
X243425901Y-94833175D01*
X243163080Y-94958359D01*
X242929731Y-95132412D01*
X242734822Y-95348645D01*
X242665195Y-95465534D01*
X242543475Y-95283368D01*
X242336632Y-95076525D01*
X242093411Y-94914010D01*
X241823158Y-94802068D01*
X241536260Y-94745000D01*
X241243740Y-94745000D01*
X240956842Y-94802068D01*
X240686589Y-94914010D01*
X240443368Y-95076525D01*
X240236525Y-95283368D01*
X240120000Y-95457760D01*
X240003475Y-95283368D01*
X239796632Y-95076525D01*
X239553411Y-94914010D01*
X239283158Y-94802068D01*
X238996260Y-94745000D01*
X238703740Y-94745000D01*
X238416842Y-94802068D01*
X238146589Y-94914010D01*
X237903368Y-95076525D01*
X237696525Y-95283368D01*
X237580000Y-95457760D01*
X237463475Y-95283368D01*
X237256632Y-95076525D01*
X237013411Y-94914010D01*
X236743158Y-94802068D01*
X236456260Y-94745000D01*
X236163740Y-94745000D01*
X235876842Y-94802068D01*
X235606589Y-94914010D01*
X235363368Y-95076525D01*
X235156525Y-95283368D01*
X235040000Y-95457760D01*
X234923475Y-95283368D01*
X234716632Y-95076525D01*
X234473411Y-94914010D01*
X234203158Y-94802068D01*
X233916260Y-94745000D01*
X233623740Y-94745000D01*
X233336842Y-94802068D01*
X233066589Y-94914010D01*
X232823368Y-95076525D01*
X232616525Y-95283368D01*
X232494805Y-95465534D01*
X232425178Y-95348645D01*
X232230269Y-95132412D01*
X231996920Y-94958359D01*
X231734099Y-94833175D01*
X231586890Y-94788524D01*
X231357000Y-94909845D01*
X231357000Y-96103000D01*
X231377000Y-96103000D01*
X231377000Y-96357000D01*
X231357000Y-96357000D01*
X231357000Y-96377000D01*
X231103000Y-96377000D01*
X231103000Y-96357000D01*
X231083000Y-96357000D01*
X231083000Y-96103000D01*
X231103000Y-96103000D01*
X231103000Y-94909845D01*
X230873110Y-94788524D01*
X230725901Y-94833175D01*
X230463080Y-94958359D01*
X230229731Y-95132412D01*
X230034822Y-95348645D01*
X229965195Y-95465534D01*
X229843475Y-95283368D01*
X229636632Y-95076525D01*
X229393411Y-94914010D01*
X229123158Y-94802068D01*
X228836260Y-94745000D01*
X228543740Y-94745000D01*
X228256842Y-94802068D01*
X227986589Y-94914010D01*
X227743368Y-95076525D01*
X227536525Y-95283368D01*
X227420000Y-95457760D01*
X227303475Y-95283368D01*
X227096632Y-95076525D01*
X226853411Y-94914010D01*
X226583158Y-94802068D01*
X226296260Y-94745000D01*
X226003740Y-94745000D01*
X225716842Y-94802068D01*
X225446589Y-94914010D01*
X225203368Y-95076525D01*
X224996525Y-95283368D01*
X224874805Y-95465534D01*
X224805178Y-95348645D01*
X224610269Y-95132412D01*
X224376920Y-94958359D01*
X224114099Y-94833175D01*
X223966890Y-94788524D01*
X223737000Y-94909845D01*
X223737000Y-96103000D01*
X223757000Y-96103000D01*
X223757000Y-96357000D01*
X223737000Y-96357000D01*
X223737000Y-96377000D01*
X223483000Y-96377000D01*
X223483000Y-96357000D01*
X223463000Y-96357000D01*
X223463000Y-96103000D01*
X223483000Y-96103000D01*
X223483000Y-94909845D01*
X223253110Y-94788524D01*
X223105901Y-94833175D01*
X222843080Y-94958359D01*
X222609731Y-95132412D01*
X222414822Y-95348645D01*
X222345195Y-95465534D01*
X222223475Y-95283368D01*
X222016632Y-95076525D01*
X221773411Y-94914010D01*
X221503158Y-94802068D01*
X221216260Y-94745000D01*
X220923740Y-94745000D01*
X220636842Y-94802068D01*
X220366589Y-94914010D01*
X220123368Y-95076525D01*
X219916525Y-95283368D01*
X219800000Y-95457760D01*
X219683475Y-95283368D01*
X219476632Y-95076525D01*
X219233411Y-94914010D01*
X218963158Y-94802068D01*
X218676260Y-94745000D01*
X218383740Y-94745000D01*
X218096842Y-94802068D01*
X217826589Y-94914010D01*
X217583368Y-95076525D01*
X217376525Y-95283368D01*
X217260000Y-95457760D01*
X217143475Y-95283368D01*
X216936632Y-95076525D01*
X216693411Y-94914010D01*
X216423158Y-94802068D01*
X216136260Y-94745000D01*
X215843740Y-94745000D01*
X215556842Y-94802068D01*
X215286589Y-94914010D01*
X215043368Y-95076525D01*
X214836525Y-95283368D01*
X214714805Y-95465534D01*
X214645178Y-95348645D01*
X214450269Y-95132412D01*
X214216920Y-94958359D01*
X213954099Y-94833175D01*
X213806890Y-94788524D01*
X213577000Y-94909845D01*
X213577000Y-96103000D01*
X213597000Y-96103000D01*
X213597000Y-96357000D01*
X213577000Y-96357000D01*
X213577000Y-96377000D01*
X213323000Y-96377000D01*
X213323000Y-96357000D01*
X213303000Y-96357000D01*
X213303000Y-96103000D01*
X213323000Y-96103000D01*
X213323000Y-94909845D01*
X213093110Y-94788524D01*
X212945901Y-94833175D01*
X212683080Y-94958359D01*
X212449731Y-95132412D01*
X212254822Y-95348645D01*
X212185195Y-95465534D01*
X212063475Y-95283368D01*
X211856632Y-95076525D01*
X211613411Y-94914010D01*
X211343158Y-94802068D01*
X211056260Y-94745000D01*
X210763740Y-94745000D01*
X210476842Y-94802068D01*
X210206589Y-94914010D01*
X209963368Y-95076525D01*
X209756525Y-95283368D01*
X209640000Y-95457760D01*
X209523475Y-95283368D01*
X209316632Y-95076525D01*
X209073411Y-94914010D01*
X208803158Y-94802068D01*
X208516260Y-94745000D01*
X208223740Y-94745000D01*
X207936842Y-94802068D01*
X207666589Y-94914010D01*
X207423368Y-95076525D01*
X207216525Y-95283368D01*
X207054010Y-95526589D01*
X206942068Y-95796842D01*
X206885000Y-96083740D01*
X206885000Y-96376260D01*
X206942068Y-96663158D01*
X207054010Y-96933411D01*
X207216525Y-97176632D01*
X207348380Y-97308487D01*
X207275820Y-97330498D01*
X207165506Y-97389463D01*
X207068815Y-97468815D01*
X206989463Y-97565506D01*
X206930498Y-97675820D01*
X206894188Y-97795518D01*
X206881928Y-97920000D01*
X206881928Y-99620000D01*
X206894188Y-99744482D01*
X206930498Y-99864180D01*
X206989463Y-99974494D01*
X207068815Y-100071185D01*
X207165506Y-100150537D01*
X207275820Y-100209502D01*
X207395518Y-100245812D01*
X207520000Y-100258072D01*
X209220000Y-100258072D01*
X209344482Y-100245812D01*
X209464180Y-100209502D01*
X209574494Y-100150537D01*
X209671185Y-100071185D01*
X209750537Y-99974494D01*
X209809502Y-99864180D01*
X209831513Y-99791620D01*
X209906868Y-99866975D01*
X209438397Y-100335446D01*
X209285335Y-100305000D01*
X209002665Y-100305000D01*
X208725426Y-100360147D01*
X208464273Y-100468320D01*
X208229241Y-100625363D01*
X208029363Y-100825241D01*
X207872320Y-101060273D01*
X207764147Y-101321426D01*
X207713707Y-101575000D01*
X207478665Y-101575000D01*
X207201426Y-101630147D01*
X206940273Y-101738320D01*
X206705241Y-101895363D01*
X206505363Y-102095241D01*
X206348320Y-102330273D01*
X206240147Y-102591426D01*
X206185000Y-102868665D01*
X206185000Y-103151335D01*
X206191983Y-103186439D01*
X204046494Y-105331928D01*
X202960000Y-105331928D01*
X202835518Y-105344188D01*
X202715820Y-105380498D01*
X202605506Y-105439463D01*
X202508815Y-105518815D01*
X202429463Y-105615506D01*
X202370498Y-105725820D01*
X202334188Y-105845518D01*
X202321928Y-105970000D01*
X202321928Y-106189000D01*
X202184521Y-106189000D01*
X202164637Y-106159241D01*
X201964759Y-105959363D01*
X201729727Y-105802320D01*
X201468574Y-105694147D01*
X201191335Y-105639000D01*
X200908665Y-105639000D01*
X200685000Y-105683490D01*
X200685000Y-97304495D01*
X201515000Y-97304495D01*
X201515000Y-97695505D01*
X201591282Y-98079003D01*
X201740915Y-98440250D01*
X201958149Y-98765364D01*
X202234636Y-99041851D01*
X202559750Y-99259085D01*
X202920997Y-99408718D01*
X203304495Y-99485000D01*
X203695505Y-99485000D01*
X204079003Y-99408718D01*
X204440250Y-99259085D01*
X204765364Y-99041851D01*
X205041851Y-98765364D01*
X205259085Y-98440250D01*
X205408718Y-98079003D01*
X205485000Y-97695505D01*
X205485000Y-97304495D01*
X205408718Y-96920997D01*
X205259085Y-96559750D01*
X205041851Y-96234636D01*
X204765364Y-95958149D01*
X204440250Y-95740915D01*
X204079003Y-95591282D01*
X203695505Y-95515000D01*
X203304495Y-95515000D01*
X202920997Y-95591282D01*
X202559750Y-95740915D01*
X202234636Y-95958149D01*
X201958149Y-96234636D01*
X201740915Y-96559750D01*
X201591282Y-96920997D01*
X201515000Y-97304495D01*
X200685000Y-97304495D01*
X200685000Y-97033505D01*
X200732312Y-96550984D01*
X200862714Y-96119070D01*
X201074524Y-95720715D01*
X201359675Y-95371086D01*
X201707303Y-95083503D01*
X202104177Y-94868914D01*
X202535161Y-94735502D01*
X203015654Y-94685000D01*
X261966495Y-94685000D01*
X262449016Y-94732312D01*
G37*
G04 #@! TD.AperFunction*
D22*
X263693748Y-105535858D02*
X263679605Y-105550000D01*
X263693748Y-105564143D01*
X263514143Y-105743748D01*
X263500000Y-105729605D01*
X263485858Y-105743748D01*
X263306253Y-105564143D01*
X263320395Y-105550000D01*
X263306253Y-105535858D01*
X263485858Y-105356253D01*
X263500000Y-105370395D01*
X263514143Y-105356253D01*
X263693748Y-105535858D01*
G04 #@! TA.AperFunction,Conductor*
D23*
G36*
X263693748Y-105535858D02*
G01*
X263679605Y-105550000D01*
X263693748Y-105564143D01*
X263514143Y-105743748D01*
X263500000Y-105729605D01*
X263485858Y-105743748D01*
X263306253Y-105564143D01*
X263320395Y-105550000D01*
X263306253Y-105535858D01*
X263485858Y-105356253D01*
X263500000Y-105370395D01*
X263514143Y-105356253D01*
X263693748Y-105535858D01*
G37*
G04 #@! TD.AperFunction*
D22*
X238977000Y-98643000D02*
X238997000Y-98643000D01*
X238997000Y-98897000D01*
X238977000Y-98897000D01*
X238977000Y-98917000D01*
X238723000Y-98917000D01*
X238723000Y-98897000D01*
X238703000Y-98897000D01*
X238703000Y-98643000D01*
X238723000Y-98643000D01*
X238723000Y-98623000D01*
X238977000Y-98623000D01*
X238977000Y-98643000D01*
G04 #@! TA.AperFunction,Conductor*
D23*
G36*
X238977000Y-98643000D02*
G01*
X238997000Y-98643000D01*
X238997000Y-98897000D01*
X238977000Y-98897000D01*
X238977000Y-98917000D01*
X238723000Y-98917000D01*
X238723000Y-98897000D01*
X238703000Y-98897000D01*
X238703000Y-98643000D01*
X238723000Y-98643000D01*
X238723000Y-98623000D01*
X238977000Y-98623000D01*
X238977000Y-98643000D01*
G37*
G04 #@! TD.AperFunction*
D22*
X218657000Y-98643000D02*
X218677000Y-98643000D01*
X218677000Y-98897000D01*
X218657000Y-98897000D01*
X218657000Y-98917000D01*
X218403000Y-98917000D01*
X218403000Y-98897000D01*
X218383000Y-98897000D01*
X218383000Y-98643000D01*
X218403000Y-98643000D01*
X218403000Y-98623000D01*
X218657000Y-98623000D01*
X218657000Y-98643000D01*
G04 #@! TA.AperFunction,Conductor*
D23*
G36*
X218657000Y-98643000D02*
G01*
X218677000Y-98643000D01*
X218677000Y-98897000D01*
X218657000Y-98897000D01*
X218657000Y-98917000D01*
X218403000Y-98917000D01*
X218403000Y-98897000D01*
X218383000Y-98897000D01*
X218383000Y-98643000D01*
X218403000Y-98643000D01*
X218403000Y-98623000D01*
X218657000Y-98623000D01*
X218657000Y-98643000D01*
G37*
G04 #@! TD.AperFunction*
D22*
X240236525Y-97176632D02*
X240443368Y-97383475D01*
X240617760Y-97500000D01*
X240443368Y-97616525D01*
X240236525Y-97823368D01*
X240114805Y-98005534D01*
X240045178Y-97888645D01*
X239850269Y-97672412D01*
X239620594Y-97501100D01*
X239796632Y-97383475D01*
X240003475Y-97176632D01*
X240120000Y-97002240D01*
X240236525Y-97176632D01*
G04 #@! TA.AperFunction,Conductor*
D23*
G36*
X240236525Y-97176632D02*
G01*
X240443368Y-97383475D01*
X240617760Y-97500000D01*
X240443368Y-97616525D01*
X240236525Y-97823368D01*
X240114805Y-98005534D01*
X240045178Y-97888645D01*
X239850269Y-97672412D01*
X239620594Y-97501100D01*
X239796632Y-97383475D01*
X240003475Y-97176632D01*
X240120000Y-97002240D01*
X240236525Y-97176632D01*
G37*
G04 #@! TD.AperFunction*
D22*
X242734822Y-97111355D02*
X242929731Y-97327588D01*
X243159406Y-97498900D01*
X242983368Y-97616525D01*
X242776525Y-97823368D01*
X242660000Y-97997760D01*
X242543475Y-97823368D01*
X242336632Y-97616525D01*
X242162240Y-97500000D01*
X242336632Y-97383475D01*
X242543475Y-97176632D01*
X242665195Y-96994466D01*
X242734822Y-97111355D01*
G04 #@! TA.AperFunction,Conductor*
D23*
G36*
X242734822Y-97111355D02*
G01*
X242929731Y-97327588D01*
X243159406Y-97498900D01*
X242983368Y-97616525D01*
X242776525Y-97823368D01*
X242660000Y-97997760D01*
X242543475Y-97823368D01*
X242336632Y-97616525D01*
X242162240Y-97500000D01*
X242336632Y-97383475D01*
X242543475Y-97176632D01*
X242665195Y-96994466D01*
X242734822Y-97111355D01*
G37*
G04 #@! TD.AperFunction*
M02*
